<svg width="3103" height="2076" xmlns="http://www.w3.org/2000/svg" xmlns:xlink="http://www.w3.org/1999/xlink" xml:space="preserve" overflow="hidden"><defs><clipPath id="clip0"><rect x="389" y="205" width="3103" height="2076"/></clipPath></defs><g clip-path="url(#clip0)" transform="translate(-389 -205)"><rect x="389" y="205" width="3103" height="2076" fill="#FFFFFF"/><path d="M1459.63 1811.98C1452.61 1804.95 1452.61 1793.56 1459.63 1786.54L1661.42 1584.75C1668.44 1577.73 1679.83 1577.73 1686.86 1584.75L1792.78 1690.67C1799.8 1697.7 1799.8 1709.09 1792.78 1716.11L1590.99 1917.9C1583.97 1924.92 1572.58 1924.92 1565.55 1917.9Z" fill="#A6A6A6" fill-rule="evenodd"/><path d="M2545.99 720.554C2543.34 720.554 2541.14 721.83 2539.36 724.382 2537.59 726.935 2536.15 730.804 2535.02 735.992L2530.8 755.586C2530.7 756.065 2530.65 756.471 2530.65 756.804 2530.65 757.367 2530.78 757.846 2531.04 758.242 2531.3 758.638 2531.68 759.028 2532.19 759.414 2532.7 759.799 2533.36 760.132 2534.18 760.414 2534.99 760.695 2536.02 760.836 2537.27 760.836 2538.96 760.836 2540.49 760.315 2541.88 759.273 2543.27 758.231 2544.35 756.752 2545.15 754.836 2545.94 752.919 2546.33 750.731 2546.33 748.273 2546.33 745.919 2545.68 744.075 2544.38 742.742 2543.08 741.409 2541.22 740.648 2538.8 740.461L2539.24 738.242C2541.49 738.075 2543.52 737.429 2545.33 736.304 2547.15 735.179 2548.57 733.705 2549.6 731.882 2550.63 730.06 2551.15 728.065 2551.15 725.898 2551.15 724.169 2550.71 722.846 2549.85 721.929 2548.98 721.013 2547.7 720.554 2545.99 720.554ZM2546.3 718.086C2549.51 718.086 2551.99 718.799 2553.74 720.226 2555.49 721.653 2556.36 723.679 2556.36 726.304 2556.36 727.367 2556.21 728.518 2555.91 729.757 2555.61 730.997 2555.01 732.216 2554.11 733.414 2553.22 734.612 2551.97 735.721 2550.38 736.742 2548.79 737.763 2546.83 738.638 2544.52 739.367L2544.46 739.617C2549.42 741.367 2551.9 744.627 2551.9 749.398 2551.9 751.856 2551.35 754.159 2550.25 756.304 2549.16 758.45 2547.56 760.153 2545.44 761.414 2543.33 762.674 2540.9 763.304 2538.15 763.304 2536.37 763.304 2534.82 763.164 2533.47 762.882 2532.13 762.601 2530.74 762.117 2529.3 761.429L2525.96 776.242 2520.86 776.242 2530.11 734.929C2530.95 731.221 2532.07 728.148 2533.49 725.711 2534.91 723.273 2536.68 721.393 2538.8 720.07 2540.93 718.747 2543.43 718.086 2546.3 718.086Z" fill-rule="evenodd"/><text fill="#000000" fill-opacity="0" font-family="Arial,Arial_MSFontService,sans-serif" font-size="58.1562" x="2520.86" y="768.972">𝛽</text><path d="M2326.01 1120.07C2316.12 1119.2 2308.8 1110.47 2309.67 1100.58L2334.69 816.312C2335.56 806.416 2344.29 799.099 2354.18 799.97L2503.4 813.101C2513.3 813.972 2520.61 822.701 2519.74 832.597L2494.73 1116.86C2493.85 1126.76 2485.13 1134.08 2475.23 1133.21Z" fill="#A6A6A6" fill-rule="evenodd"/><path d="M0 0 78.2278 903.618" stroke="#000000" stroke-width="6.875" stroke-miterlimit="8" stroke-dasharray="27.5 20.625" fill="none" fill-rule="evenodd" transform="matrix(-1 0 0 1 2467.73 337.5)"/><path d="M4.99022 5.76447 101.256 389.476 94.5878 391.149-1.67813 7.43743ZM-10.5129 36.2211-0.00387642-0.0154528 26.366 26.969C27.6929 28.3268 27.6678 30.5031 26.31 31.83 24.9522 33.1569 22.7759 33.1318 21.449 31.774L-0.802287 9.00419 4.95769 7.55913-3.90997 38.1361C-4.43876 39.9594-6.34555 41.0089-8.1689 40.4801-9.99225 39.9513-11.0417 38.0445-10.5129 36.2211Z" transform="matrix(-1 0 0 1 2042.42 1048.5)"/><path d="M0 0 1120.2 0.000360892" stroke="#000000" stroke-width="6.875" stroke-miterlimit="8" fill="none" fill-rule="evenodd" transform="matrix(-0.707107 0.707107 0.707107 0.707107 2407.36 970.174)"/><path d="M0 0 475.36 445.383" stroke="#000000" stroke-width="6.875" stroke-miterlimit="8" stroke-dasharray="27.5 20.625" fill="none" fill-rule="evenodd" transform="matrix(-1 0 0 1 2880.86 528.5)"/><path d="M2490.1 401.444 2517.86 405.466 2542.75 410.731 2567.21 417.346 2591.19 425.284 2614.65 434.517 2637.53 445.016 2659.77 456.752 2681.34 469.697 2702.17 483.821 2722.23 499.096 2741.44 515.492 2759.78 532.982 2777.17 551.535 2793.58 571.124 2808.89 591.641 2803.38 595.752 2788.13 575.313 2788.25 575.464 2771.96 556.024 2772.09 556.167 2754.83 537.754 2754.96 537.89 2736.77 520.533 2736.91 520.661 2717.84 504.388 2717.98 504.507 2698.08 489.348 2698.24 489.459 2677.56 475.441 2677.72 475.543 2656.32 462.696 2656.48 462.789 2634.4 451.141 2634.57 451.225 2611.87 440.805 2612.04 440.879 2588.76 431.716 2588.94 431.781 2565.14 423.902 2565.32 423.957 2541.05 417.393 2541.24 417.438 2516.54 412.215 2516.76 412.254 2489.11 408.248ZM2492.79 418.986 2466.8 402.55 2495.54 391.624Z"/><path d="M2686.69 398.355C2682.05 400.332 2678.34 403.664 2675.57 408.351 2672.8 413.037 2671.42 418.301 2671.42 424.141 2671.42 431.118 2674.49 434.607 2680.63 434.607 2683.05 434.607 2685.22 433.799 2687.14 432.182 2689.06 430.564 2690.56 428.296 2691.66 425.376 2692.75 422.456 2693.29 419.364 2693.29 416.1 2693.29 412.566 2692.8 409.414 2691.81 406.644 2690.82 403.873 2689.12 401.111 2686.69 398.355ZM2691.32 372.93C2693.92 372.93 2696.52 373.386 2699.11 374.3 2701.7 375.213 2704.6 376.823 2707.8 379.129L2706.28 386.316 2702.14 386.316C2701.1 383.022 2699.62 380.559 2697.72 378.927 2695.82 377.295 2693.53 376.478 2690.87 376.478 2688.86 376.478 2687.27 376.995 2686.08 378.028 2684.9 379.061 2684.31 380.402 2684.31 382.049 2684.31 382.917 2684.51 383.786 2684.89 384.654 2685.28 385.523 2686.02 386.683 2687.1 388.136 2688.17 389.588 2689.84 391.632 2692.08 394.268 2694.81 397.532 2696.78 400.212 2698.01 402.309 2699.24 404.405 2700.13 406.524 2700.68 408.665 2701.24 410.806 2701.52 413.21 2701.52 415.875 2701.52 419.589 2700.64 423.212 2698.89 426.746 2697.14 430.28 2694.63 433.065 2691.36 435.102 2688.1 437.138 2684.33 438.156 2680.04 438.156 2676.24 438.156 2673.09 437.527 2670.61 436.27 2668.12 435.012 2666.32 433.305 2665.2 431.148 2664.07 428.992 2663.51 426.506 2663.51 423.691 2663.51 417.342 2665.29 411.78 2668.83 407.003 2672.38 402.226 2677.63 398.385 2684.58 395.48 2682.21 392.815 2680.48 390.509 2679.39 388.562 2678.3 386.616 2677.75 384.774 2677.75 383.037 2677.75 381.15 2678.28 379.443 2679.32 377.916 2680.37 376.389 2681.93 375.176 2684 374.277 2686.06 373.379 2688.5 372.93 2691.32 372.93Z" fill-rule="evenodd"/><text fill="#000000" fill-opacity="0" font-family="Arial,Arial_MSFontService,sans-serif" font-size="65.2266" x="2663.51" y="430.003">𝛿</text><path d="M2115.93 1131.96C2112.12 1131.96 2108.95 1133.8 2106.41 1137.47 2103.86 1141.14 2101.78 1146.7 2100.16 1154.16L2094.1 1182.32C2093.95 1183.01 2093.87 1183.6 2093.87 1184.07 2093.87 1184.88 2094.06 1185.57 2094.43 1186.14 2094.81 1186.71 2095.36 1187.27 2096.1 1187.83 2096.83 1188.38 2097.78 1188.86 2098.95 1189.26 2100.12 1189.67 2101.6 1189.87 2103.4 1189.87 2105.82 1189.87 2108.03 1189.12 2110.02 1187.62 2112.01 1186.13 2113.58 1184 2114.72 1181.24 2115.85 1178.49 2116.42 1175.34 2116.42 1171.81 2116.42 1168.43 2115.49 1165.78 2113.61 1163.86 2111.74 1161.94 2109.07 1160.85 2105.6 1160.58L2106.23 1157.39C2109.46 1157.15 2112.38 1156.22 2114.99 1154.61 2117.59 1152.99 2119.63 1150.87 2121.12 1148.25 2122.6 1145.63 2123.34 1142.76 2123.34 1139.65 2123.34 1137.16 2122.72 1135.26 2121.48 1133.94 2120.23 1132.62 2118.38 1131.96 2115.93 1131.96ZM2116.38 1128.42C2120.99 1128.42 2124.55 1129.44 2127.07 1131.49 2129.58 1133.54 2130.84 1136.46 2130.84 1140.23 2130.84 1141.76 2130.63 1143.41 2130.19 1145.19 2129.76 1146.98 2128.9 1148.73 2127.61 1150.45 2126.32 1152.17 2124.53 1153.77 2122.24 1155.23 2119.95 1156.7 2117.14 1157.96 2113.82 1159.01L2113.73 1159.37C2120.85 1161.88 2124.42 1166.57 2124.42 1173.43 2124.42 1176.96 2123.63 1180.27 2122.06 1183.36 2120.49 1186.44 2118.18 1188.89 2115.14 1190.7 2112.1 1192.51 2108.61 1193.42 2104.65 1193.42 2102.11 1193.42 2099.87 1193.22 2097.94 1192.81 2096.01 1192.41 2094.01 1191.71 2091.94 1190.72L2087.13 1212.02 2079.81 1212.02 2093.11 1152.63C2094.31 1147.3 2095.92 1142.88 2097.96 1139.38 2100 1135.87 2102.54 1133.17 2105.6 1131.27 2108.65 1129.37 2112.24 1128.42 2116.38 1128.42Z" fill-rule="evenodd"/><text fill="#000000" fill-opacity="0" font-family="Arial,Arial_MSFontService,sans-serif" font-size="83.5996" x="2079.81" y="1201.57">𝛽</text><path d="M2044.18 953.312 2062.78 953.312 2062.28 955.513C2060.96 955.662 2059.94 956.052 2059.21 956.681 2058.47 957.31 2057.96 958.186 2057.66 959.309 2057.36 960.432 2057.21 961.937 2057.21 963.823 2057.21 964.273 2057.25 965.62 2057.34 967.866L2058.6 1000.75 2058.6 1004.34 2059.05 1004.34 2078.5 969.259C2079.64 967.192 2080.49 965.418 2081.06 963.936 2081.63 962.453 2081.91 961.143 2081.91 960.005 2081.91 957.489 2080.42 955.992 2077.42 955.513L2077.92 953.312 2096.29 953.312 2095.79 955.513C2094.99 955.633 2094.21 955.94 2093.48 956.434 2092.75 956.928 2091.92 957.751 2091.01 958.904 2090.1 960.057 2088.68 962.281 2086.76 965.575L2058.01 1015.35 2052.04 1015.35 2049.03 965.261C2048.91 963.314 2048.69 961.645 2048.38 960.252 2048.06 958.859 2047.57 957.774 2046.9 956.995 2046.22 956.217 2045.15 955.722 2043.68 955.513Z" fill-rule="evenodd"/><text fill="#000000" fill-opacity="0" font-family="Arial,Arial_MSFontService,sans-serif" font-size="62.0371" x="2043.68" y="1007.59">𝑉</text><path d="M0 0 203.043 190.238" stroke="#000000" stroke-width="6.875" stroke-miterlimit="8" stroke-dasharray="27.5 20.625" fill="none" fill-rule="evenodd" transform="matrix(-1 0 0 1 1615.54 1761.5)"/><path d="M1895.54 2066.21 1615.5 1761.5" stroke="#000000" stroke-width="6.875" stroke-miterlimit="8" stroke-dasharray="27.5 20.625" fill="none" fill-rule="evenodd"/><path d="M2220.54 1739.21 1940.5 1434.5" stroke="#000000" stroke-width="6.875" stroke-miterlimit="8" stroke-dasharray="27.5 20.625" fill="none" fill-rule="evenodd"/><path d="M2692.54 1269.21 2412.5 964.5" stroke="#000000" stroke-width="6.875" stroke-miterlimit="8" stroke-dasharray="27.5 20.625" fill="none" fill-rule="evenodd"/><path d="M7.32528 2.11848 329.105 301.393 324.423 306.427 2.64316 7.15271ZM10.9054 36.1049-0.0116663-0.0108507 36.7996 8.26337C38.6518 8.67971 39.8159 10.5188 39.3996 12.371 38.9832 14.2233 37.1441 15.3874 35.2919 14.971L4.23004 7.98911 8.27434 3.64065 17.4863 34.1156C18.0357 35.9329 17.0078 37.8514 15.1905 38.4007 13.3733 38.95 11.4548 37.9222 10.9054 36.1049ZM320.843 272.44 331.76 308.556 294.949 300.282C293.097 299.866 291.933 298.026 292.349 296.174 292.765 294.322 294.604 293.158 296.457 293.574L327.518 300.556 323.474 304.905 314.262 274.43C313.713 272.612 314.741 270.694 316.558 270.145 318.375 269.595 320.294 270.623 320.843 272.44Z" transform="matrix(-1 0 0 1 2172.25 1691.5)"/><path d="M7.3271 2.12013 483.79 445.258 479.108 450.292 2.64499 7.15435ZM10.9056 36.1048-0.0116663-0.0108504 36.7996 8.26316C38.6519 8.67949 39.816 10.5186 39.3996 12.3708 38.9833 14.2231 37.1442 15.3871 35.292 14.9708L4.23008 7.98909 8.27436 3.6406 17.4865 34.1155C18.0359 35.9328 17.008 37.8513 15.1907 38.4006 13.3735 38.95 11.455 37.9221 10.9056 36.1048ZM475.53 416.308 486.447 452.423 449.635 444.149C447.783 443.733 446.619 441.894 447.035 440.041 447.452 438.189 449.291 437.025 451.143 437.441L482.205 444.423 478.161 448.772 468.949 418.297C468.399 416.48 469.427 414.561 471.245 414.012 473.062 413.462 474.98 414.49 475.53 416.308Z" transform="matrix(-1 0 0 1 2661.94 1233.5)"/><path d="M2060.19 1891.96 2062.84 1891.96 2051.79 1941.69C2051.13 1944.65 2050.8 1946.87 2050.8 1948.34 2050.8 1949.53 2051 1950.4 2051.39 1950.94 2051.77 1951.48 2052.39 1951.75 2053.23 1951.75 2054.13 1951.75 2055.08 1951.38 2056.1 1950.65 2057.12 1949.92 2058.56 1948.52 2060.41 1946.45L2062.98 1948.96C2060.07 1952.02 2057.7 1954.11 2055.85 1955.23 2054.01 1956.35 2051.95 1956.92 2049.68 1956.92 2047.73 1956.92 2046.17 1956.2 2045.01 1954.78 2043.84 1953.36 2043.25 1951.54 2043.25 1949.32 2043.25 1947.32 2043.67 1944.41 2044.51 1940.61L2052.55 1904.63C2052.91 1903.04 2053.17 1901.77 2053.32 1900.83 2053.47 1899.89 2053.54 1899.01 2053.54 1898.2 2053.54 1897.3 2053.38 1896.62 2053.05 1896.16 2052.72 1895.7 2052.25 1895.36 2051.63 1895.15 2051.02 1894.94 2049.92 1894.79 2048.33 1894.7L2048.87 1892.36Z" fill-rule="evenodd"/><text fill="#000000" fill-opacity="0" font-family="Arial,Arial_MSFontService,sans-serif" font-size="64.957" x="2043.25" y="1948.8">𝑙</text><path d="M2078.18 1941.5C2079.8 1941.5 2081.04 1942.02 2081.93 1943.08 2082.81 1944.14 2083.25 1945.53 2083.25 1947.25 2083.25 1948.23 2083.1 1949.11 2082.79 1949.87L2083.25 1950.07C2085.46 1947.12 2087.6 1944.96 2089.68 1943.57 2091.76 1942.19 2093.91 1941.5 2096.11 1941.5 2096.94 1941.5 2097.72 1941.54 2098.45 1941.63 2099.18 1941.71 2099.88 1941.82 2100.56 1941.95L2098.89 1949.87 2095.1 1949.87C2094.99 1948.56 2094.71 1947.62 2094.26 1947.06 2093.81 1946.49 2093.17 1946.21 2092.31 1946.21 2091.81 1946.18 2091.24 1946.34 2090.58 1946.66 2089.93 1946.99 2089.23 1947.46 2088.5 1948.07 2087.77 1948.68 2087.05 1949.4 2086.33 1950.23 2085.61 1951.06 2084.93 1951.96 2084.28 1952.95 2083.64 1953.93 2083.08 1954.97 2082.6 1956.07 2082.12 1957.17 2081.76 1958.28 2081.52 1959.39L2078.18 1974.9 2071.77 1974.9 2076.68 1953.57C2076.98 1952.3 2077.2 1951.26 2077.32 1950.43 2077.44 1949.6 2077.5 1948.9 2077.5 1948.33 2077.5 1946.74 2076.85 1945.94 2075.56 1945.94 2075.15 1945.94 2074.74 1946.03 2074.34 1946.19 2073.93 1946.35 2073.51 1946.6 2073.08 1946.93 2072.64 1947.25 2072.16 1947.67 2071.64 1948.17 2071.12 1948.67 2070.53 1949.26 2069.87 1949.94L2067.62 1947.81C2068.71 1946.7 2069.7 1945.74 2070.61 1944.95 2071.51 1944.15 2072.38 1943.5 2073.21 1942.98 2074.04 1942.47 2074.86 1942.1 2075.66 1941.86 2076.47 1941.62 2077.31 1941.5 2078.18 1941.5Z" fill-rule="evenodd"/><text fill="#000000" fill-opacity="0" font-family="Arial,Arial_MSFontService,sans-serif" font-size="33.4019" x="2067.62" y="1970.72">𝑟</text><path d="M2468.85 1513.92 2471.5 1513.92 2460.45 1563.64C2459.79 1566.61 2459.46 1568.83 2459.46 1570.29 2459.46 1571.49 2459.65 1572.36 2460.04 1572.9 2460.43 1573.44 2461.04 1573.71 2461.88 1573.71 2462.78 1573.71 2463.74 1573.34 2464.76 1572.61 2465.78 1571.87 2467.21 1570.47 2469.07 1568.41L2471.63 1570.92C2468.73 1573.98 2466.35 1576.06 2464.51 1577.19 2462.67 1578.31 2460.61 1578.87 2458.33 1578.87 2456.39 1578.87 2454.83 1578.16 2453.66 1576.74 2452.49 1575.32 2451.91 1573.5 2451.91 1571.28 2451.91 1569.27 2452.33 1566.37 2453.17 1562.57L2461.21 1526.58C2461.57 1525 2461.82 1523.73 2461.97 1522.79 2462.12 1521.84 2462.2 1520.97 2462.2 1520.16 2462.2 1519.26 2462.03 1518.58 2461.7 1518.12 2461.37 1517.65 2460.9 1517.31 2460.29 1517.1 2459.67 1516.9 2458.57 1516.75 2456.99 1516.66L2457.53 1514.32Z" fill-rule="evenodd"/><text fill="#000000" fill-opacity="0" font-family="Arial,Arial_MSFontService,sans-serif" font-size="64.957" x="2451.91" y="1570.75">𝑙</text><path d="M2502.33 1551.12C2503.53 1551.12 2504.59 1551.18 2505.5 1551.3 2506.42 1551.42 2507.3 1551.57 2508.15 1551.74L2506.81 1557.82 2503.57 1557.82C2503.42 1556.58 2503.05 1555.67 2502.46 1555.09 2501.87 1554.52 2501.09 1554.23 2500.1 1554.23 2498.97 1554.23 2498.02 1554.47 2497.24 1554.96 2496.47 1555.45 2495.79 1556.19 2495.21 1557.19 2494.64 1558.18 2494.14 1559.34 2493.72 1560.67 2493.31 1562 2493.03 1563.16 2492.87 1564.14L2501.94 1564.14 2501.22 1567.77 2492.12 1567.77 2486.2 1595.81C2485.17 1600.58 2483.51 1604.12 2481.21 1606.42 2478.91 1608.72 2475.84 1609.87 2472 1609.87 2471 1609.87 2470.27 1609.81 2469.81 1609.68 2469.94 1609.13 2470.06 1608.57 2470.17 1607.99 2470.28 1607.42 2470.41 1606.85 2470.56 1606.31 2470.69 1606.35 2470.88 1606.37 2471.12 1606.37 2471.36 1606.37 2471.7 1606.37 2472.13 1606.37 2472.98 1606.37 2473.76 1606.24 2474.47 1605.96 2475.18 1605.69 2475.83 1605.2 2476.42 1604.49 2477.01 1603.78 2477.55 1602.81 2478.04 1601.58 2478.53 1600.35 2478.99 1598.76 2479.43 1596.82L2485.97 1567.77 2480.34 1567.77 2480.93 1565.25C2482.13 1565.19 2483.09 1565.11 2483.8 1565.02 2484.5 1564.93 2485.1 1564.74 2485.59 1564.45 2486.09 1564.16 2486.45 1563.66 2486.69 1562.96 2487.96 1558.97 2489.86 1556 2492.4 1554.05 2494.94 1552.09 2498.25 1551.12 2502.33 1551.12Z" fill-rule="evenodd"/><text fill="#000000" fill-opacity="0" font-family="Arial,Arial_MSFontService,sans-serif" font-size="58.7559" x="2469.81" y="1602.53">𝑓</text><path d="M1909 1435C1909 1415.67 1924.67 1400 1944 1400 1963.33 1400 1979 1415.67 1979 1435 1979 1454.33 1963.33 1470 1944 1470 1924.67 1470 1909 1454.33 1909 1435Z" stroke="#000000" stroke-width="10.3125" stroke-miterlimit="8" fill="#FFFFFF" fill-rule="evenodd"/><path d="M1909 1433.79C1909.12 1414.54 1924.75 1399 1944 1399L1944 1434Z" fill-rule="evenodd"/><path d="M1979 1434.21C1978.88 1453.46 1963.25 1469 1944 1469L1944 1434Z" fill-rule="evenodd"/><path d="M1599 1762C1599 1752.61 1606.61 1745 1616 1745 1625.39 1745 1633 1752.61 1633 1762 1633 1771.39 1625.39 1779 1616 1779 1606.61 1779 1599 1771.39 1599 1762Z" fill-rule="evenodd"/><path d="M2396 964.5C2396 955.387 2403.39 948 2412.5 948 2421.61 948 2429 955.387 2429 964.5 2429 973.613 2421.61 981 2412.5 981 2403.39 981 2396 973.613 2396 964.5Z" fill-rule="evenodd"/><path d="M1926.62 1500.86C1923.39 1500.86 1920.37 1502.01 1917.57 1504.31 1914.77 1506.62 1912.32 1509.91 1910.2 1514.2 1908.09 1518.48 1906.45 1523.18 1905.29 1528.3 1904.12 1533.42 1903.53 1537.95 1903.53 1541.87 1903.53 1551.12 1906.9 1555.75 1913.64 1555.75 1917.74 1555.75 1921.51 1553.86 1924.94 1550.09 1928.37 1546.32 1931.18 1541.02 1933.36 1534.21 1935.55 1527.4 1936.64 1520.86 1936.64 1514.6 1936.64 1505.44 1933.3 1500.86 1926.62 1500.86ZM1927.12 1496.9C1932.9 1496.9 1937.35 1498.58 1940.48 1501.93 1943.61 1505.29 1945.18 1510.14 1945.18 1516.49 1945.18 1521.13 1944.38 1526.35 1942.8 1532.14 1941.21 1537.94 1938.91 1542.95 1935.9 1547.19 1932.89 1551.43 1929.45 1554.57 1925.59 1556.63 1921.73 1558.68 1917.68 1559.7 1913.46 1559.7 1907.44 1559.7 1902.88 1558.03 1899.76 1554.67 1896.65 1551.32 1895.09 1546.53 1895.09 1540.3 1895.09 1535.8 1895.84 1530.73 1897.36 1525.07 1898.87 1519.41 1901.06 1514.41 1903.92 1510.09 1906.78 1505.76 1910.19 1502.48 1914.16 1500.25 1918.13 1498.02 1922.45 1496.9 1927.12 1496.9Z" fill-rule="evenodd"/><text fill="#000000" fill-opacity="0" font-family="Arial,Arial_MSFontService,sans-serif" font-size="62.8008" x="1895.09" y="1551.85">𝑂</text><path d="M1962.93 1557.39 1959.2 1574.17C1959.72 1574.19 1960.38 1574.22 1961.18 1574.24 1961.97 1574.26 1962.92 1574.27 1964.01 1574.27 1966.36 1574.27 1968.4 1574.07 1970.11 1573.66 1971.82 1573.26 1973.24 1572.63 1974.36 1571.77 1975.49 1570.91 1976.31 1569.79 1976.85 1568.41 1977.38 1567.04 1977.65 1565.39 1977.65 1563.47 1977.65 1562.47 1977.5 1561.59 1977.19 1560.82 1976.89 1560.06 1976.38 1559.42 1975.67 1558.91 1974.96 1558.4 1974.06 1558.02 1972.96 1557.77 1971.85 1557.51 1970.51 1557.39 1968.92 1557.39ZM1972.81 1538.61C1971.76 1538.61 1970.76 1538.63 1969.82 1538.66 1968.87 1538.69 1967.96 1538.75 1967.08 1538.84L1963.71 1553.99 1968.78 1553.99C1971.16 1553.99 1973.17 1553.76 1974.82 1553.32 1976.47 1552.87 1977.8 1552.23 1978.83 1551.4 1979.85 1550.57 1980.6 1549.58 1981.07 1548.41 1981.54 1547.24 1981.77 1545.93 1981.77 1544.47 1981.73 1543.53 1981.54 1542.69 1981.22 1541.95 1980.89 1541.21 1980.37 1540.59 1979.66 1540.1 1978.95 1539.61 1978.04 1539.24 1976.91 1538.99 1975.79 1538.74 1974.42 1538.61 1972.81 1538.61ZM1957.11 1535.21 1974.25 1535.21C1976.8 1535.21 1978.96 1535.42 1980.74 1535.83 1982.52 1536.24 1983.98 1536.84 1985.13 1537.63 1986.27 1538.41 1987.1 1539.36 1987.61 1540.46 1988.12 1541.56 1988.38 1542.82 1988.38 1544.24 1988.38 1549.6 1985.01 1553.39 1978.27 1555.59 1978.27 1555.7 1978.27 1555.79 1978.26 1555.85 1978.24 1555.92 1978.24 1555.97 1978.24 1556.01 1980.27 1556.82 1981.81 1557.93 1982.85 1559.35 1983.9 1560.77 1984.42 1562.41 1984.42 1564.26 1984.42 1566.35 1984.04 1568.22 1983.26 1569.87 1982.49 1571.52 1981.29 1572.91 1979.68 1574.06 1978.07 1575.2 1975.99 1576.09 1973.46 1576.71 1970.93 1577.33 1967.9 1577.64 1964.37 1577.64L1949.03 1577.64 1949.39 1575.64C1950.06 1575.53 1950.61 1575.41 1951.04 1575.27 1951.46 1575.13 1951.84 1574.82 1952.18 1574.35 1952.52 1573.88 1952.83 1573.18 1953.11 1572.24 1953.4 1571.3 1953.73 1569.97 1954.1 1568.25L1959.46 1544.4C1959.68 1543.44 1959.84 1542.59 1959.95 1541.85 1960.06 1541.11 1960.12 1540.5 1960.12 1540.02 1960.12 1539.04 1959.87 1538.34 1959.38 1537.92 1958.89 1537.51 1957.97 1537.29 1956.61 1537.27Z" fill-rule="evenodd"/><text fill="#000000" fill-opacity="0" font-family="Arial,Arial_MSFontService,sans-serif" font-size="42.4312" x="1949.03" y="1572.34">𝐵</text><path d="M651.875 1621.61 651.875 2016.99 638.125 2016.99 638.125 1621.61ZM614.999 1659.4 645 1607.97 675.001 1659.4C676.914 1662.68 675.806 1666.89 672.527 1668.8 669.247 1670.71 665.037 1669.61 663.124 1666.33L639.061 1625.08 650.938 1625.08 626.876 1666.33C624.963 1669.61 620.753 1670.71 617.473 1668.8 614.194 1666.89 613.086 1662.68 614.999 1659.4Z"/><path d="M13.6128-6.87499 409.51-6.87464 409.51 6.87536 13.6128 6.87501ZM51.3984 30.001-0.0318643-7.14162e-07 51.3984-30.0009C54.6781-31.9141 58.8878-30.8063 60.801-27.5266 62.7142-24.2468 61.6064-20.0371 58.3266-18.124L17.0766 5.93849 17.0766-5.93847 58.3266 18.1241C61.6063 20.0373 62.7141 24.2469 60.801 27.5267 58.8878 30.8064 54.6781 31.9142 51.3984 30.001Z" transform="matrix(-1 0 0 1 1049.51 2017)"/><path d="M545.914 2041.1C542.047 2041.1 538.439 2042.47 535.091 2045.23 531.743 2047.99 528.807 2051.93 526.283 2057.05 523.758 2062.17 521.798 2067.79 520.401 2073.91 519.005 2080.04 518.307 2085.44 518.307 2090.13 518.307 2101.2 522.335 2106.73 530.392 2106.73 535.297 2106.73 539.8 2104.48 543.9 2099.96 548 2095.45 551.357 2089.12 553.971 2080.98 556.585 2072.83 557.892 2065.02 557.892 2057.53 557.892 2046.57 553.899 2041.1 545.914 2041.1ZM546.505 2036.37C553.416 2036.37 558.742 2038.38 562.484 2042.39 566.226 2046.4 568.097 2052.2 568.097 2059.79 568.097 2065.34 567.148 2071.58 565.25 2078.51 563.352 2085.43 560.604 2091.43 557.005 2096.5 553.407 2101.57 549.298 2105.33 544.679 2107.78 540.06 2110.23 535.226 2111.46 530.177 2111.46 522.98 2111.46 517.519 2109.45 513.795 2105.44 510.071 2101.43 508.209 2095.7 508.209 2088.25 508.209 2082.88 509.113 2076.81 510.922 2070.05 512.73 2063.28 515.344 2057.31 518.763 2052.13 522.183 2046.96 526.265 2043.04 531.009 2040.37 535.754 2037.7 540.919 2036.37 546.505 2036.37Z" fill-rule="evenodd"/><text fill="#000000" fill-opacity="0" font-family="Arial,Arial_MSFontService,sans-serif" font-size="75.0879" x="508.209" y="2102.07">𝑂</text><path d="M604.742 2081.6C607.321 2081.6 609.755 2081.79 612.047 2082.18 614.339 2082.57 616.67 2083.15 619.039 2083.9L616.657 2094.29 612.438 2094.29C612.282 2091.32 611.572 2089.13 610.309 2087.71 609.046 2086.29 607.021 2085.58 604.235 2085.58 600.146 2085.58 596.526 2087.3 593.375 2090.74 592.047 2092.2 590.81 2093.99 589.664 2096.13 588.519 2098.26 587.522 2100.58 586.676 2103.08 585.83 2105.58 585.166 2108.17 584.684 2110.85 584.202 2113.54 583.961 2116.15 583.961 2118.71 583.961 2122.53 584.684 2125.33 586.129 2127.1 587.575 2128.88 589.821 2129.76 592.867 2129.76 593.961 2129.76 595.035 2129.65 596.09 2129.43 597.145 2129.21 598.134 2128.86 599.059 2128.39 599.983 2127.92 600.804 2127.32 601.52 2126.58 602.236 2125.83 602.802 2124.96 603.219 2123.94 603.505 2123.29 603.759 2122.53 603.981 2121.67 604.202 2120.82 604.378 2119.97 604.508 2119.14 604.638 2118.3 604.736 2117.55 604.801 2116.87 604.866 2116.19 604.899 2115.69 604.899 2115.35 604.899 2114.2 604.593 2113.4 603.981 2112.94 603.369 2112.49 602.269 2112.22 600.68 2112.14L601.227 2109.76 617.828 2109.76 617.242 2112.14C616.305 2112.35 615.589 2112.56 615.094 2112.77 614.599 2112.98 614.183 2113.37 613.844 2113.94 613.61 2114.23 613.31 2115.02 612.946 2116.32 612.581 2117.63 612.171 2119.18 611.715 2120.99 611.259 2122.8 610.791 2124.76 610.309 2126.87 609.827 2128.98 609.378 2131 608.961 2132.92 608.414 2133.08 607.88 2133.22 607.36 2133.35 606.839 2133.48 606.279 2133.61 605.68 2133.75 605.289 2133.3 604.912 2132.84 604.547 2132.36 604.183 2131.88 603.831 2131.4 603.492 2130.93 602.242 2131.51 601.116 2131.98 600.114 2132.36 599.111 2132.74 598.16 2133.04 597.262 2133.26 596.364 2133.48 595.485 2133.63 594.625 2133.73 593.766 2133.82 592.867 2133.86 591.93 2133.86 589.248 2133.86 586.91 2133.44 584.918 2132.59 582.926 2131.75 581.279 2130.56 579.977 2129.04 578.675 2127.51 577.705 2125.7 577.067 2123.61 576.429 2121.51 576.11 2119.2 576.11 2116.67 576.11 2114.02 576.37 2111.32 576.891 2108.57 577.412 2105.82 578.206 2103.15 579.274 2100.54 580.341 2097.94 581.67 2095.48 583.258 2093.18 584.847 2090.87 586.702 2088.87 588.825 2087.16 590.947 2085.46 593.33 2084.1 595.973 2083.1 598.616 2082.1 601.539 2081.6 604.742 2081.6Z" fill-rule="evenodd"/><text fill="#000000" fill-opacity="0" font-family="Arial,Arial_MSFontService,sans-serif" font-size="52.2656" x="576.11" y="2127.33">𝐺</text><path d="M1140.08 2019.41C1136.46 2019.41 1132.98 2021.24 1129.63 2024.89 1126.29 2028.54 1123.72 2033.48 1121.93 2039.71 1126.98 2039.68 1131.31 2039.22 1134.92 2038.35 1138.54 2037.47 1141.32 2036.07 1143.25 2034.16 1145.18 2032.24 1146.15 2029.65 1146.15 2026.39 1146.15 2024.21 1145.64 2022.5 1144.62 2021.27 1143.6 2020.03 1142.09 2019.41 1140.08 2019.41ZM1142.01 2015.17C1146.35 2015.17 1149.6 2016.05 1151.76 2017.8 1153.93 2019.56 1155.01 2022.29 1155.01 2026.02 1155.01 2032.11 1152.16 2036.67 1146.45 2039.71 1140.73 2042.76 1132.26 2044.28 1121.01 2044.28 1120.58 2046.43 1120.37 2048.76 1120.37 2051.26 1120.37 2055.02 1121.1 2057.75 1122.57 2059.45 1124.04 2061.15 1126.44 2062 1129.77 2062 1133.06 2062 1136.04 2061.29 1138.71 2059.86 1141.38 2058.42 1144.2 2056.22 1147.17 2053.25L1150.5 2056.74C1147.03 2060.57 1143.51 2063.46 1139.95 2065.39 1136.38 2067.32 1132.24 2068.29 1127.51 2068.29 1122.32 2068.29 1118.3 2066.7 1115.45 2063.54 1112.61 2060.37 1111.18 2055.95 1111.18 2050.3 1111.18 2046.46 1111.87 2042.36 1113.25 2037.97 1114.63 2033.58 1116.72 2029.64 1119.51 2026.15 1122.3 2022.66 1125.65 2019.96 1129.55 2018.04 1133.46 2016.13 1137.61 2015.17 1142.01 2015.17Z" fill-rule="evenodd"/><text fill="#000000" fill-opacity="0" font-family="Arial,Arial_MSFontService,sans-serif" font-size="53.1201" x="1111.18" y="2061.65">𝑒</text><path d="M1174.08 2050.76C1175.52 2050.76 1176.69 2051.07 1177.6 2051.7 1178.51 2052.32 1179.27 2053.24 1179.87 2054.43 1180.46 2055.63 1180.96 2057.11 1181.35 2058.87 1181.74 2060.62 1182.16 2062.64 1182.6 2064.9L1183.11 2064.9C1184.67 2062.84 1186.02 2061.06 1187.17 2059.55 1188.32 2058.04 1189.34 2056.76 1190.24 2055.72 1191.14 2054.68 1191.94 2053.83 1192.66 2053.18 1193.37 2052.53 1194.07 2052.03 1194.75 2051.68 1195.43 2051.33 1196.12 2051.09 1196.84 2050.96 1197.55 2050.83 1198.36 2050.76 1199.24 2050.76 1200.54 2050.76 1201.73 2051 1202.8 2051.46L1200.84 2059.16 1197.6 2059.16C1197.52 2058.04 1197.11 2057.48 1196.35 2057.48 1196.06 2057.48 1195.75 2057.53 1195.41 2057.64 1195.07 2057.74 1194.67 2057.95 1194.2 2058.26 1193.73 2058.57 1193.19 2059.01 1192.58 2059.57 1191.97 2060.13 1191.25 2060.86 1190.41 2061.76 1189.58 2062.66 1188.63 2063.76 1187.56 2065.06 1186.49 2066.36 1185.27 2067.9 1183.89 2069.67 1184.59 2073.26 1185.2 2076.14 1185.71 2078.3 1186.21 2080.46 1186.7 2082.12 1187.17 2083.26 1187.64 2084.41 1188.11 2085.16 1188.58 2085.51 1189.05 2085.86 1189.58 2086.03 1190.18 2086.03 1190.62 2086.03 1191.03 2085.98 1191.41 2085.88 1191.79 2085.77 1192.18 2085.55 1192.58 2085.2 1192.98 2084.84 1193.43 2084.34 1193.93 2083.67 1194.42 2083.01 1195.01 2082.13 1195.69 2081.03L1198.62 2082.95C1197.47 2084.67 1196.45 2086.07 1195.57 2087.17 1194.68 2088.26 1193.82 2089.12 1192.99 2089.75 1192.16 2090.37 1191.3 2090.79 1190.41 2091.02 1189.53 2091.24 1188.51 2091.35 1187.37 2091.35 1186.38 2091.35 1185.49 2091.21 1184.71 2090.94 1183.93 2090.66 1183.25 2090.16 1182.68 2089.43 1182.29 2088.99 1181.92 2088.4 1181.58 2087.66 1181.25 2086.91 1180.93 2086.11 1180.65 2085.25 1180.36 2084.39 1180.1 2083.5 1179.87 2082.58 1179.63 2081.65 1179.44 2080.79 1179.28 2079.98 1179.12 2079.17 1179 2078.45 1178.91 2077.81 1178.82 2077.17 1178.76 2076.7 1178.73 2076.39L1178.3 2076.39C1176.74 2078.47 1175.38 2080.29 1174.22 2081.84 1173.06 2083.39 1172.01 2084.71 1171.08 2085.82 1170.14 2086.93 1169.29 2087.84 1168.54 2088.55 1167.78 2089.27 1167.04 2089.84 1166.31 2090.25 1165.58 2090.67 1164.83 2090.96 1164.06 2091.11 1163.3 2091.27 1162.44 2091.35 1161.51 2091.35 1160.15 2091.35 1158.99 2091.11 1158.03 2090.64L1159.83 2083.03 1163.15 2083.03C1163.22 2084.17 1163.65 2084.75 1164.44 2084.75 1164.72 2084.72 1165 2084.67 1165.28 2084.59 1165.55 2084.51 1165.87 2084.35 1166.23 2084.1 1166.6 2083.85 1167.06 2083.46 1167.62 2082.93 1168.18 2082.4 1168.89 2081.65 1169.75 2080.7 1170.61 2079.75 1171.66 2078.56 1172.91 2077.13 1174.16 2075.7 1175.66 2073.93 1177.4 2071.82 1176.94 2069.63 1176.53 2067.73 1176.17 2066.11 1175.82 2064.5 1175.5 2063.11 1175.2 2061.95 1174.9 2060.79 1174.61 2059.85 1174.32 2059.12 1174.03 2058.39 1173.74 2057.81 1173.44 2057.38 1173.14 2056.95 1172.81 2056.65 1172.46 2056.46 1172.11 2056.28 1171.7 2056.18 1171.23 2056.15 1170.79 2056.15 1170.38 2056.22 1170 2056.37 1169.62 2056.51 1169.23 2056.76 1168.83 2057.13 1168.43 2057.49 1167.98 2058 1167.5 2058.65 1167.02 2059.3 1166.47 2060.15 1165.84 2061.19L1162.83 2059.24C1163.9 2057.65 1164.87 2056.31 1165.72 2055.21 1166.58 2054.12 1167.43 2053.25 1168.26 2052.6 1169.1 2051.95 1169.98 2051.48 1170.9 2051.19 1171.83 2050.9 1172.89 2050.76 1174.08 2050.76Z" fill-rule="evenodd"/><text fill="#000000" fill-opacity="0" font-family="Arial,Arial_MSFontService,sans-serif" font-size="40.5859" x="1158.03" y="2086.27">𝑥</text><path d="M1200 1974.09C1202.58 1974.09 1205.02 1974.28 1207.31 1974.67 1209.6 1975.06 1211.93 1975.64 1214.3 1976.39L1211.92 1986.78 1207.7 1986.78C1207.54 1983.81 1206.83 1981.62 1205.57 1980.2 1204.31 1978.78 1202.28 1978.07 1199.49 1978.07 1195.41 1978.07 1191.79 1979.79 1188.63 1983.23 1187.31 1984.68 1186.07 1986.48 1184.92 1988.62 1183.78 1990.75 1182.78 1993.07 1181.94 1995.57 1181.09 1998.07 1180.43 2000.66 1179.94 2003.34 1179.46 2006.03 1179.22 2008.64 1179.22 2011.2 1179.22 2015.02 1179.94 2017.82 1181.39 2019.59 1182.83 2021.36 1185.08 2022.25 1188.13 2022.25 1189.22 2022.25 1190.29 2022.14 1191.35 2021.92 1192.4 2021.7 1193.39 2021.35 1194.32 2020.88 1195.24 2020.41 1196.06 2019.81 1196.78 2019.07 1197.5 2018.32 1198.06 2017.45 1198.48 2016.43 1198.77 2015.78 1199.02 2015.02 1199.24 2014.16 1199.46 2013.3 1199.64 2012.46 1199.77 2011.62 1199.9 2010.79 1200 2010.04 1200.06 2009.36 1200.13 2008.68 1200.16 2008.17 1200.16 2007.84 1200.16 2006.69 1199.85 2005.89 1199.24 2005.43 1198.63 2004.98 1197.53 2004.71 1195.94 2004.63L1196.49 2002.25 1213.09 2002.25 1212.5 2004.63C1211.56 2004.84 1210.85 2005.05 1210.35 2005.26 1209.86 2005.47 1209.44 2005.86 1209.1 2006.43 1208.87 2006.72 1208.57 2007.51 1208.21 2008.81 1207.84 2010.11 1207.43 2011.67 1206.97 2013.48 1206.52 2015.29 1206.05 2017.25 1205.57 2019.36 1205.09 2021.47 1204.64 2023.49 1204.22 2025.41 1203.67 2025.57 1203.14 2025.71 1202.62 2025.84 1202.1 2025.97 1201.54 2026.1 1200.94 2026.23 1200.55 2025.79 1200.17 2025.33 1199.81 2024.85 1199.44 2024.37 1199.09 2023.89 1198.75 2023.42 1197.5 2023.99 1196.38 2024.47 1195.37 2024.85 1194.37 2025.23 1193.42 2025.52 1192.52 2025.75 1191.62 2025.97 1190.74 2026.12 1189.88 2026.21 1189.03 2026.31 1188.13 2026.35 1187.19 2026.35 1184.51 2026.35 1182.17 2025.93 1180.18 2025.08 1178.19 2024.24 1176.54 2023.05 1175.24 2021.53 1173.93 2020 1172.96 2018.19 1172.33 2016.1 1171.69 2014 1171.37 2011.69 1171.37 2009.16 1171.37 2006.51 1171.63 2003.81 1172.15 2001.06 1172.67 1998.31 1173.47 1995.64 1174.53 1993.03 1175.6 1990.43 1176.93 1987.97 1178.52 1985.67 1180.11 1983.36 1181.96 1981.36 1184.08 1979.65 1186.21 1977.95 1188.59 1976.59 1191.23 1975.59 1193.88 1974.59 1196.8 1974.09 1200 1974.09Z" fill-rule="evenodd"/><text fill="#000000" fill-opacity="0" font-family="Arial,Arial_MSFontService,sans-serif" font-size="52.2656" x="1171.37" y="2019.82">𝐺</text><path d="M1213.14 1939.74 1226.62 1951.39 1226.62 1954.51 1213.14 1966.16 1210.29 1962.94 1218.88 1955.47 1196.8 1955.47 1186.12 1955.47 1177.14 1955.47 1164.58 1955.47 1157.48 1955.47 1144.92 1955.47 1137.82 1955.47 1125.25 1955.47 1105.59 1955.47 1105.59 1950.42 1125.25 1950.42 1137.82 1950.42 1144.92 1950.42 1157.48 1950.42 1164.58 1950.42 1177.14 1950.42 1186.12 1950.42 1196.8 1950.42 1218.88 1950.42 1210.29 1942.96Z" fill-rule="evenodd"/><path d="M613.755 1473.84C610.139 1473.84 606.657 1475.67 603.309 1479.32 599.961 1482.97 597.391 1487.91 595.601 1494.14 600.65 1494.11 604.983 1493.65 608.599 1492.77 612.216 1491.9 614.991 1490.5 616.924 1488.58 618.858 1486.67 619.825 1484.08 619.825 1480.82 619.825 1478.64 619.314 1476.93 618.294 1475.69 617.273 1474.46 615.761 1473.84 613.755 1473.84ZM615.689 1469.6C620.022 1469.6 623.271 1470.47 625.438 1472.23 627.604 1473.98 628.687 1476.72 628.687 1480.45 628.687 1486.53 625.831 1491.1 620.12 1494.14 614.409 1497.19 605.931 1498.71 594.688 1498.71 594.258 1500.86 594.043 1503.18 594.043 1505.69 594.043 1509.45 594.778 1512.18 596.246 1513.88 597.714 1515.58 600.113 1516.43 603.443 1516.43 606.737 1516.43 609.718 1515.72 612.386 1514.28 615.053 1512.85 617.873 1510.65 620.845 1507.68L624.175 1511.17C620.702 1515 617.184 1517.88 613.621 1519.82 610.058 1521.75 605.914 1522.72 601.187 1522.72 595.995 1522.72 591.976 1521.13 589.129 1517.96 586.282 1514.79 584.859 1510.38 584.859 1504.72 584.859 1500.89 585.548 1496.78 586.927 1492.4 588.305 1488.01 590.391 1484.07 593.184 1480.58 595.977 1477.09 599.325 1474.39 603.228 1472.47 607.131 1470.56 611.285 1469.6 615.689 1469.6Z" fill-rule="evenodd"/><text fill="#000000" fill-opacity="0" font-family="Arial,Arial_MSFontService,sans-serif" font-size="53.1201" x="584.859" y="1516.08">𝑒</text><path d="M645.689 1505.19C646.626 1505.19 647.433 1505.29 648.11 1505.48 648.787 1505.68 649.399 1505.98 649.946 1506.4 650.493 1506.82 650.982 1507.36 651.411 1508.02 651.841 1508.69 652.277 1509.49 652.72 1510.42 652.954 1511 653.202 1511.82 653.462 1512.88 653.722 1513.95 653.996 1515.19 654.282 1516.6 654.569 1518 654.855 1519.55 655.142 1521.24 655.428 1522.94 655.715 1524.71 656.001 1526.56 656.287 1528.41 656.561 1530.3 656.821 1532.24 657.082 1534.18 657.329 1536.09 657.564 1537.96 659.517 1535.41 661.274 1532.83 662.837 1530.21 664.399 1527.59 665.721 1525.12 666.802 1522.79 667.883 1520.46 668.709 1518.33 669.282 1516.42 669.855 1514.51 670.129 1512.98 670.103 1511.83 670.103 1510.68 669.803 1509.86 669.204 1509.37 668.605 1508.87 667.603 1508.59 666.196 1508.51L666.704 1506.01 677.837 1506.01 679.204 1508.28C676.6 1514.71 673.56 1520.91 670.083 1526.89 666.607 1532.87 662.681 1538.67 658.306 1544.29 656.405 1546.56 654.692 1548.51 653.169 1550.15 651.646 1551.79 650.239 1553.2 648.95 1554.39 647.661 1555.57 646.463 1556.54 645.357 1557.3 644.25 1558.05 643.176 1558.66 642.134 1559.12 641.092 1559.57 640.057 1559.9 639.028 1560.09 638 1560.29 636.926 1560.41 635.806 1560.46 635.207 1560.46 634.484 1560.4 633.638 1560.27 632.791 1560.14 632.043 1559.97 631.392 1559.76L633.345 1551.21 636.899 1551.21 636.899 1551.44C636.899 1553.21 637.616 1554.1 639.048 1554.1 640.949 1554.1 642.876 1553.36 644.829 1551.89 646.782 1550.42 649.139 1548.07 651.899 1544.84 651.04 1539.89 650.285 1535.61 649.634 1532.01 648.983 1528.4 648.39 1525.33 647.857 1522.79 647.323 1520.25 646.834 1518.18 646.392 1516.6 645.949 1515.01 645.519 1513.77 645.103 1512.88 644.686 1512 644.263 1511.39 643.833 1511.07 643.403 1510.74 642.941 1510.58 642.446 1510.58 641.978 1510.58 641.548 1510.64 641.157 1510.76 640.767 1510.87 640.363 1511.11 639.946 1511.48 639.53 1511.84 639.08 1512.36 638.599 1513.02 638.117 1513.69 637.524 1514.55 636.821 1515.62L633.814 1513.67C634.933 1512.03 635.962 1510.66 636.899 1509.56 637.837 1508.47 638.768 1507.6 639.692 1506.97 640.617 1506.33 641.561 1505.87 642.524 1505.6 643.488 1505.33 644.543 1505.19 645.689 1505.19Z" fill-rule="evenodd"/><text fill="#000000" fill-opacity="0" font-family="Arial,Arial_MSFontService,sans-serif" font-size="55.2734" x="631.392" y="1553.55">𝑦</text><path d="M673.677 1428.51C676.255 1428.51 678.69 1428.71 680.981 1429.1 683.273 1429.49 685.604 1430.06 687.973 1430.82L685.591 1441.21 681.372 1441.21C681.216 1438.24 680.506 1436.05 679.243 1434.63 677.98 1433.21 675.955 1432.5 673.169 1432.5 669.08 1432.5 665.46 1434.22 662.309 1437.65 660.981 1439.11 659.744 1440.91 658.598 1443.05 657.453 1445.18 656.457 1447.5 655.61 1450 654.764 1452.5 654.1 1455.09 653.618 1457.77 653.136 1460.45 652.895 1463.07 652.895 1465.62 652.895 1469.45 653.618 1472.25 655.063 1474.02 656.509 1475.79 658.755 1476.68 661.802 1476.68 662.895 1476.68 663.97 1476.57 665.024 1476.35 666.079 1476.12 667.068 1475.78 667.993 1475.31 668.917 1474.84 669.738 1474.24 670.454 1473.49 671.17 1472.75 671.736 1471.87 672.153 1470.86 672.44 1470.21 672.693 1469.45 672.915 1468.59 673.136 1467.73 673.312 1466.89 673.442 1466.05 673.572 1465.22 673.67 1464.46 673.735 1463.79 673.8 1463.11 673.833 1462.6 673.833 1462.26 673.833 1461.12 673.527 1460.32 672.915 1459.86 672.303 1459.41 671.203 1459.14 669.614 1459.06L670.161 1456.68 686.763 1456.68 686.177 1459.06C685.239 1459.27 684.523 1459.48 684.028 1459.69 683.533 1459.89 683.117 1460.29 682.778 1460.86 682.544 1461.14 682.244 1461.94 681.88 1463.24 681.515 1464.54 681.105 1466.1 680.649 1467.91 680.193 1469.72 679.725 1471.68 679.243 1473.79 678.761 1475.9 678.312 1477.92 677.895 1479.84 677.348 1480 676.815 1480.14 676.294 1480.27 675.773 1480.4 675.213 1480.53 674.614 1480.66 674.223 1480.22 673.846 1479.76 673.481 1479.28 673.117 1478.79 672.765 1478.32 672.427 1477.85 671.177 1478.42 670.05 1478.9 669.048 1479.28 668.045 1479.65 667.095 1479.95 666.196 1480.17 665.298 1480.4 664.419 1480.55 663.559 1480.64 662.7 1480.73 661.802 1480.78 660.864 1480.78 658.182 1480.78 655.845 1480.36 653.852 1479.51 651.86 1478.66 650.213 1477.48 648.911 1475.96 647.609 1474.43 646.639 1472.62 646.001 1470.53 645.363 1468.43 645.044 1466.12 645.044 1463.59 645.044 1460.94 645.304 1458.23 645.825 1455.49 646.346 1452.74 647.14 1450.06 648.208 1447.46 649.276 1444.86 650.604 1442.4 652.192 1440.1 653.781 1437.79 655.636 1435.79 657.759 1434.08 659.881 1432.37 662.264 1431.02 664.907 1430.02 667.55 1429.02 670.473 1428.51 673.677 1428.51Z" fill-rule="evenodd"/><text fill="#000000" fill-opacity="0" font-family="Arial,Arial_MSFontService,sans-serif" font-size="52.2656" x="645.044" y="1474.25">𝐺</text><path d="M686.811 1394.16 700.292 1405.82 700.292 1408.93 686.811 1420.59 683.964 1417.37 692.558 1409.9 670.479 1409.9 659.794 1409.9 650.817 1409.9 638.253 1409.9 631.154 1409.9 618.59 1409.9 611.492 1409.9 598.928 1409.9 579.265 1409.9 579.265 1404.85 598.928 1404.85 611.492 1404.85 618.59 1404.85 631.154 1404.85 638.253 1404.85 650.817 1404.85 659.794 1404.85 670.479 1404.85 692.558 1404.85 683.964 1397.39Z" fill-rule="evenodd"/><path d="M0 0 396.583 0.000360892" stroke="#000000" stroke-width="6.875" stroke-miterlimit="8" stroke-dasharray="27.5 20.625" fill="none" fill-rule="evenodd" transform="matrix(-1 0 0 1 2338.08 1436.5)"/><path d="M2148.32 1264.23 2158.99 1277.16 2166.73 1287.99 2173.87 1299.13 2180.45 1310.59 2186.44 1322.35 2191.84 1334.39 2196.64 1346.68 2200.82 1359.2 2204.39 1371.92 2207.32 1384.83 2209.61 1397.9 2211.26 1411.11 2212.24 1424.44 2212.55 1437.77 2205.68 1437.93 2205.37 1424.69 2205.38 1424.86 2204.41 1411.7 2204.42 1411.88 2202.8 1398.84 2202.83 1399.01 2200.56 1386.11 2200.6 1386.27 2197.7 1373.53 2197.75 1373.7 2194.23 1361.13 2194.28 1361.3 2190.15 1348.94 2190.2 1349.1 2185.47 1336.97 2185.53 1337.13 2180.2 1325.24 2180.28 1325.4 2174.36 1313.79 2174.44 1313.94 2167.95 1302.62 2168.04 1302.77 2160.99 1291.77 2161.08 1291.91 2153.47 1281.25 2153.61 1281.44 2143.02 1268.61ZM2138.64 1279.1 2130.18 1249.54 2158.9 1260.5Z"/><path d="M2244.82 1299.99C2239.52 1300.25 2234.93 1302.55 2231.06 1306.86 2227.18 1311.17 2225.24 1316.49 2225.24 1322.81 2225.24 1326.7 2226.27 1329.96 2228.34 1332.6 2230.41 1335.23 2233.18 1336.72 2236.65 1337.05ZM2251.92 1299.9 2243.75 1337C2247.4 1336.85 2250.72 1335.76 2253.72 1333.72 2256.71 1331.68 2259.07 1328.93 2260.77 1325.46 2262.48 1321.98 2263.33 1318.21 2263.33 1314.14 2263.33 1311.74 2262.91 1309.51 2262.07 1307.44 2261.24 1305.38 2259.94 1303.66 2258.19 1302.3 2256.44 1300.94 2254.35 1300.13 2251.92 1299.9ZM2249.86 1277.03 2256.95 1277.03 2252.73 1296.3C2258.78 1296.75 2263.39 1298.52 2266.54 1301.6 2269.7 1304.69 2271.28 1308.86 2271.28 1314.14 2271.28 1318.12 2270.58 1321.73 2269.17 1324.98 2267.77 1328.23 2265.7 1331.08 2262.97 1333.52 2260.25 1335.96 2257.34 1337.76 2254.24 1338.91 2251.14 1340.06 2247.36 1340.64 2242.89 1340.64L2238.81 1359.33 2231.71 1359.33 2235.8 1340.64C2229.87 1340.19 2225.31 1338.42 2222.12 1335.32 2218.93 1332.22 2217.33 1328.02 2217.33 1322.72 2217.33 1318.19 2218.51 1313.92 2220.86 1309.89 2223.21 1305.86 2226.47 1302.61 2230.65 1300.14 2234.83 1297.67 2239.84 1296.39 2245.68 1296.3Z" fill-rule="evenodd"/><text fill="#000000" fill-opacity="0" font-family="Arial,Arial_MSFontService,sans-serif" font-size="82.2969" x="2217.33" y="1349.04">𝜙</text><path d="M2033.35 1195.98 2042.07 1199.21 2056.79 1206.05 2071.03 1213.75 2084.78 1222.29 2098 1231.67 2110.64 1241.85 2122.59 1252.74 2117.96 1257.82 2106.09 1247 2106.25 1247.14 2093.77 1237.09 2093.93 1237.22 2080.89 1227.96 2081.06 1228.08 2067.49 1219.64 2067.67 1219.75 2053.61 1212.15 2053.8 1212.24 2039.29 1205.51 2039.54 1205.61 2030.96 1202.42ZM2031.92 1213.69 2010.54 1191.6 2041.04 1187.75Z"/><path d="M2534.86 481.103 2553.46 481.103 2552.96 483.305C2551.65 483.454 2550.62 483.844 2549.89 484.473 2549.15 485.101 2548.64 485.977 2548.34 487.1 2548.04 488.224 2547.89 489.728 2547.89 491.615 2547.89 492.064 2547.93 493.412 2548.02 495.658L2549.28 528.541 2549.28 532.135 2549.73 532.135 2569.18 497.051C2570.32 494.984 2571.17 493.21 2571.74 491.727 2572.31 490.245 2572.59 488.935 2572.59 487.797 2572.59 485.281 2571.1 483.784 2568.1 483.305L2568.6 481.103 2586.97 481.103 2586.47 483.305C2585.67 483.424 2584.89 483.731 2584.16 484.225 2583.43 484.72 2582.6 485.543 2581.69 486.696 2580.78 487.849 2579.36 490.073 2577.45 493.367L2548.7 543.141 2542.72 543.141 2539.71 493.053C2539.59 491.106 2539.37 489.436 2539.06 488.044 2538.74 486.651 2538.25 485.566 2537.58 484.787 2536.9 484.008 2535.83 483.514 2534.36 483.305Z" fill-rule="evenodd"/><text fill="#000000" fill-opacity="0" font-family="Arial,Arial_MSFontService,sans-serif" font-size="62.0371" x="2534.36" y="535.386">𝑉</text><path d="M2329.5 350.5 2450.26 1233.58" stroke="#000000" stroke-width="6.875" stroke-miterlimit="8" stroke-dasharray="27.5 20.625" fill="none" fill-rule="evenodd"/><path d="M2340.75 350.851 2525.73 534.259 2520.89 539.141 2335.91 355.733ZM2343.25 384.935 2333.49 348.489 2370.02 357.935C2371.85 358.41 2372.96 360.286 2372.48 362.124 2372.01 363.962 2370.13 365.066 2368.3 364.591L2337.47 356.62 2341.65 352.403 2349.89 383.157C2350.38 384.991 2349.29 386.876 2347.46 387.367 2345.62 387.858 2343.74 386.769 2343.25 384.935Z"/><path d="M2625.3 708.479 2656.28 677.497 2687.27 708.479 2656.28 739.461Z" stroke="#000000" stroke-width="6.875" stroke-miterlimit="8" fill="none" fill-rule="evenodd"/><path d="M2686.05 709.994 2530.5 539.5" stroke="#000000" stroke-width="6.875" stroke-miterlimit="8" stroke-dasharray="27.5 20.625" fill="none" fill-rule="evenodd"/><path d="M2302.77 263.391 2304.61 263.391 2296.93 297.985C2296.47 300.047 2296.24 301.589 2296.24 302.61 2296.24 303.443 2296.37 304.047 2296.65 304.422 2296.92 304.797 2297.34 304.985 2297.93 304.985 2298.55 304.985 2299.22 304.729 2299.93 304.219 2300.64 303.709 2301.64 302.735 2302.93 301.297L2304.71 303.047C2302.69 305.172 2301.04 306.625 2299.75 307.406 2298.47 308.188 2297.04 308.578 2295.46 308.578 2294.1 308.578 2293.02 308.084 2292.21 307.094 2291.4 306.104 2290.99 304.839 2290.99 303.297 2290.99 301.901 2291.28 299.88 2291.86 297.235L2297.46 272.203C2297.71 271.099 2297.89 270.219 2297.99 269.563 2298.09 268.906 2298.15 268.297 2298.15 267.735 2298.15 267.11 2298.03 266.636 2297.8 266.313 2297.57 265.99 2297.24 265.755 2296.82 265.61 2296.39 265.464 2295.62 265.36 2294.52 265.297L2294.9 263.672Z" fill-rule="evenodd"/><text fill="#000000" fill-opacity="0" font-family="Arial,Arial_MSFontService,sans-serif" font-size="45.1875" x="2290.99" y="302.93">𝑙</text><path d="M2325.97 289.081C2326.81 289.081 2327.55 289.123 2328.19 289.207 2328.83 289.291 2329.45 289.394 2330.05 289.517L2329.11 293.785 2326.84 293.785C2326.73 292.913 2326.47 292.274 2326.06 291.869 2325.64 291.464 2325.09 291.261 2324.41 291.261 2323.61 291.261 2322.94 291.433 2322.4 291.777 2321.85 292.121 2321.38 292.642 2320.97 293.338 2320.57 294.034 2320.22 294.849 2319.93 295.782 2319.64 296.715 2319.44 297.526 2319.33 298.215L2325.69 298.215 2325.19 300.762 2318.81 300.762 2314.65 320.429C2313.93 323.78 2312.77 326.262 2311.15 327.876 2309.54 329.49 2307.38 330.298 2304.69 330.298 2303.99 330.298 2303.48 330.252 2303.15 330.16 2303.25 329.777 2303.33 329.383 2303.41 328.978 2303.48 328.573 2303.57 328.179 2303.68 327.796 2303.77 327.827 2303.9 327.842 2304.07 327.842 2304.24 327.842 2304.48 327.842 2304.78 327.842 2305.38 327.842 2305.93 327.746 2306.42 327.555 2306.92 327.364 2307.38 327.02 2307.79 326.522 2308.2 326.025 2308.58 325.344 2308.93 324.48 2309.27 323.615 2309.6 322.502 2309.9 321.141L2314.49 300.762 2310.54 300.762 2310.96 298.995C2311.8 298.949 2312.47 298.895 2312.97 298.834 2313.46 298.773 2313.88 298.639 2314.23 298.433 2314.57 298.226 2314.83 297.878 2315 297.388 2315.88 294.589 2317.22 292.504 2319 291.135 2320.78 289.765 2323.1 289.081 2325.97 289.081Z" fill-rule="evenodd"/><text fill="#000000" fill-opacity="0" font-family="Arial,Arial_MSFontService,sans-serif" font-size="41.2168" x="2303.15" y="325.145">𝑓</text><path d="M2351.75 277.672 2353.35 279.797C2350.18 282.38 2347.7 285.302 2345.91 288.563 2344.12 291.823 2343.22 295.193 2343.22 298.672 2343.22 301.068 2343.68 302.906 2344.58 304.188 2345.49 305.469 2346.76 306.11 2348.41 306.11 2349.95 306.11 2351.26 305.485 2352.35 304.235 2353.43 302.985 2354.23 301.151 2354.75 298.735L2357.32 286.953 2362.57 286.953 2360.19 297.703C2359.92 298.932 2359.79 300.078 2359.79 301.141 2359.79 302.807 2360.14 304.052 2360.86 304.875 2361.58 305.698 2362.6 306.11 2363.91 306.11 2365.64 306.11 2367.17 305.479 2368.5 304.219 2369.84 302.959 2370.87 301.12 2371.61 298.703 2372.35 296.287 2372.72 293.474 2372.72 290.266 2372.72 288.37 2372.46 286.427 2371.94 284.438 2371.42 282.448 2370.69 280.797 2369.75 279.485L2371.88 277.672C2373.96 279.651 2375.53 281.828 2376.58 284.203 2377.63 286.578 2378.16 289.13 2378.16 291.86 2378.16 294.922 2377.56 297.745 2376.35 300.328 2375.14 302.912 2373.43 304.932 2371.21 306.391 2368.99 307.849 2366.45 308.578 2363.6 308.578 2360.14 308.578 2357.77 306.87 2356.5 303.453L2356.38 303.453C2355.65 304.599 2354.88 305.521 2354.08 306.219 2353.28 306.917 2352.27 307.485 2351.07 307.922 2349.86 308.36 2348.42 308.578 2346.75 308.578 2345.15 308.578 2343.68 308.219 2342.33 307.5 2340.99 306.781 2339.9 305.656 2339.07 304.125 2338.23 302.594 2337.82 300.714 2337.82 298.485 2337.82 294.693 2339.04 290.974 2341.47 287.328 2343.91 283.682 2347.34 280.464 2351.75 277.672Z" fill-rule="evenodd"/><text fill="#000000" fill-opacity="0" font-family="Arial,Arial_MSFontService,sans-serif" font-size="30.9062" x="2337.82" y="304.715">𝜔</text><path d="M1862.08 1418.64 1864.18 1408.35 1867.36 1400.4 1871.21 1392.97 1875.74 1385.97 1880.9 1379.45 1886.67 1373.45 1892.99 1368.02 1899.83 1363.2 1907.15 1359.04 1914.9 1355.59 1923.05 1352.89 1931.56 1351 1940.37 1349.95 1949.24 1349.79 1957.92 1350.52 1966.36 1352.09 1974.51 1354.46 1982.32 1357.59 1989.75 1361.44 1996.75 1365.97 2003.27 1371.14 2009.28 1376.9 2014.71 1383.22 2019.53 1390.06 2023.69 1397.38 2027.14 1405.13 2029.83 1413.28 2031.73 1421.79 2032.78 1430.59 2032.95 1438.63 2032.38 1446.6 2031.09 1454.45 2029.1 1462.13 2026.4 1469.59 2023.03 1476.8 2019 1483.69 2014.41 1490.09 2008.82 1486.09 2013.32 1479.81 2013.15 1480.08 2017.02 1473.46 2016.87 1473.74 2020.11 1466.82 2019.99 1467.11 2022.57 1459.94 2022.48 1460.24 2024.4 1452.87 2024.33 1453.18 2025.57 1445.64 2025.54 1445.95 2026.08 1438.3 2026.07 1438.62 2025.91 1430.91 2025.93 1431.24 2024.92 1422.77 2024.98 1423.11 2023.16 1414.95 2023.25 1415.28 2020.66 1407.46 2020.79 1407.77 2017.47 1400.33 2017.63 1400.63 2013.63 1393.6 2013.81 1393.89 2009.18 1387.32 2009.39 1387.58 2004.17 1381.51 2004.39 1381.74 1998.63 1376.21 1998.88 1376.42 1992.61 1371.46 1992.88 1371.65 1986.16 1367.3 1986.44 1367.47 1979.31 1363.77 1979.61 1363.91 1972.11 1360.91 1972.43 1361.02 1964.6 1358.74 1964.94 1358.82 1956.83 1357.31 1957.18 1357.36 1948.84 1356.66 1949.19 1356.67 1940.66 1356.82 1941.01 1356.8 1932.54 1357.8 1932.88 1357.74 1924.72 1359.56 1925.05 1359.47 1917.22 1362.06 1917.54 1361.94 1910.1 1365.25 1910.4 1365.1 1903.37 1369.09 1903.65 1368.91 1897.09 1373.54 1897.35 1373.34 1891.27 1378.56 1891.51 1378.33 1885.98 1384.09 1886.19 1383.85 1881.23 1390.11 1881.42 1389.85 1877.07 1396.57 1877.24 1396.28 1873.54 1403.42 1873.68 1403.11 1870.68 1410.61 1870.85 1410.02 1868.82 1420.01ZM1879.59 1416.14 1863.15 1442.12 1852.23 1413.39Z"/><path d="M1893.51 1304.08 1895.8 1307.14C1891.25 1310.85 1887.68 1315.05 1885.11 1319.74 1882.53 1324.42 1881.24 1329.27 1881.24 1334.27 1881.24 1337.71 1881.9 1340.36 1883.2 1342.2 1884.5 1344.04 1886.34 1344.96 1888.7 1344.96 1890.92 1344.96 1892.8 1344.06 1894.36 1342.27 1895.92 1340.47 1897.07 1337.83 1897.82 1334.36L1901.5 1317.42 1909.05 1317.42 1905.64 1332.88C1905.25 1334.64 1905.05 1336.29 1905.05 1337.82 1905.05 1340.21 1905.57 1342 1906.6 1343.19 1907.64 1344.37 1909.1 1344.96 1910.98 1344.96 1913.47 1344.96 1915.67 1344.05 1917.59 1342.24 1919.5 1340.43 1920.99 1337.79 1922.06 1334.31 1923.12 1330.84 1923.65 1326.8 1923.65 1322.19 1923.65 1319.46 1923.28 1316.67 1922.53 1313.81 1921.78 1310.95 1920.73 1308.57 1919.38 1306.69L1922.44 1304.08C1925.43 1306.93 1927.69 1310.06 1929.2 1313.47 1930.71 1316.88 1931.47 1320.55 1931.47 1324.48 1931.47 1328.88 1930.6 1332.94 1928.86 1336.65 1927.12 1340.36 1924.66 1343.27 1921.47 1345.36 1918.28 1347.46 1914.64 1348.51 1910.53 1348.51 1905.56 1348.51 1902.16 1346.05 1900.34 1341.14L1900.16 1341.14C1899.11 1342.79 1898.01 1344.11 1896.85 1345.12 1895.7 1346.12 1894.26 1346.94 1892.52 1347.57 1890.78 1348.19 1888.72 1348.51 1886.32 1348.51 1884.01 1348.51 1881.9 1347.99 1879.96 1346.96 1878.03 1345.93 1876.47 1344.31 1875.27 1342.11 1874.07 1339.91 1873.47 1337.2 1873.47 1334 1873.47 1328.55 1875.22 1323.2 1878.73 1317.96 1882.23 1312.72 1887.16 1308.09 1893.51 1304.08Z" fill-rule="evenodd"/><text fill="#000000" fill-opacity="0" font-family="Arial,Arial_MSFontService,sans-serif" font-size="44.4277" x="1873.47" y="1342.96">𝜔</text><path d="M2373.45 571.571 2387.93 567.718 2400.79 566.405 2413.62 566.514 2426.4 568.042 2439.01 570.996 2451.14 575.315 2448.83 581.792 2436.89 577.537 2437.25 577.646 2425.02 574.779 2425.4 574.846 2412.99 573.362 2413.37 573.387 2400.92 573.281 2401.3 573.263 2388.9 574.53 2389.44 574.432 2375.21 578.215ZM2383.53 586.095 2352.93 583.087 2373.7 560.413Z"/><path d="M2397.53 480.717C2394.88 480.717 2392.67 481.993 2390.9 484.545 2389.13 487.098 2387.68 490.967 2386.56 496.155L2382.34 515.749C2382.24 516.228 2382.18 516.634 2382.18 516.967 2382.18 517.53 2382.31 518.009 2382.57 518.405 2382.83 518.801 2383.22 519.191 2383.73 519.577 2384.24 519.962 2384.9 520.295 2385.71 520.577 2386.53 520.858 2387.56 520.999 2388.81 520.999 2390.5 520.999 2392.03 520.478 2393.42 519.436 2394.8 518.394 2395.89 516.915 2396.68 514.999 2397.48 513.082 2397.87 510.894 2397.87 508.436 2397.87 506.082 2397.22 504.238 2395.92 502.905 2394.62 501.572 2392.76 500.811 2390.34 500.624L2390.78 498.405C2393.03 498.238 2395.06 497.592 2396.87 496.467 2398.68 495.342 2400.11 493.868 2401.14 492.045 2402.17 490.223 2402.68 488.228 2402.68 486.061 2402.68 484.332 2402.25 483.009 2401.39 482.092 2400.52 481.176 2399.24 480.717 2397.53 480.717ZM2397.84 478.249C2401.05 478.249 2403.53 478.962 2405.28 480.389 2407.03 481.816 2407.9 483.842 2407.9 486.467 2407.9 487.53 2407.75 488.681 2407.45 489.92 2407.15 491.16 2406.55 492.379 2405.65 493.577 2404.76 494.775 2403.51 495.884 2401.92 496.905 2400.32 497.926 2398.37 498.801 2396.06 499.53L2396 499.78C2400.95 501.53 2403.43 504.79 2403.43 509.561 2403.43 512.019 2402.89 514.322 2401.79 516.467 2400.7 518.613 2399.09 520.316 2396.98 521.577 2394.87 522.837 2392.43 523.467 2389.68 523.467 2387.91 523.467 2386.36 523.327 2385.01 523.045 2383.67 522.764 2382.28 522.28 2380.84 521.592L2377.5 536.405 2372.4 536.405 2381.65 495.092C2382.49 491.384 2383.61 488.311 2385.03 485.874 2386.44 483.436 2388.21 481.556 2390.34 480.233 2392.46 478.91 2394.96 478.249 2397.84 478.249Z" fill-rule="evenodd"/><text fill="#000000" fill-opacity="0" font-family="Arial,Arial_MSFontService,sans-serif" font-size="58.1562" x="2372.4" y="529.135">𝛽</text><path d="M2427.75 503.97C2428.59 503.97 2429.33 504.012 2429.97 504.096 2430.61 504.18 2431.23 504.283 2431.83 504.406L2430.89 508.674 2428.62 508.674C2428.51 507.802 2428.25 507.163 2427.84 506.758 2427.42 506.353 2426.87 506.15 2426.19 506.15 2425.39 506.15 2424.72 506.322 2424.18 506.666 2423.63 507.01 2423.16 507.531 2422.75 508.227 2422.35 508.923 2422 509.738 2421.71 510.671 2421.42 511.604 2421.22 512.415 2421.11 513.104L2427.47 513.104 2426.97 515.651 2420.59 515.651 2416.43 535.318C2415.71 538.669 2414.55 541.151 2412.93 542.765 2411.32 544.379 2409.16 545.187 2406.47 545.187 2405.77 545.187 2405.26 545.141 2404.93 545.049 2405.03 544.666 2405.11 544.272 2405.19 543.867 2405.26 543.461 2405.35 543.068 2405.46 542.685 2405.55 542.716 2405.68 542.731 2405.85 542.731 2406.02 542.731 2406.26 542.731 2406.56 542.731 2407.16 542.731 2407.71 542.635 2408.2 542.444 2408.7 542.253 2409.16 541.909 2409.57 541.411 2409.98 540.914 2410.36 540.233 2410.71 539.369 2411.05 538.504 2411.38 537.391 2411.68 536.03L2416.27 515.651 2412.32 515.651 2412.74 513.884C2413.58 513.838 2414.25 513.784 2414.74 513.723 2415.24 513.662 2415.66 513.528 2416.01 513.322 2416.35 513.115 2416.61 512.767 2416.78 512.277 2417.66 509.478 2419 507.393 2420.78 506.024 2422.56 504.654 2424.88 503.97 2427.75 503.97Z" fill-rule="evenodd"/><text fill="#000000" fill-opacity="0" font-family="Arial,Arial_MSFontService,sans-serif" font-size="41.2168" x="2404.93" y="540.034">𝑓</text><path d="M2458.87 776.1C2498.6 779.829 2533.4 804.248 2550.42 840.332" stroke="#000000" stroke-width="6.875" stroke-miterlimit="8" fill="none" fill-rule="evenodd"/><path d="M1606.98 1410.7 1625.57 1410.7 1625.08 1412.9C1623.76 1413.05 1622.74 1413.44 1622 1414.07 1621.27 1414.7 1620.75 1415.58 1620.45 1416.7 1620.15 1417.82 1620 1419.33 1620 1421.22 1620 1421.66 1620.05 1423.01 1620.14 1425.26L1621.4 1458.14 1621.4 1461.73 1621.85 1461.73 1641.3 1426.65C1642.44 1424.58 1643.29 1422.81 1643.86 1421.33 1644.43 1419.85 1644.71 1418.54 1644.71 1417.4 1644.71 1414.88 1643.21 1413.38 1640.22 1412.9L1640.71 1410.7 1659.09 1410.7 1658.59 1412.9C1657.78 1413.02 1657.01 1413.33 1656.28 1413.83 1655.55 1414.32 1654.72 1415.14 1653.81 1416.3 1652.89 1417.45 1651.48 1419.67 1649.56 1422.97L1620.81 1472.74 1614.84 1472.74 1611.83 1422.65C1611.71 1420.71 1611.49 1419.04 1611.18 1417.64 1610.86 1416.25 1610.37 1415.17 1609.7 1414.39 1609.02 1413.61 1607.95 1413.11 1606.48 1412.9Z" fill-rule="evenodd"/><text fill="#000000" fill-opacity="0" font-family="Arial,Arial_MSFontService,sans-serif" font-size="62.0371" x="1606.48" y="1464.99">𝑉</text><path d="M1787.92 1615.47C1785.28 1615.47 1783.07 1616.74 1781.3 1619.29 1779.53 1621.85 1778.08 1625.72 1776.95 1630.9L1772.74 1650.5C1772.63 1650.98 1772.58 1651.38 1772.58 1651.72 1772.58 1652.28 1772.71 1652.76 1772.97 1653.15 1773.23 1653.55 1773.62 1653.94 1774.13 1654.33 1774.64 1654.71 1775.3 1655.04 1776.11 1655.33 1776.92 1655.61 1777.95 1655.75 1779.2 1655.75 1780.89 1655.75 1782.43 1655.23 1783.81 1654.19 1785.2 1653.14 1786.29 1651.66 1787.08 1649.75 1787.87 1647.83 1788.27 1645.64 1788.27 1643.19 1788.27 1640.83 1787.62 1638.99 1786.31 1637.65 1785.01 1636.32 1783.15 1635.56 1780.74 1635.37L1781.17 1633.15C1783.42 1632.99 1785.45 1632.34 1787.27 1631.22 1789.08 1630.09 1790.5 1628.62 1791.53 1626.79 1792.56 1624.97 1793.08 1622.98 1793.08 1620.81 1793.08 1619.08 1792.65 1617.76 1791.78 1616.84 1790.92 1615.92 1789.63 1615.47 1787.92 1615.47ZM1788.24 1613C1791.44 1613 1793.92 1613.71 1795.67 1615.14 1797.42 1616.57 1798.3 1618.59 1798.3 1621.22 1798.3 1622.28 1798.15 1623.43 1797.85 1624.67 1797.54 1625.91 1796.94 1627.13 1796.05 1628.33 1795.15 1629.52 1793.91 1630.63 1792.31 1631.65 1790.72 1632.67 1788.77 1633.55 1786.45 1634.28L1786.39 1634.53C1791.35 1636.28 1793.83 1639.54 1793.83 1644.31 1793.83 1646.77 1793.28 1649.07 1792.19 1651.22 1791.1 1653.36 1789.49 1655.07 1787.38 1656.33 1785.26 1657.59 1782.83 1658.22 1780.08 1658.22 1778.31 1658.22 1776.75 1658.08 1775.41 1657.79 1774.06 1657.51 1772.67 1657.03 1771.24 1656.34L1767.89 1671.15 1762.8 1671.15 1772.05 1629.84C1772.88 1626.13 1774.01 1623.06 1775.42 1620.62 1776.84 1618.19 1778.61 1616.3 1780.74 1614.98 1782.86 1613.66 1785.36 1613 1788.24 1613Z" fill-rule="evenodd"/><text fill="#000000" fill-opacity="0" font-family="Arial,Arial_MSFontService,sans-serif" font-size="58.1562" x="1762.8" y="1663.88">𝛽</text><path d="M4.95218 5.79859 106.832 423.606 100.153 425.234-1.72711 7.4273ZM-10.7528 36.1507-0.00377422-0.0154768 26.1867 27.1432C27.5045 28.5097 27.465 30.6859 26.0985 32.0037 24.7319 33.3216 22.5558 33.2821 21.2379 31.9155L-0.861959 8.99867 4.90747 7.59183-4.16269 38.1093C-4.70356 39.9291-6.61726 40.9659-8.43707 40.425-10.2569 39.8842-11.2937 37.9705-10.7528 36.1507Z" transform="matrix(-1 0 0 1 2517.99 535.5)"/><path d="M4.93475 5.81342 94.4692 377.839 87.7851 379.447-1.74939 7.42208ZM-10.8612 36.1182-0.00372769-0.0154895 26.1051 27.2216C27.4188 28.5921 27.3728 30.7682 26.0023 32.0819 24.6318 33.3956 22.4558 33.3496 21.142 31.9791L-0.888961 8.99604 4.88467 7.60652-4.27704 38.0966C-4.82337 39.9148-6.74017 40.9459-8.55835 40.3995-10.3765 39.8532-11.4076 37.9364-10.8612 36.1182Z" transform="matrix(-1 0 0 1 1704.63 1383.5)"/><path d="M1764.57 1459.85 1705.78 1383.6 1711.22 1379.4 1770.01 1455.65ZM1766.61 1425.74 1771.46 1463.15 1736.5 1448.95C1734.74 1448.24 1733.9 1446.23 1734.61 1444.47 1735.33 1442.72 1737.33 1441.87 1739.09 1442.58L1768.59 1454.57 1763.88 1458.19 1759.8 1426.62C1759.55 1424.74 1760.88 1423.01 1762.76 1422.77 1764.65 1422.53 1766.37 1423.85 1766.61 1425.74Z"/><path d="M0 0 148.744 301.435" stroke="#000000" stroke-width="6.875" stroke-miterlimit="8" stroke-dasharray="27.5 20.625" fill="none" fill-rule="evenodd" transform="matrix(-1 0 0 1 1765.24 1462.5)"/><path d="M1759.89 1522.68 1769.83 1526.47 1779.8 1532.13 1789.11 1538.68 1797.74 1546.12 1805.65 1554.42 1812.64 1563.38 1807.22 1567.61 1800.33 1558.78 1800.55 1559.04 1792.88 1550.99 1793.13 1551.22 1784.75 1544 1785.01 1544.2 1775.98 1537.85 1776.27 1538.03 1766.66 1532.58 1767.13 1532.8 1757.44 1529.1ZM1759.01 1540.38 1736.76 1519.15 1767.08 1514.09Z"/><path d="M1807.31 1470.56C1804.66 1470.56 1802.45 1471.83 1800.68 1474.39 1798.91 1476.94 1797.46 1480.81 1796.34 1486L1792.12 1505.59C1792.01 1506.07 1791.96 1506.47 1791.96 1506.81 1791.96 1507.37 1792.09 1507.85 1792.35 1508.25 1792.61 1508.64 1793 1509.03 1793.51 1509.42 1794.02 1509.8 1794.68 1510.14 1795.49 1510.42 1796.31 1510.7 1797.34 1510.84 1798.59 1510.84 1800.27 1510.84 1801.81 1510.32 1803.2 1509.28 1804.58 1508.23 1805.67 1506.76 1806.46 1504.84 1807.25 1502.92 1807.65 1500.73 1807.65 1498.28 1807.65 1495.92 1807 1494.08 1805.7 1492.75 1804.39 1491.41 1802.54 1490.65 1800.12 1490.46L1800.56 1488.25C1802.81 1488.08 1804.84 1487.43 1806.65 1486.31 1808.46 1485.18 1809.88 1483.71 1810.92 1481.89 1811.95 1480.06 1812.46 1478.07 1812.46 1475.9 1812.46 1474.17 1812.03 1472.85 1811.17 1471.93 1810.3 1471.02 1809.01 1470.56 1807.31 1470.56ZM1807.62 1468.09C1810.83 1468.09 1813.31 1468.8 1815.06 1470.23 1816.81 1471.66 1817.68 1473.68 1817.68 1476.31 1817.68 1477.37 1817.53 1478.52 1817.23 1479.76 1816.93 1481 1816.33 1482.22 1815.43 1483.42 1814.54 1484.61 1813.29 1485.72 1811.7 1486.75 1810.1 1487.77 1808.15 1488.64 1805.84 1489.37L1805.77 1489.62C1810.73 1491.37 1813.21 1494.63 1813.21 1499.4 1813.21 1501.86 1812.67 1504.16 1811.57 1506.31 1810.48 1508.45 1808.87 1510.16 1806.76 1511.42 1804.64 1512.68 1802.21 1513.31 1799.46 1513.31 1797.69 1513.31 1796.13 1513.17 1794.79 1512.89 1793.45 1512.6 1792.06 1512.12 1790.62 1511.43L1787.27 1526.25 1782.18 1526.25 1791.43 1484.93C1792.26 1481.22 1793.39 1478.15 1794.81 1475.71 1796.22 1473.28 1797.99 1471.4 1800.12 1470.07 1802.24 1468.75 1804.74 1468.09 1807.62 1468.09Z" fill-rule="evenodd"/><text fill="#000000" fill-opacity="0" font-family="Arial,Arial_MSFontService,sans-serif" font-size="58.1562" x="1782.18" y="1518.98">𝛽</text><path d="M1837.52 1493.81C1838.37 1493.81 1839.11 1493.85 1839.75 1493.94 1840.39 1494.02 1841.01 1494.12 1841.61 1494.25L1840.67 1498.51 1838.4 1498.51C1838.29 1497.64 1838.03 1497 1837.62 1496.6 1837.2 1496.19 1836.65 1495.99 1835.96 1495.99 1835.17 1495.99 1834.5 1496.16 1833.96 1496.51 1833.41 1496.85 1832.94 1497.37 1832.53 1498.07 1832.13 1498.76 1831.78 1499.58 1831.49 1500.51 1831.2 1501.44 1831 1502.26 1830.89 1502.94L1837.25 1502.94 1836.74 1505.49 1830.36 1505.49 1826.21 1525.16C1825.49 1528.51 1824.32 1530.99 1822.71 1532.61 1821.1 1534.22 1818.94 1535.03 1816.25 1535.03 1815.55 1535.03 1815.03 1534.98 1814.71 1534.89 1814.8 1534.51 1814.89 1534.11 1814.97 1533.71 1815.04 1533.3 1815.13 1532.91 1815.24 1532.53 1815.33 1532.56 1815.46 1532.57 1815.63 1532.57 1815.8 1532.57 1816.04 1532.57 1816.34 1532.57 1816.94 1532.57 1817.49 1532.48 1817.98 1532.28 1818.48 1532.09 1818.94 1531.75 1819.35 1531.25 1819.76 1530.75 1820.14 1530.07 1820.48 1529.21 1820.83 1528.34 1821.15 1527.23 1821.46 1525.87L1826.05 1505.49 1822.1 1505.49 1822.52 1503.72C1823.36 1503.68 1824.03 1503.62 1824.52 1503.56 1825.02 1503.5 1825.44 1503.37 1825.79 1503.16 1826.13 1502.96 1826.39 1502.61 1826.55 1502.12 1827.44 1499.32 1828.78 1497.23 1830.56 1495.86 1832.34 1494.49 1834.66 1493.81 1837.52 1493.81Z" fill-rule="evenodd"/><text fill="#000000" fill-opacity="0" font-family="Arial,Arial_MSFontService,sans-serif" font-size="41.2168" x="1814.71" y="1529.87">𝑓</text><path d="M1668.91 1554.88C1706.32 1560.01 1738.69 1583.5 1755.16 1617.48" stroke="#000000" stroke-width="6.875" stroke-miterlimit="8" fill="none" fill-rule="evenodd"/><path d="M1733.7 1330.59 1735.54 1330.59 1727.85 1365.18C1727.39 1367.25 1727.17 1368.79 1727.17 1369.81 1727.17 1370.64 1727.3 1371.25 1727.57 1371.62 1727.84 1372 1728.27 1372.18 1728.85 1372.18 1729.48 1372.18 1730.14 1371.93 1730.85 1371.42 1731.56 1370.91 1732.56 1369.93 1733.85 1368.5L1735.63 1370.25C1733.61 1372.37 1731.96 1373.82 1730.68 1374.61 1729.4 1375.39 1727.97 1375.78 1726.38 1375.78 1725.03 1375.78 1723.95 1375.28 1723.13 1374.29 1722.32 1373.3 1721.92 1372.04 1721.92 1370.5 1721.92 1369.1 1722.21 1367.08 1722.79 1364.43L1728.38 1339.4C1728.63 1338.3 1728.81 1337.42 1728.92 1336.76 1729.02 1336.11 1729.07 1335.5 1729.07 1334.93 1729.07 1334.31 1728.96 1333.83 1728.73 1333.51 1728.5 1333.19 1728.17 1332.95 1727.74 1332.81 1727.32 1332.66 1726.55 1332.56 1725.45 1332.5L1725.82 1330.87Z" fill-rule="evenodd"/><text fill="#000000" fill-opacity="0" font-family="Arial,Arial_MSFontService,sans-serif" font-size="45.1875" x="1721.92" y="1370.13">𝑙</text><path d="M1746.01 1364.93C1747.14 1364.93 1748.02 1365.3 1748.64 1366.04 1749.26 1366.79 1749.57 1367.76 1749.57 1368.97 1749.57 1369.66 1749.46 1370.27 1749.24 1370.81L1749.57 1370.94C1751.11 1368.88 1752.61 1367.36 1754.07 1366.39 1755.54 1365.42 1757.04 1364.93 1758.58 1364.93 1759.17 1364.93 1759.71 1364.96 1760.23 1365.02 1760.74 1365.08 1761.23 1365.16 1761.71 1365.25L1760.54 1370.81 1757.87 1370.81C1757.8 1369.89 1757.6 1369.23 1757.29 1368.83 1756.97 1368.44 1756.52 1368.24 1755.92 1368.24 1755.57 1368.22 1755.16 1368.33 1754.71 1368.56 1754.25 1368.79 1753.76 1369.12 1753.25 1369.54 1752.74 1369.97 1752.23 1370.48 1751.72 1371.06 1751.22 1371.64 1750.74 1372.28 1750.29 1372.96 1749.84 1373.65 1749.44 1374.38 1749.11 1375.16 1748.77 1375.93 1748.52 1376.7 1748.35 1377.48L1746.01 1388.36 1741.51 1388.36 1744.95 1373.4C1745.17 1372.51 1745.32 1371.78 1745.4 1371.2 1745.48 1370.62 1745.53 1370.13 1745.53 1369.73 1745.53 1368.61 1745.07 1368.05 1744.17 1368.05 1743.88 1368.05 1743.59 1368.11 1743.31 1368.22 1743.03 1368.34 1742.73 1368.51 1742.43 1368.74 1742.12 1368.97 1741.79 1369.26 1741.42 1369.61 1741.05 1369.97 1740.64 1370.38 1740.18 1370.85L1738.6 1369.36C1739.36 1368.58 1740.06 1367.91 1740.7 1367.35 1741.33 1366.79 1741.94 1366.34 1742.52 1365.98 1743.1 1365.62 1743.68 1365.35 1744.24 1365.18 1744.81 1365.02 1745.4 1364.93 1746.01 1364.93Z" fill-rule="evenodd"/><text fill="#000000" fill-opacity="0" font-family="Arial,Arial_MSFontService,sans-serif" font-size="23.4312" x="1738.6" y="1385.43">𝑟</text><path d="M1783.34 1344.87 1784.94 1347C1781.77 1349.58 1779.29 1352.5 1777.5 1355.76 1775.71 1359.02 1774.81 1362.39 1774.81 1365.87 1774.81 1368.27 1775.27 1370.11 1776.17 1371.39 1777.08 1372.67 1778.35 1373.31 1780 1373.31 1781.54 1373.31 1782.85 1372.68 1783.94 1371.43 1785.02 1370.18 1785.82 1368.35 1786.34 1365.93L1788.91 1354.15 1794.16 1354.15 1791.78 1364.9C1791.51 1366.13 1791.38 1367.28 1791.38 1368.34 1791.38 1370.01 1791.73 1371.25 1792.45 1372.07 1793.17 1372.9 1794.19 1373.31 1795.5 1373.31 1797.23 1373.31 1798.76 1372.68 1800.09 1371.42 1801.43 1370.16 1802.46 1368.32 1803.2 1365.9 1803.94 1363.49 1804.31 1360.67 1804.31 1357.46 1804.31 1355.57 1804.05 1353.63 1803.53 1351.64 1803.01 1349.65 1802.28 1348 1801.34 1346.68L1803.47 1344.87C1805.55 1346.85 1807.12 1349.03 1808.17 1351.4 1809.22 1353.78 1809.75 1356.33 1809.75 1359.06 1809.75 1362.12 1809.15 1364.94 1807.94 1367.53 1806.73 1370.11 1805.02 1372.13 1802.8 1373.59 1800.58 1375.05 1798.04 1375.78 1795.19 1375.78 1791.73 1375.78 1789.37 1374.07 1788.09 1370.65L1787.97 1370.65C1787.24 1371.8 1786.47 1372.72 1785.67 1373.42 1784.87 1374.12 1783.87 1374.68 1782.66 1375.12 1781.45 1375.56 1780.01 1375.78 1778.34 1375.78 1776.74 1375.78 1775.27 1375.42 1773.92 1374.7 1772.58 1373.98 1771.49 1372.86 1770.66 1371.32 1769.82 1369.79 1769.41 1367.91 1769.41 1365.68 1769.41 1361.89 1770.63 1358.17 1773.06 1354.53 1775.5 1350.88 1778.93 1347.66 1783.34 1344.87Z" fill-rule="evenodd"/><text fill="#000000" fill-opacity="0" font-family="Arial,Arial_MSFontService,sans-serif" font-size="30.9062" x="1769.41" y="1371.91">𝜔</text><path d="M1697.68 1785.09 1683.12 1799.37 1724.35 1841.43 1695.23 1869.98 1654 1827.92 1639.43 1842.19 1629.58 1773.88Z" stroke="#000000" stroke-width="4.58333" stroke-miterlimit="8" fill="#FFFFFF" fill-rule="evenodd"/><path d="M2493.18 931.358 2491.13 951.648 2549.74 957.551 2545.65 998.131 2487.05 992.228 2485 1012.52 2433.69 966.358Z" stroke="#000000" stroke-width="4.58333" stroke-miterlimit="8" fill="#FFFFFF" fill-rule="evenodd"/><path d="M1749.63 1811.23 1781.78 1811.23 1779.32 1822.17 1775.9 1822.17C1775.8 1820.34 1775.65 1818.9 1775.45 1817.84 1775.25 1816.78 1774.96 1816.02 1774.59 1815.56 1774.23 1815.09 1773.78 1814.78 1773.26 1814.61 1772.74 1814.45 1771.95 1814.36 1770.91 1814.36L1759.93 1814.36 1755.69 1833.75 1762.35 1833.75C1763.4 1833.75 1764.26 1833.61 1764.95 1833.33 1765.64 1833.04 1766.28 1832.52 1766.88 1831.77 1767.47 1831.03 1768.21 1829.75 1769.09 1827.94L1772.33 1827.94 1768.87 1842.98 1765.74 1842.98C1765.74 1840.58 1765.66 1839.08 1765.51 1838.48 1765.35 1837.87 1765.05 1837.45 1764.61 1837.23 1764.17 1837 1763.3 1836.89 1761.99 1836.89L1755.01 1836.89 1752.19 1849.51C1751.69 1851.74 1751.44 1853.6 1751.44 1855.07 1751.44 1855.81 1751.56 1856.38 1751.8 1856.8 1752.04 1857.21 1752.39 1857.52 1752.87 1857.71 1753.34 1857.9 1754.16 1858.04 1755.33 1858.13L1754.94 1859.88 1740.29 1859.88 1740.68 1858.13C1741.58 1857.99 1742.26 1857.76 1742.71 1857.44 1743.16 1857.12 1743.54 1856.67 1743.85 1856.1 1744.16 1855.53 1744.45 1854.84 1744.71 1854.02 1744.97 1853.2 1745.36 1851.61 1745.88 1849.26L1751.94 1821.81C1752.47 1819.44 1752.73 1817.56 1752.73 1816.18 1752.73 1815.02 1752.45 1814.21 1751.91 1813.76 1751.36 1813.3 1750.47 1813.04 1749.23 1812.97Z" fill-rule="evenodd"/><text fill="#000000" fill-opacity="0" font-family="Arial,Arial_MSFontService,sans-serif" font-size="48.6548" x="1740.29" y="1853.8">𝐹</text><path d="M1778.04 1848.42C1779.32 1848.42 1780.3 1848.84 1781 1849.68 1781.7 1850.51 1782.05 1851.61 1782.05 1852.98 1782.05 1853.75 1781.93 1854.44 1781.69 1855.05L1782.05 1855.2C1783.79 1852.87 1785.49 1851.16 1787.14 1850.07 1788.78 1848.97 1790.48 1848.42 1792.22 1848.42 1792.88 1848.42 1793.49 1848.46 1794.07 1848.53 1794.65 1848.6 1795.21 1848.68 1795.74 1848.79L1794.42 1855.05 1791.42 1855.05C1791.33 1854.01 1791.11 1853.27 1790.76 1852.82 1790.41 1852.37 1789.89 1852.15 1789.22 1852.15 1788.82 1852.13 1788.37 1852.25 1787.85 1852.51 1787.33 1852.77 1786.78 1853.14 1786.2 1853.62 1785.63 1854.11 1785.05 1854.68 1784.48 1855.33 1783.91 1855.99 1783.37 1856.7 1782.87 1857.48 1782.36 1858.26 1781.91 1859.08 1781.53 1859.95 1781.15 1860.82 1780.87 1861.7 1780.68 1862.58L1778.04 1874.85 1772.97 1874.85 1776.85 1857.97C1777.09 1856.97 1777.26 1856.14 1777.35 1855.49 1777.45 1854.83 1777.5 1854.28 1777.5 1853.83 1777.5 1852.57 1776.99 1851.94 1775.97 1851.94 1775.64 1851.94 1775.32 1852.01 1775 1852.14 1774.68 1852.27 1774.35 1852.46 1774 1852.72 1773.66 1852.98 1773.28 1853.31 1772.86 1853.7 1772.45 1854.1 1771.98 1854.56 1771.47 1855.1L1769.68 1853.42C1770.54 1852.54 1771.33 1851.78 1772.05 1851.15 1772.76 1850.52 1773.45 1850.01 1774.11 1849.6 1774.76 1849.19 1775.41 1848.9 1776.05 1848.71 1776.69 1848.52 1777.35 1848.42 1778.04 1848.42Z" fill-rule="evenodd"/><text fill="#000000" fill-opacity="0" font-family="Arial,Arial_MSFontService,sans-serif" font-size="26.4224" x="1769.68" y="1871.54">𝑟</text><path d="M1821.75 1820.6C1817.92 1820.69 1815.11 1821.18 1813.31 1822.08 1811.52 1822.97 1810.62 1824.34 1810.62 1826.16 1810.62 1827.58 1811.02 1828.6 1811.83 1829.23 1812.63 1829.86 1813.73 1830.18 1815.13 1830.18 1816.11 1830.18 1817.01 1830 1817.82 1829.66 1818.63 1829.31 1819.32 1828.87 1819.9 1828.33 1820.48 1827.78 1820.93 1827.18 1821.26 1826.51 1821.59 1825.85 1821.75 1825.2 1821.75 1824.56ZM1818.85 1806.6C1820.18 1806.63 1821.34 1806.79 1822.33 1807.05 1823.32 1807.32 1824.15 1807.78 1824.82 1808.44 1825.48 1809.09 1825.98 1809.98 1826.32 1811.09 1826.65 1812.2 1826.83 1813.61 1826.85 1815.32L1826.85 1825.21C1826.85 1826.33 1826.84 1827.23 1826.82 1827.92 1826.81 1828.61 1826.88 1829.17 1827.06 1829.61 1827.23 1830.04 1827.54 1830.38 1827.99 1830.63 1828.44 1830.88 1829.12 1831.12 1830.03 1831.37L1830.03 1833.02 1822.06 1833.02C1822.1 1832.38 1822.12 1831.75 1822.14 1831.11 1822.16 1830.47 1822.18 1829.85 1822.22 1829.24 1822.16 1829.21 1822.11 1829.19 1822.06 1829.18 1822.01 1829.17 1821.94 1829.15 1821.85 1829.11 1821.04 1829.91 1820.27 1830.58 1819.54 1831.13 1818.8 1831.69 1818.07 1832.14 1817.34 1832.49 1816.6 1832.85 1815.86 1833.1 1815.11 1833.26 1814.36 1833.41 1813.58 1833.49 1812.77 1833.49 1811.65 1833.49 1810.64 1833.32 1809.73 1833 1808.82 1832.67 1808.06 1832.21 1807.43 1831.61 1806.8 1831.02 1806.31 1830.31 1805.98 1829.5 1805.64 1828.69 1805.47 1827.79 1805.47 1826.81 1805.47 1824.15 1806.83 1822.12 1809.55 1820.7 1812.27 1819.29 1816.33 1818.44 1821.75 1818.17L1821.75 1816.3C1821.75 1815.03 1821.65 1813.95 1821.45 1813.06 1821.25 1812.17 1820.94 1811.45 1820.52 1810.9 1820.1 1810.34 1819.54 1809.94 1818.85 1809.69 1818.16 1809.44 1817.33 1809.32 1816.34 1809.32 1814.98 1809.32 1813.83 1809.68 1812.9 1810.4 1811.97 1811.13 1811.28 1812.28 1810.83 1813.85L1807 1813.85 1807 1809.91C1808.24 1809.33 1809.38 1808.83 1810.42 1808.41 1811.45 1808 1812.44 1807.66 1813.38 1807.39 1814.32 1807.12 1815.23 1806.93 1816.12 1806.81 1817.01 1806.69 1817.92 1806.62 1818.85 1806.6ZM1839.33 1800.57 1843.57 1800.57 1843.57 1807.14 1852.63 1807.14 1852.63 1810.02 1843.57 1810.02 1843.57 1822.36C1843.59 1823.95 1843.68 1825.24 1843.86 1826.23 1844.03 1827.22 1844.3 1827.99 1844.66 1828.55 1845.02 1829.1 1845.47 1829.47 1846.01 1829.67 1846.54 1829.87 1847.18 1829.97 1847.92 1829.97 1848.66 1829.97 1849.39 1829.8 1850.11 1829.46 1850.82 1829.13 1851.53 1828.67 1852.22 1828.11 1852.46 1828.42 1852.68 1828.73 1852.89 1829.04 1853.1 1829.35 1853.31 1829.66 1853.54 1829.97 1852.1 1831.19 1850.78 1832.09 1849.55 1832.65 1848.33 1833.21 1847.08 1833.49 1845.82 1833.49 1843.32 1833.49 1841.46 1832.82 1840.25 1831.47 1839.03 1830.12 1838.42 1828.02 1838.42 1825.15L1838.42 1810.02 1834.31 1810.02 1834.31 1808.44C1834.86 1808.35 1835.36 1808.22 1835.81 1808.04 1836.26 1807.85 1836.65 1807.64 1837 1807.4 1837.31 1807.18 1837.58 1806.91 1837.8 1806.6 1838.03 1806.29 1838.22 1805.88 1838.4 1805.38 1838.57 1804.88 1838.73 1804.24 1838.88 1803.47 1839.02 1802.69 1839.17 1801.73 1839.33 1800.57ZM1794.89 1795.37 1796.78 1795.37 1796.78 1826.42C1796.78 1827.46 1796.8 1828.25 1796.84 1828.8 1796.89 1829.36 1797.01 1829.78 1797.22 1830.08 1797.43 1830.39 1797.74 1830.62 1798.15 1830.77 1798.57 1830.93 1799.14 1831.12 1799.89 1831.37L1799.89 1833.02 1788.47 1833.02 1788.47 1831.37C1789.28 1831.12 1789.91 1830.92 1790.35 1830.74 1790.79 1830.57 1791.11 1830.33 1791.31 1830.02 1791.5 1829.71 1791.62 1829.28 1791.64 1828.74 1791.67 1828.2 1791.68 1827.42 1791.68 1826.42L1791.68 1804.45C1791.68 1803.18 1791.66 1802.2 1791.63 1801.53 1791.6 1800.85 1791.54 1800.31 1791.47 1799.9 1791.41 1799.57 1791.32 1799.28 1791.23 1799.03 1791.13 1798.78 1790.97 1798.56 1790.74 1798.36 1790.5 1798.16 1790.17 1797.99 1789.74 1797.84 1789.31 1797.69 1788.73 1797.56 1788.01 1797.44L1788.01 1795.73Z" fill-rule="evenodd"/><text fill="#000000" fill-opacity="0" font-family="Arial,Arial_MSFontService,sans-serif" font-size="38.1196" x="1788.01" y="1828.72">lat</text><path d="M2578.12 960.328 2610.27 960.328 2607.82 971.27 2604.39 971.27C2604.3 969.441 2604.15 967.997 2603.95 966.94 2603.75 965.882 2603.46 965.122 2603.09 964.658 2602.72 964.195 2602.28 963.88 2601.76 963.714 2601.23 963.547 2600.45 963.464 2599.4 963.464L2588.42 963.464 2584.18 982.855 2590.85 982.855C2591.89 982.855 2592.76 982.712 2593.45 982.427 2594.14 982.142 2594.78 981.625 2595.38 980.877 2595.97 980.128 2596.71 978.851 2597.59 977.045L2600.83 977.045 2597.37 992.087 2594.23 992.087C2594.23 989.687 2594.16 988.184 2594 987.578 2593.85 986.972 2593.55 986.556 2593.11 986.33 2592.67 986.104 2591.8 985.992 2590.49 985.992L2583.51 985.992 2580.69 998.61C2580.19 1000.84 2579.94 1002.7 2579.94 1004.17 2579.94 1004.91 2580.06 1005.48 2580.3 1005.9 2580.54 1006.31 2580.89 1006.62 2581.37 1006.81 2581.84 1007 2582.66 1007.14 2583.83 1007.24L2583.43 1008.98 2568.78 1008.98 2569.18 1007.24C2570.08 1007.09 2570.76 1006.86 2571.21 1006.54 2571.66 1006.22 2572.04 1005.77 2572.35 1005.2 2572.66 1004.63 2572.94 1003.94 2573.2 1003.12 2573.47 1002.3 2573.86 1000.71 2574.38 998.36L2580.44 970.914C2580.96 968.538 2581.22 966.66 2581.22 965.282 2581.22 964.118 2580.95 963.31 2580.4 962.858 2579.86 962.407 2578.97 962.145 2577.73 962.074Z" fill-rule="evenodd"/><text fill="#000000" fill-opacity="0" font-family="Arial,Arial_MSFontService,sans-serif" font-size="48.6548" x="2568.78" y="1002.9">𝐹</text><path d="M2625.06 990.747C2626.01 990.747 2626.84 990.795 2627.57 990.89 2628.29 990.985 2628.99 991.101 2629.66 991.239L2628.6 996.053 2626.04 996.053C2625.92 995.069 2625.63 994.349 2625.16 993.892 2624.69 993.435 2624.07 993.206 2623.3 993.206 2622.4 993.206 2621.65 993.4 2621.03 993.788 2620.42 994.176 2619.89 994.763 2619.43 995.548 2618.97 996.333 2618.58 997.252 2618.25 998.304 2617.92 999.357 2617.7 1000.27 2617.58 1001.05L2624.75 1001.05 2624.18 1003.92 2616.98 1003.92 2612.3 1026.1C2611.49 1029.88 2610.17 1032.68 2608.35 1034.5 2606.53 1036.32 2604.1 1037.23 2601.07 1037.23 2600.27 1037.23 2599.7 1037.17 2599.33 1037.07 2599.44 1036.64 2599.53 1036.2 2599.62 1035.74 2599.7 1035.28 2599.81 1034.84 2599.93 1034.41 2600.03 1034.44 2600.18 1034.46 2600.37 1034.46 2600.56 1034.46 2600.83 1034.46 2601.17 1034.46 2601.84 1034.46 2602.46 1034.35 2603.02 1034.13 2603.58 1033.92 2604.09 1033.53 2604.56 1032.97 2605.03 1032.41 2605.45 1031.64 2605.84 1030.67 2606.23 1029.69 2606.6 1028.44 2606.94 1026.9L2612.12 1003.92 2607.67 1003.92 2608.13 1001.93C2609.08 1001.88 2609.84 1001.82 2610.4 1001.75 2610.96 1001.68 2611.43 1001.53 2611.82 1001.29 2612.21 1001.06 2612.5 1000.67 2612.69 1000.12 2613.69 996.958 2615.19 994.608 2617.2 993.064 2619.21 991.519 2621.83 990.747 2625.06 990.747Z" fill-rule="evenodd"/><text fill="#000000" fill-opacity="0" font-family="Arial,Arial_MSFontService,sans-serif" font-size="46.4785" x="2599.33" y="1031.42">𝑓</text><path d="M2650.25 966.723C2646.42 966.809 2643.61 967.301 2641.81 968.198 2640.02 969.095 2639.12 970.458 2639.12 972.287 2639.12 973.702 2639.52 974.724 2640.32 975.354 2641.13 975.983 2642.23 976.298 2643.62 976.298 2644.61 976.298 2645.5 976.126 2646.31 975.781 2647.13 975.436 2647.82 974.991 2648.4 974.448 2648.98 973.904 2649.43 973.301 2649.76 972.636 2650.08 971.972 2650.25 971.321 2650.25 970.682ZM2647.35 952.722C2648.68 952.757 2649.84 952.908 2650.83 953.175 2651.82 953.443 2652.65 953.904 2653.31 954.56 2653.98 955.215 2654.48 956.1 2654.82 957.212 2655.15 958.325 2655.33 959.736 2655.35 961.444L2655.35 971.329C2655.35 972.451 2655.34 973.357 2655.32 974.047 2655.3 974.737 2655.38 975.297 2655.55 975.729 2655.73 976.16 2656.04 976.501 2656.49 976.751 2656.93 977.001 2657.62 977.247 2658.53 977.489L2658.53 979.145 2650.56 979.145C2650.59 978.506 2650.62 977.868 2650.64 977.23 2650.65 976.591 2650.68 975.97 2650.71 975.367 2650.66 975.332 2650.61 975.31 2650.56 975.302 2650.51 975.293 2650.44 975.272 2650.35 975.237 2649.54 976.031 2648.77 976.704 2648.04 977.256 2647.3 977.808 2646.57 978.261 2645.84 978.614 2645.1 978.968 2644.36 979.222 2643.61 979.378 2642.86 979.533 2642.08 979.611 2641.27 979.611 2640.15 979.611 2639.13 979.447 2638.23 979.119 2637.32 978.791 2636.55 978.33 2635.92 977.734 2635.29 977.139 2634.81 976.436 2634.48 975.625 2634.14 974.814 2633.97 973.917 2633.97 972.934 2633.97 970.277 2635.33 968.241 2638.05 966.826 2640.76 965.412 2644.83 964.566 2650.25 964.29L2650.25 962.427C2650.25 961.15 2650.15 960.068 2649.95 959.179 2649.75 958.291 2649.44 957.57 2649.02 957.018 2648.6 956.466 2648.04 956.065 2647.35 955.815 2646.66 955.565 2645.82 955.44 2644.84 955.44 2643.48 955.44 2642.33 955.802 2641.4 956.527 2640.47 957.251 2639.78 958.399 2639.33 959.969L2635.5 959.969 2635.5 956.035C2636.74 955.448 2637.88 954.948 2638.91 954.534 2639.95 954.12 2640.94 953.779 2641.88 953.512 2642.82 953.244 2643.73 953.05 2644.62 952.93 2645.51 952.809 2646.42 952.74 2647.35 952.722ZM2667.83 946.693 2672.07 946.693 2672.07 953.266 2681.13 953.266 2681.13 956.138 2672.07 956.138 2672.07 968.483C2672.09 970.07 2672.18 971.36 2672.36 972.352 2672.53 973.344 2672.8 974.116 2673.16 974.668 2673.52 975.22 2673.97 975.595 2674.5 975.794 2675.04 975.992 2675.68 976.091 2676.42 976.091 2677.16 976.091 2677.89 975.923 2678.6 975.586 2679.32 975.25 2680.02 974.797 2680.71 974.228 2680.96 974.538 2681.18 974.849 2681.39 975.159 2681.59 975.47 2681.81 975.781 2682.03 976.091 2680.6 977.316 2679.27 978.209 2678.05 978.77 2676.82 979.33 2675.58 979.611 2674.32 979.611 2671.82 979.611 2669.96 978.938 2668.75 977.592 2667.53 976.246 2666.92 974.142 2666.92 971.278L2666.92 956.138 2662.81 956.138 2662.81 954.56C2663.36 954.474 2663.86 954.34 2664.31 954.159 2664.76 953.978 2665.15 953.766 2665.5 953.525 2665.81 953.3 2666.08 953.033 2666.3 952.722 2666.52 952.412 2666.72 952.006 2666.89 951.506 2667.07 951.006 2667.23 950.367 2667.37 949.591 2667.52 948.815 2667.67 947.849 2667.83 946.693ZM2623.39 941.491 2625.28 941.491 2625.28 972.546C2625.28 973.581 2625.3 974.375 2625.34 974.927 2625.39 975.479 2625.51 975.906 2625.72 976.208 2625.92 976.51 2626.24 976.738 2626.65 976.893 2627.06 977.049 2627.64 977.247 2628.38 977.489L2628.38 979.145 2616.97 979.145 2616.97 977.489C2617.78 977.247 2618.41 977.04 2618.85 976.867 2619.29 976.695 2619.61 976.453 2619.8 976.143 2620 975.832 2620.11 975.405 2620.14 974.862 2620.17 974.318 2620.18 973.546 2620.18 972.546L2620.18 950.575C2620.18 949.298 2620.16 948.323 2620.13 947.65 2620.09 946.977 2620.04 946.434 2619.97 946.02 2619.9 945.692 2619.82 945.403 2619.73 945.153 2619.63 944.903 2619.47 944.678 2619.23 944.48 2619 944.282 2618.67 944.109 2618.24 943.962 2617.81 943.816 2617.23 943.682 2616.5 943.561L2616.5 941.853Z" fill-rule="evenodd"/><text fill="#000000" fill-opacity="0" font-family="Arial,Arial_MSFontService,sans-serif" font-size="38.1196" x="2616.5" y="974.846">lat</text></g></svg>