<svg width="3104" height="2076" xmlns="http://www.w3.org/2000/svg" xmlns:xlink="http://www.w3.org/1999/xlink" xml:space="preserve" overflow="hidden"><defs><clipPath id="clip0"><rect x="385" y="202" width="3104" height="2076"/></clipPath></defs><g clip-path="url(#clip0)" transform="translate(-385 -202)"><rect x="385" y="202" width="3104" height="2076" fill="#FFFFFF"/><path d="M2587.26 919.553C2577.37 918.682 2570.05 909.953 2570.92 900.057L2595.94 615.791C2596.81 605.895 2605.54 598.578 2615.43 599.449L2764.65 612.581C2774.55 613.452 2781.86 622.18 2780.99 632.077L2755.98 916.342C2755.1 926.239 2746.38 933.555 2736.48 932.684Z" fill="#A6A6A6" fill-rule="evenodd"/><path d="M2676.62 763.812 924.5 609.5" stroke="#000000" stroke-width="6.875" stroke-miterlimit="8" fill="none" fill-rule="evenodd"/><path d="M0 0 57.6666 667.866" stroke="#000000" stroke-width="6.875" stroke-miterlimit="8" stroke-dasharray="27.5 20.625" fill="none" fill-rule="evenodd" transform="matrix(-1 0 0 1 2708.17 372.5)"/><path d="M5.9134 4.81106 171.387 375.324 165.11 378.128-0.364005 7.6146ZM-4.07508 37.4952-0.00649677-0.0145457 30.6418 21.9903C32.1839 23.0976 32.5365 25.2453 31.4293 26.7875 30.322 28.3296 28.1743 28.6822 26.6321 27.575L0.770669 9.00695 6.19296 6.58531 2.75983 38.2365C2.55511 40.1239 0.859101 41.488-1.02831 41.2833-2.91572 41.0786-4.2798 39.3826-4.07508 37.4952Z" transform="matrix(-1 0 0 1 2374.75 864.5)"/><path d="M1720.88 1611.46C1713.86 1604.43 1713.86 1593.04 1720.88 1586.02L1922.67 1384.23C1929.69 1377.21 1941.08 1377.21 1948.11 1384.23L2054.03 1490.15C2061.05 1497.18 2061.05 1508.57 2054.03 1515.59L1852.24 1717.38C1845.22 1724.4 1833.83 1724.4 1826.8 1717.38Z" fill="#A6A6A6" fill-rule="evenodd"/><path d="M0 0 1120.2 0.000360892" stroke="#000000" stroke-width="6.875" stroke-miterlimit="8" fill="none" fill-rule="evenodd" transform="matrix(-0.707107 0.707107 0.707107 0.707107 2668.61 769.653)"/><path d="M1877.27 1562.27 927.5 612.5" stroke="#000000" stroke-width="6.875" stroke-miterlimit="8" fill="none" fill-rule="evenodd"/><path d="M1845.68 1530.83 1876.66 1499.85 1907.65 1530.83 1876.66 1561.81Z" stroke="#000000" stroke-width="6.875" stroke-miterlimit="8" fill="none" fill-rule="evenodd"/><path d="M0 0 274.795 257.466" stroke="#000000" stroke-width="6.875" stroke-miterlimit="8" stroke-dasharray="27.5 20.625" fill="none" fill-rule="evenodd" transform="matrix(-1 0 0 1 2941.3 516.5)"/><path d="M2726.91 485.525 2743 487.75 2755.73 490.894 2768.08 494.931 2780.06 499.845 2791.62 505.607 2802.72 512.188 2813.31 519.558 2823.35 527.689 2832.79 536.553 2841.58 546.119 2849.69 556.36 2857.07 567.245 2863.66 578.745 2869.38 590.714 2863.17 593.676 2857.51 581.824 2857.63 582.053 2851.17 570.776 2851.3 570.994 2844.07 560.321 2844.22 560.527 2836.27 550.486 2836.44 550.679 2827.81 541.299 2827.99 541.478 2818.73 532.787 2818.92 532.952 2809.08 524.979 2809.28 525.129 2798.9 517.902 2799.11 518.037 2788.22 511.584 2788.44 511.704 2777.11 506.054 2777.34 506.158 2765.59 501.34 2765.83 501.427 2753.71 497.468 2753.96 497.538 2741.52 494.468 2741.88 494.535 2725.97 492.336ZM2730.17 502.934 2703.56 487.534 2731.85 475.485Z"/><path d="M2836.42 429.996C2831.78 431.973 2828.07 435.304 2825.3 439.991 2822.53 444.678 2821.15 449.941 2821.15 455.781 2821.15 462.759 2824.22 466.248 2830.36 466.248 2832.78 466.248 2834.95 465.439 2836.87 463.822 2838.79 462.205 2840.29 459.936 2841.39 457.016 2842.48 454.097 2843.03 451.004 2843.03 447.74 2843.03 444.206 2842.53 441.054 2841.54 438.284 2840.56 435.514 2838.85 432.751 2836.42 429.996ZM2841.05 404.57C2843.65 404.57 2846.25 405.027 2848.84 405.94 2851.43 406.854 2854.33 408.463 2857.54 410.769L2856.01 417.957 2851.88 417.957C2850.83 414.663 2849.35 412.199 2847.45 410.567 2845.55 408.935 2843.27 408.119 2840.6 408.119 2838.59 408.119 2837 408.636 2835.82 409.669 2834.63 410.702 2834.04 412.042 2834.04 413.689 2834.04 414.558 2834.24 415.426 2834.63 416.295 2835.01 417.163 2835.75 418.324 2836.83 419.776 2837.9 421.229 2839.57 423.273 2841.81 425.908 2844.54 429.172 2846.51 431.853 2847.74 433.949 2848.97 436.045 2849.86 438.164 2850.42 440.306 2850.97 442.447 2851.25 444.85 2851.25 447.515 2851.25 451.229 2850.37 454.853 2848.62 458.387 2846.87 461.92 2844.36 464.706 2841.09 466.742 2837.83 468.779 2834.06 469.797 2829.77 469.797 2825.97 469.797 2822.83 469.168 2820.34 467.91 2817.85 466.652 2816.05 464.945 2814.93 462.789 2813.8 460.633 2813.24 458.147 2813.24 455.332 2813.24 448.983 2815.02 443.42 2818.57 438.643 2822.11 433.867 2827.36 430.026 2834.31 427.121 2831.95 424.456 2830.22 422.15 2829.12 420.203 2828.03 418.256 2827.48 416.415 2827.48 414.678 2827.48 412.791 2828.01 411.084 2829.06 409.556 2830.1 408.029 2831.66 406.816 2833.73 405.918 2835.79 405.019 2838.23 404.57 2841.05 404.57Z" fill-rule="evenodd"/><text fill="#000000" fill-opacity="0" font-family="Arial,Arial_MSFontService,sans-serif" font-size="65.2266" x="2813.24" y="461.643">𝛿</text><path d="M2406.82 929.805C2403.02 929.805 2399.85 931.639 2397.3 935.307 2394.75 938.976 2392.67 944.539 2391.06 951.996L2384.99 980.162C2384.84 980.851 2384.77 981.435 2384.77 981.914 2384.77 982.723 2384.95 983.411 2385.33 983.98 2385.7 984.549 2386.26 985.111 2386.99 985.665 2387.72 986.219 2388.68 986.698 2389.84 987.102 2391.01 987.507 2392.49 987.709 2394.29 987.709 2396.72 987.709 2398.93 986.96 2400.92 985.463 2402.91 983.965 2404.47 981.839 2405.61 979.084 2406.75 976.329 2407.32 973.184 2407.32 969.65 2407.32 966.266 2406.38 963.616 2404.51 961.699 2402.64 959.782 2399.97 958.689 2396.49 958.42L2397.12 955.23C2400.36 954.991 2403.28 954.062 2405.88 952.445 2408.49 950.828 2410.53 948.709 2412.01 946.089 2413.49 943.468 2414.24 940.601 2414.24 937.486 2414.24 935.001 2413.61 933.099 2412.37 931.781 2411.13 930.463 2409.28 929.805 2406.82 929.805ZM2407.27 926.256C2411.89 926.256 2415.45 927.281 2417.96 929.333 2420.48 931.384 2421.74 934.297 2421.74 938.07 2421.74 939.598 2421.52 941.252 2421.09 943.034 2420.65 944.816 2419.79 946.568 2418.5 948.29 2417.22 950.012 2415.43 951.607 2413.14 953.074 2410.84 954.542 2408.04 955.799 2404.71 956.848L2404.62 957.207C2411.75 959.723 2415.31 964.409 2415.31 971.267 2415.31 974.801 2414.53 978.111 2412.96 981.195 2411.38 984.28 2409.08 986.728 2406.04 988.54 2403 990.352 2399.5 991.258 2395.55 991.258 2393 991.258 2390.76 991.056 2388.83 990.651 2386.9 990.247 2384.9 989.551 2382.84 988.562L2378.03 1009.86 2370.71 1009.86 2384 950.469C2385.2 945.138 2386.82 940.721 2388.86 937.217 2390.89 933.713 2393.44 931.01 2396.49 929.108 2399.55 927.207 2403.14 926.256 2407.27 926.256Z" fill-rule="evenodd"/><text fill="#000000" fill-opacity="0" font-family="Arial,Arial_MSFontService,sans-serif" font-size="83.5996" x="2370.71" y="999.405">𝛽</text><path d="M2373.99 786.921 2392.59 786.921 2392.09 789.122C2390.78 789.272 2389.75 789.661 2389.02 790.29 2388.28 790.919 2387.77 791.795 2387.47 792.918 2387.17 794.041 2387.02 795.546 2387.02 797.433 2387.02 797.882 2387.06 799.23 2387.15 801.476L2388.41 834.359 2388.41 837.952 2388.86 837.952 2408.31 802.868C2409.45 800.802 2410.3 799.028 2410.87 797.545 2411.44 796.063 2411.73 794.752 2411.73 793.614 2411.73 791.099 2410.23 789.601 2407.23 789.122L2407.73 786.921 2426.1 786.921 2425.61 789.122C2424.8 789.242 2424.03 789.549 2423.29 790.043 2422.56 790.537 2421.74 791.361 2420.82 792.514 2419.91 793.667 2418.49 795.891 2416.58 799.185L2387.83 848.958 2381.85 848.958 2378.84 798.87C2378.72 796.924 2378.51 795.254 2378.19 793.862 2377.88 792.469 2377.38 791.383 2376.71 790.605 2376.03 789.826 2374.96 789.332 2373.5 789.122Z" fill-rule="evenodd"/><text fill="#000000" fill-opacity="0" font-family="Arial,Arial_MSFontService,sans-serif" font-size="62.0371" x="2373.5" y="841.204">𝑉</text><path d="M2205.45 1235.17 929.5 609.5" stroke="#000000" stroke-width="6.875" stroke-miterlimit="8" stroke-dasharray="27.5 20.625" fill="none" fill-rule="evenodd"/><path d="M2630.39 757.974 2634.16 714.321 2677.81 718.094 2674.04 761.746Z" stroke="#000000" stroke-width="6.875" stroke-miterlimit="8" fill="none" fill-rule="evenodd"/><path d="M0 0 203.043 190.238" stroke="#000000" stroke-width="6.875" stroke-miterlimit="8" stroke-dasharray="27.5 20.625" fill="none" fill-rule="evenodd" transform="matrix(-1 0 0 1 1876.54 1561.5)"/><path d="M2157.54 1866.21 1877.5 1561.5" stroke="#000000" stroke-width="6.875" stroke-miterlimit="8" stroke-dasharray="27.5 20.625" fill="none" fill-rule="evenodd"/><path d="M2482.54 1538.21 2202.5 1233.5" stroke="#000000" stroke-width="6.875" stroke-miterlimit="8" stroke-dasharray="27.5 20.625" fill="none" fill-rule="evenodd"/><path d="M2954.54 1068.21 2674.5 763.5" stroke="#000000" stroke-width="6.875" stroke-miterlimit="8" stroke-dasharray="27.5 20.625" fill="none" fill-rule="evenodd"/><path d="M7.32528 2.11848 329.105 301.393 324.423 306.427 2.64316 7.15271ZM10.9054 36.1049-0.0116663-0.0108507 36.7996 8.26337C38.6518 8.67971 39.8159 10.5188 39.3996 12.371 38.9832 14.2233 37.1441 15.3874 35.2919 14.971L4.23004 7.98911 8.27434 3.64065 17.4863 34.1156C18.0357 35.9329 17.0078 37.8514 15.1905 38.4007 13.3733 38.95 11.4548 37.9222 10.9054 36.1049ZM320.843 272.44 331.76 308.556 294.949 300.282C293.097 299.866 291.933 298.026 292.349 296.174 292.765 294.322 294.604 293.158 296.457 293.574L327.518 300.556 323.474 304.905 314.262 274.43C313.713 272.612 314.741 270.694 316.558 270.145 318.375 269.595 320.294 270.623 320.843 272.44Z" transform="matrix(-1 0 0 1 2433.25 1491.5)"/><path d="M7.3271 2.12013 483.79 445.258 479.108 450.292 2.64499 7.15435ZM10.9056 36.1048-0.0116663-0.0108504 36.7996 8.26316C38.6519 8.67949 39.816 10.5186 39.3996 12.3708 38.9833 14.2231 37.1442 15.3871 35.292 14.9708L4.23008 7.98909 8.27436 3.6406 17.4865 34.1155C18.0359 35.9328 17.008 37.8513 15.1907 38.4006 13.3735 38.95 11.455 37.9221 10.9056 36.1048ZM475.53 416.308 486.447 452.423 449.635 444.149C447.783 443.733 446.619 441.894 447.035 440.041 447.452 438.189 449.291 437.025 451.143 437.441L482.205 444.423 478.161 448.772 468.949 418.297C468.399 416.48 469.427 414.561 471.245 414.012 473.062 413.462 474.98 414.49 475.53 416.308Z" transform="matrix(-1 0 0 1 2923.94 1033.5)"/><path d="M2321.44 1691.44 2324.09 1691.44 2313.04 1741.17C2312.38 1744.13 2312.05 1746.35 2312.05 1747.82 2312.05 1749.01 2312.25 1749.88 2312.64 1750.42 2313.02 1750.96 2313.64 1751.23 2314.48 1751.23 2315.38 1751.23 2316.33 1750.86 2317.35 1750.13 2318.37 1749.4 2319.81 1747.99 2321.66 1745.93L2324.23 1748.44C2321.32 1751.5 2318.95 1753.59 2317.1 1754.71 2315.26 1755.83 2313.2 1756.4 2310.93 1756.4 2308.98 1756.4 2307.42 1755.68 2306.26 1754.26 2305.09 1752.84 2304.5 1751.02 2304.5 1748.8 2304.5 1746.8 2304.92 1743.89 2305.76 1740.09L2313.8 1704.11C2314.16 1702.52 2314.42 1701.25 2314.57 1700.31 2314.72 1699.37 2314.79 1698.49 2314.79 1697.68 2314.79 1696.78 2314.63 1696.1 2314.3 1695.64 2313.97 1695.17 2313.5 1694.84 2312.88 1694.63 2312.27 1694.42 2311.17 1694.27 2309.58 1694.18L2310.12 1691.84Z" fill-rule="evenodd"/><text fill="#000000" fill-opacity="0" font-family="Arial,Arial_MSFontService,sans-serif" font-size="64.957" x="2304.5" y="1748.28">𝑙</text><path d="M2339.43 1740.97C2341.05 1740.97 2342.29 1741.5 2343.18 1742.56 2344.06 1743.62 2344.5 1745.01 2344.5 1746.73 2344.5 1747.71 2344.35 1748.59 2344.04 1749.35L2344.5 1749.55C2346.71 1746.6 2348.85 1744.44 2350.93 1743.05 2353.01 1741.67 2355.16 1740.97 2357.36 1740.97 2358.19 1740.97 2358.97 1741.02 2359.7 1741.11 2360.43 1741.19 2361.13 1741.3 2361.81 1741.43L2360.14 1749.35 2356.35 1749.35C2356.24 1748.04 2355.96 1747.1 2355.51 1746.54 2355.06 1745.97 2354.42 1745.69 2353.56 1745.69 2353.06 1745.66 2352.49 1745.82 2351.83 1746.14 2351.18 1746.47 2350.48 1746.94 2349.75 1747.55 2349.02 1748.16 2348.3 1748.88 2347.58 1749.71 2346.86 1750.54 2346.18 1751.44 2345.53 1752.42 2344.89 1753.41 2344.33 1754.45 2343.85 1755.55 2343.37 1756.65 2343.01 1757.76 2342.77 1758.87L2339.43 1774.38 2333.02 1774.38 2337.93 1753.05C2338.23 1751.78 2338.45 1750.73 2338.57 1749.91 2338.69 1749.08 2338.75 1748.38 2338.75 1747.81 2338.75 1746.22 2338.1 1745.42 2336.81 1745.42 2336.4 1745.42 2335.99 1745.51 2335.59 1745.67 2335.18 1745.83 2334.76 1746.08 2334.33 1746.41 2333.89 1746.73 2333.41 1747.15 2332.89 1747.65 2332.37 1748.15 2331.78 1748.74 2331.12 1749.42L2328.87 1747.29C2329.96 1746.18 2330.95 1745.22 2331.86 1744.43 2332.76 1743.63 2333.63 1742.98 2334.46 1742.46 2335.29 1741.95 2336.11 1741.57 2336.91 1741.33 2337.72 1741.09 2338.56 1740.97 2339.43 1740.97Z" fill-rule="evenodd"/><text fill="#000000" fill-opacity="0" font-family="Arial,Arial_MSFontService,sans-serif" font-size="33.4019" x="2328.87" y="1770.2">𝑟</text><path d="M2730.1 1313.39 2732.75 1313.39 2721.7 1363.12C2721.04 1366.09 2720.71 1368.3 2720.71 1369.77 2720.71 1370.97 2720.9 1371.84 2721.29 1372.38 2721.68 1372.92 2722.29 1373.19 2723.13 1373.19 2724.03 1373.19 2724.99 1372.82 2726.01 1372.09 2727.03 1371.35 2728.46 1369.95 2730.32 1367.88L2732.88 1370.4C2729.98 1373.46 2727.6 1375.54 2725.76 1376.67 2723.92 1377.79 2721.86 1378.35 2719.58 1378.35 2717.64 1378.35 2716.08 1377.64 2714.91 1376.22 2713.74 1374.8 2713.16 1372.98 2713.16 1370.76 2713.16 1368.75 2713.58 1365.85 2714.42 1362.05L2722.46 1326.06C2722.82 1324.48 2723.07 1323.21 2723.22 1322.27 2723.37 1321.32 2723.45 1320.45 2723.45 1319.64 2723.45 1318.74 2723.28 1318.06 2722.95 1317.59 2722.62 1317.13 2722.15 1316.79 2721.54 1316.58 2720.92 1316.37 2719.82 1316.22 2718.24 1316.13L2718.78 1313.8Z" fill-rule="evenodd"/><text fill="#000000" fill-opacity="0" font-family="Arial,Arial_MSFontService,sans-serif" font-size="64.957" x="2713.16" y="1370.23">𝑙</text><path d="M2763.58 1350.6C2764.78 1350.6 2765.84 1350.66 2766.75 1350.78 2767.67 1350.9 2768.55 1351.04 2769.4 1351.22L2768.06 1357.3 2764.82 1357.3C2764.67 1356.06 2764.3 1355.15 2763.71 1354.57 2763.12 1353.99 2762.34 1353.71 2761.35 1353.71 2760.22 1353.71 2759.27 1353.95 2758.49 1354.44 2757.72 1354.93 2757.04 1355.67 2756.46 1356.67 2755.89 1357.66 2755.39 1358.82 2754.97 1360.15 2754.56 1361.48 2754.28 1362.64 2754.12 1363.62L2763.19 1363.62 2762.47 1367.25 2753.37 1367.25 2747.45 1395.29C2746.42 1400.06 2744.76 1403.6 2742.46 1405.9 2740.16 1408.2 2737.09 1409.35 2733.25 1409.35 2732.25 1409.35 2731.52 1409.29 2731.06 1409.16 2731.19 1408.61 2731.31 1408.05 2731.42 1407.47 2731.53 1406.89 2731.66 1406.33 2731.81 1405.79 2731.94 1405.83 2732.13 1405.85 2732.37 1405.85 2732.61 1405.85 2732.95 1405.85 2733.38 1405.85 2734.23 1405.85 2735.01 1405.72 2735.72 1405.44 2736.43 1405.17 2737.08 1404.68 2737.67 1403.97 2738.26 1403.26 2738.8 1402.29 2739.29 1401.06 2739.78 1399.83 2740.24 1398.24 2740.68 1396.3L2747.22 1367.25 2741.59 1367.25 2742.18 1364.73C2743.38 1364.67 2744.34 1364.59 2745.05 1364.5 2745.75 1364.41 2746.35 1364.22 2746.84 1363.93 2747.34 1363.63 2747.7 1363.14 2747.94 1362.44 2749.21 1358.45 2751.11 1355.48 2753.65 1353.53 2756.19 1351.57 2759.5 1350.6 2763.58 1350.6Z" fill-rule="evenodd"/><text fill="#000000" fill-opacity="0" font-family="Arial,Arial_MSFontService,sans-serif" font-size="58.7559" x="2731.06" y="1402.01">𝑓</text><rect x="1505" y="858" width="160" height="116" fill="#FFFFFF"/><path d="M1586.38 902.005C1584.79 902.005 1583.12 902.065 1581.35 902.185L1575.6 928.195 1580.9 928.195C1585.24 928.195 1588.67 927.611 1591.19 926.443 1593.7 925.275 1595.69 923.358 1597.16 920.693 1598.63 918.027 1599.36 915.152 1599.36 912.068 1599.36 910.78 1599.24 909.634 1599 908.631 1598.76 907.628 1598.45 906.797 1598.06 906.138 1597.67 905.479 1597.18 904.895 1596.58 904.386 1595.98 903.877 1595.23 903.435 1594.33 903.061 1593.43 902.687 1592.39 902.417 1591.21 902.252 1590.03 902.088 1588.42 902.005 1586.38 902.005ZM1568.37 898.052 1588.36 898.052C1591.53 898.052 1594.12 898.239 1596.13 898.614 1598.13 898.988 1599.85 899.549 1601.27 900.298 1602.69 901.047 1603.88 902.013 1604.84 903.196 1605.8 904.379 1606.52 905.711 1607 907.194 1607.48 908.676 1607.72 910.256 1607.72 911.933 1607.72 916.545 1606.31 920.468 1603.49 923.703 1600.68 926.937 1596.53 929.393 1591.05 931.07L1591.05 931.564C1592.49 932.642 1593.65 933.93 1594.53 935.427 1595.42 936.924 1596.13 939.006 1596.67 941.671L1597.7 946.882C1598.03 948.529 1598.4 950.012 1598.82 951.329 1599.24 952.647 1599.74 953.695 1600.33 954.474 1600.91 955.253 1601.57 955.837 1602.3 956.226 1603.04 956.615 1604.11 956.93 1605.52 957.169L1605.07 959.37 1592.62 959.37C1591.67 956.705 1590.81 953.531 1590.06 949.847L1588.09 940.324C1587.76 938.676 1587.36 937.291 1586.9 936.168 1586.43 935.045 1585.88 934.177 1585.23 933.563 1584.59 932.949 1583.84 932.545 1582.99 932.35 1582.13 932.155 1581.09 932.058 1579.87 932.058L1574.74 932.058 1571.6 946.298C1571.33 947.466 1571.14 948.395 1571.04 949.083 1570.93 949.772 1570.84 950.498 1570.77 951.262 1570.69 952.026 1570.66 952.707 1570.66 953.306 1570.66 954.234 1570.81 954.961 1571.11 955.485 1571.41 956.009 1571.85 956.391 1572.45 956.63 1573.05 956.87 1574.09 957.049 1575.55 957.169L1575.06 959.37 1556.6 959.37 1557.09 957.169C1558.23 956.99 1559.08 956.698 1559.65 956.293 1560.22 955.889 1560.7 955.328 1561.09 954.609 1561.48 953.89 1561.84 953.014 1562.17 951.981 1562.5 950.948 1562.99 948.949 1563.65 945.984L1571.29 911.394C1571.94 908.399 1572.27 906.033 1572.27 904.296 1572.27 902.829 1571.93 901.811 1571.24 901.242 1570.55 900.673 1569.43 900.343 1567.87 900.253Z" fill-rule="evenodd"/><text fill="#000000" fill-opacity="0" font-family="Arial,Arial_MSFontService,sans-serif" font-size="61.3184" x="1556.6" y="951.706">𝑅</text><path d="M2137.73 1201.05 2171.35 1134.86 2237.54 1168.48 2203.92 1234.67Z" stroke="#000000" stroke-width="6.875" stroke-miterlimit="8" fill="none" fill-rule="evenodd"/><path d="M2170 1234C2170 1214.67 2185.67 1199 2205 1199 2224.33 1199 2240 1214.67 2240 1234 2240 1253.33 2224.33 1269 2205 1269 2185.67 1269 2170 1253.33 2170 1234Z" stroke="#000000" stroke-width="10.3125" stroke-miterlimit="8" fill="#FFFFFF" fill-rule="evenodd"/><path d="M2170 1233.29C2170.12 1214.32 2185.75 1199 2205 1199L2205 1233.5Z" fill-rule="evenodd"/><path d="M2240 1233.71C2239.88 1252.68 2224.25 1268 2205 1268L2205 1233.5Z" fill-rule="evenodd"/><path d="M843.44 507.558C840.205 507.558 837.188 508.711 834.388 511.017 831.588 513.323 829.132 516.617 827.021 520.9 824.909 525.182 823.27 529.884 822.102 535.005 820.934 540.126 820.35 544.648 820.35 548.572 820.35 557.826 823.719 562.453 830.457 562.453 834.56 562.453 838.326 560.566 841.755 556.792 845.184 553.019 847.992 547.726 850.178 540.912 852.364 534.099 853.457 527.563 853.457 521.304 853.457 512.14 850.118 507.558 843.44 507.558ZM843.934 503.605C849.714 503.605 854.169 505.282 857.298 508.636 860.428 511.99 861.992 516.842 861.992 523.191 861.992 527.833 861.199 533.051 859.612 538.846 858.024 544.641 855.726 549.657 852.716 553.895 849.706 558.133 846.27 561.277 842.407 563.328 838.543 565.38 834.5 566.406 830.278 566.406 824.258 566.406 819.691 564.729 816.576 561.374 813.462 558.02 811.905 553.229 811.905 546.999 811.905 542.507 812.661 537.431 814.173 531.771 815.686 526.111 817.872 521.117 820.732 516.789 823.592 512.462 827.006 509.183 830.974 506.952 834.942 504.72 839.262 503.605 843.934 503.605Z" fill-rule="evenodd"/><text fill="#000000" fill-opacity="0" font-family="Arial,Arial_MSFontService,sans-serif" font-size="62.8008" x="811.905" y="558.556">𝑂</text><path d="M883.857 550.94C885.45 550.94 886.927 551.027 888.29 551.202 889.653 551.376 891.066 551.649 892.527 552.02L890.695 560.035 886.835 560.035C886.813 558.901 886.731 557.957 886.589 557.205 886.447 556.453 886.218 555.858 885.902 555.422 885.586 554.986 885.172 554.675 884.659 554.49 884.146 554.304 883.519 554.201 882.778 554.179 881.6 554.179 880.471 554.441 879.392 554.964 878.312 555.487 877.309 556.213 876.382 557.14 875.455 558.066 874.61 559.151 873.847 560.395 873.083 561.638 872.429 562.979 871.884 564.419 871.339 565.858 870.919 567.357 870.624 568.917 870.33 570.476 870.183 572.03 870.183 573.579 870.183 575.891 870.641 577.652 871.557 578.862 872.473 580.073 873.847 580.678 875.679 580.678 876.704 580.678 877.653 580.585 878.525 580.4 879.397 580.214 880.248 579.904 881.077 579.467 881.906 579.031 882.762 578.459 883.645 577.75 884.528 577.041 885.504 576.163 886.573 575.116 886.987 575.553 887.385 575.983 887.767 576.409 888.149 576.834 888.547 577.265 888.961 577.701 886.606 580.143 884.25 581.959 881.895 583.148 879.539 584.336 877.009 584.931 874.305 584.931 870.924 584.931 868.334 583.944 866.535 581.97 864.736 579.996 863.836 577.177 863.836 573.513 863.836 571.463 864.065 569.484 864.523 567.576 864.981 565.667 865.641 563.873 866.502 562.194 867.364 560.515 868.394 558.988 869.594 557.614 870.793 556.24 872.135 555.057 873.618 554.064 875.101 553.072 876.704 552.303 878.427 551.758 880.15 551.213 881.96 550.94 883.857 550.94Z" fill-rule="evenodd"/><text fill="#000000" fill-opacity="0" font-family="Arial,Arial_MSFontService,sans-serif" font-size="33.9907" x="863.836" y="580.682">𝑐</text><path d="M2813.64 747.917 2797.65 776.218 2815.22 776.218 2814.45 761.753C2814.36 759.777 2814.29 757.306 2814.23 754.341 2814.17 751.376 2814.14 749.235 2814.14 747.917ZM2813.91 738.439 2820.7 738.439 2823.93 788.527C2824.08 790.893 2824.35 792.742 2824.74 794.075 2825.13 795.407 2825.66 796.396 2826.33 797.04 2827.01 797.683 2827.99 798.095 2829.28 798.275L2828.78 800.476 2810.09 800.476 2810.59 798.275C2812.36 798.125 2813.67 797.436 2814.54 796.208 2815.41 794.981 2815.84 792.824 2815.84 789.74 2815.84 788.572 2815.8 787.299 2815.71 785.921L2815.4 780.126 2795.63 780.126 2793.16 784.529C2791.99 786.595 2791.14 788.37 2790.6 789.852 2790.06 791.334 2789.79 792.645 2789.79 793.783 2789.79 796.298 2791.3 797.796 2794.33 798.275L2793.83 800.476 2775.46 800.476 2775.95 798.275C2776.88 798.155 2777.76 797.788 2778.58 797.174 2779.41 796.56 2780.28 795.632 2781.21 794.389 2782.14 793.146 2783.44 791.087 2785.12 788.212Z" fill-rule="evenodd"/><text fill="#000000" fill-opacity="0" font-family="Arial,Arial_MSFontService,sans-serif" font-size="62.0371" x="2775.46" y="792.721">𝐴</text><path d="M911 608C911 598.611 918.611 591 928 591 937.389 591 945 598.611 945 608 945 617.389 937.389 625 928 625 918.611 625 911 617.389 911 608Z" fill-rule="evenodd"/><path d="M1860 1562C1860 1552.61 1867.61 1545 1877 1545 1886.39 1545 1894 1552.61 1894 1562 1894 1571.39 1886.39 1579 1877 1579 1867.61 1579 1860 1571.39 1860 1562Z" fill-rule="evenodd"/><path d="M2657 764C2657 754.611 2664.61 747 2674 747 2683.39 747 2691 754.611 2691 764 2691 773.389 2683.39 781 2674 781 2664.61 781 2657 773.389 2657 764Z" fill-rule="evenodd"/><path d="M1865.19 1750.56 1859.62 1776.3C1861.45 1776.42 1863.69 1776.48 1866.36 1776.48 1870.91 1776.48 1874.33 1775.96 1876.62 1774.93 1878.92 1773.89 1880.89 1772.06 1882.53 1769.42 1884.18 1766.79 1885 1763.54 1885 1759.68 1885 1756.65 1884.01 1754.38 1882.02 1752.85 1880.02 1751.32 1877.05 1750.56 1873.1 1750.56ZM1878.49 1723.06C1875.88 1723.06 1873.46 1723.11 1871.21 1723.2L1866.14 1746.6 1872.47 1746.6C1876 1746.6 1878.81 1746.32 1880.89 1745.75 1882.97 1745.18 1884.81 1744.16 1886.4 1742.7 1887.98 1741.23 1889.14 1739.62 1889.85 1737.87 1890.57 1736.11 1890.93 1734.09 1890.93 1731.78 1890.93 1730.49 1890.71 1729.29 1890.26 1728.16 1889.81 1727.04 1889.04 1726.08 1887.95 1725.29 1886.85 1724.49 1885.59 1723.93 1884.17 1723.58 1882.75 1723.24 1880.86 1723.06 1878.49 1723.06ZM1858.32 1719.11 1880.56 1719.11C1885.05 1719.11 1888.65 1719.58 1891.36 1720.53 1894.07 1721.47 1896.06 1722.85 1897.33 1724.68 1898.61 1726.51 1899.24 1728.8 1899.24 1731.55 1899.24 1735.48 1898.05 1738.9 1895.65 1741.82 1893.25 1744.74 1889.69 1746.98 1884.96 1748.54L1884.87 1749.03C1887.65 1750.14 1889.79 1751.72 1891.29 1753.77 1892.79 1755.82 1893.54 1758.15 1893.54 1760.75 1893.54 1764.74 1892.62 1768.14 1890.8 1770.97 1888.97 1773.8 1886.23 1776.09 1882.58 1777.82 1878.92 1779.56 1873.58 1780.43 1866.54 1780.43L1846.55 1780.43 1847.04 1778.23C1848.18 1778.05 1849.04 1777.76 1849.6 1777.35 1850.17 1776.95 1850.65 1776.39 1851.04 1775.67 1851.43 1774.95 1851.79 1774.07 1852.12 1773.04 1852.45 1772.01 1852.94 1770.01 1853.6 1767.04L1861.24 1732.45C1861.9 1729.46 1862.23 1727.09 1862.23 1725.36 1862.23 1723.89 1861.88 1722.87 1861.19 1722.3 1860.51 1721.73 1859.38 1721.4 1857.83 1721.31Z" fill-rule="evenodd"/><text fill="#000000" fill-opacity="0" font-family="Arial,Arial_MSFontService,sans-serif" font-size="61.3184" x="1846.55" y="1772.77">𝐵</text><path d="M2186.92 1330.33C2183.68 1330.33 2180.67 1331.48 2177.87 1333.79 2175.07 1336.09 2172.61 1339.39 2170.5 1343.67 2168.39 1347.95 2166.75 1352.66 2165.58 1357.78 2164.41 1362.9 2163.83 1367.42 2163.83 1371.34 2163.83 1380.6 2167.2 1385.22 2173.94 1385.22 2178.04 1385.22 2181.81 1383.34 2185.23 1379.56 2188.66 1375.79 2191.47 1370.5 2193.66 1363.68 2195.84 1356.87 2196.94 1350.33 2196.94 1344.08 2196.94 1334.91 2193.6 1330.33 2186.92 1330.33ZM2187.41 1326.38C2193.19 1326.38 2197.65 1328.05 2200.78 1331.41 2203.91 1334.76 2205.47 1339.61 2205.47 1345.96 2205.47 1350.6 2204.68 1355.82 2203.09 1361.62 2201.5 1367.41 2199.2 1372.43 2196.2 1376.67 2193.19 1380.9 2189.75 1384.05 2185.89 1386.1 2182.02 1388.15 2177.98 1389.18 2173.76 1389.18 2167.74 1389.18 2163.17 1387.5 2160.06 1384.15 2156.94 1380.79 2155.38 1376 2155.38 1369.77 2155.38 1365.28 2156.14 1360.2 2157.65 1354.54 2159.16 1348.88 2161.35 1343.89 2164.21 1339.56 2167.07 1335.23 2170.48 1331.95 2174.45 1329.72 2178.42 1327.49 2182.74 1326.38 2187.41 1326.38Z" fill-rule="evenodd"/><text fill="#000000" fill-opacity="0" font-family="Arial,Arial_MSFontService,sans-serif" font-size="62.8008" x="2155.38" y="1381.33">𝑂</text><path d="M2223.22 1386.86 2219.49 1403.65C2220.02 1403.67 2220.68 1403.69 2221.47 1403.71 2222.27 1403.73 2223.21 1403.74 2224.3 1403.74 2226.66 1403.74 2228.69 1403.54 2230.4 1403.14 2232.12 1402.73 2233.53 1402.1 2234.66 1401.24 2235.78 1400.38 2236.61 1399.26 2237.14 1397.89 2237.68 1396.51 2237.95 1394.87 2237.95 1392.95 2237.95 1391.94 2237.79 1391.06 2237.49 1390.3 2237.18 1389.53 2236.67 1388.9 2235.97 1388.38 2235.26 1387.87 2234.35 1387.49 2233.25 1387.24 2232.15 1386.99 2230.8 1386.86 2229.21 1386.86ZM2233.1 1368.08C2232.06 1368.08 2231.06 1368.1 2230.11 1368.13 2229.16 1368.17 2228.25 1368.23 2227.38 1368.31L2224.01 1383.46 2229.08 1383.46C2231.46 1383.46 2233.47 1383.24 2235.12 1382.79 2236.76 1382.34 2238.1 1381.7 2239.12 1380.88 2240.15 1380.05 2240.9 1379.05 2241.36 1377.88 2241.83 1376.72 2242.07 1375.4 2242.07 1373.94 2242.02 1373 2241.84 1372.16 2241.51 1371.42 2241.18 1370.68 2240.67 1370.06 2239.96 1369.57 2239.25 1369.08 2238.33 1368.71 2237.21 1368.46 2236.09 1368.21 2234.72 1368.08 2233.1 1368.08ZM2217.4 1364.68 2234.54 1364.68C2237.09 1364.68 2239.26 1364.89 2241.04 1365.3 2242.81 1365.72 2244.28 1366.32 2245.42 1367.1 2246.57 1367.89 2247.39 1368.83 2247.91 1369.93 2248.42 1371.03 2248.68 1372.29 2248.68 1373.71 2248.68 1379.08 2245.31 1382.86 2238.57 1385.06 2238.57 1385.17 2238.56 1385.26 2238.55 1385.32 2238.54 1385.39 2238.53 1385.44 2238.53 1385.49 2240.56 1386.3 2242.1 1387.41 2243.15 1388.83 2244.19 1390.24 2244.72 1391.88 2244.72 1393.73 2244.72 1395.83 2244.33 1397.7 2243.56 1399.34 2242.78 1400.99 2241.59 1402.39 2239.97 1403.53 2238.36 1404.68 2236.29 1405.56 2233.76 1406.18 2231.23 1406.8 2228.2 1407.11 2224.66 1407.11L2209.32 1407.11 2209.68 1405.12C2210.36 1405.01 2210.91 1404.88 2211.33 1404.74 2211.76 1404.6 2212.14 1404.29 2212.48 1403.83 2212.81 1403.36 2213.13 1402.65 2213.41 1401.72 2213.69 1400.78 2214.02 1399.45 2214.39 1397.72L2219.76 1373.87C2219.97 1372.92 2220.14 1372.06 2220.25 1371.32 2220.36 1370.58 2220.41 1369.97 2220.41 1369.49 2220.41 1368.51 2220.16 1367.81 2219.67 1367.4 2219.18 1366.98 2218.26 1366.76 2216.91 1366.74Z" fill-rule="evenodd"/><text fill="#000000" fill-opacity="0" font-family="Arial,Arial_MSFontService,sans-serif" font-size="42.4312" x="2209.32" y="1401.81">𝐵</text><path d="M1172.58 630.923C1165.52 687.728 1139.21 740.399 1098.04 780.169" stroke="#000000" stroke-width="6.875" stroke-miterlimit="8" fill="none" fill-rule="evenodd"/><path d="M1053.63 821.633C1048.99 823.61 1045.28 826.941 1042.51 831.628 1039.74 836.315 1038.36 841.578 1038.36 847.418 1038.36 854.396 1041.43 857.885 1047.56 857.885 1049.99 857.885 1052.16 857.076 1054.08 855.459 1055.99 853.842 1057.5 851.574 1058.59 848.654 1059.69 845.734 1060.23 842.642 1060.23 839.377 1060.23 835.843 1059.74 832.691 1058.75 829.921 1057.76 827.151 1056.05 824.388 1053.63 821.633ZM1058.26 796.207C1060.86 796.207 1063.46 796.664 1066.05 797.577 1068.64 798.491 1071.54 800.101 1074.74 802.407L1073.22 809.594 1069.08 809.594C1068.03 806.3 1066.56 803.837 1064.66 802.204 1062.76 800.572 1060.47 799.756 1057.81 799.756 1055.8 799.756 1054.21 800.273 1053.02 801.306 1051.84 802.339 1051.25 803.679 1051.25 805.326 1051.25 806.195 1051.44 807.063 1051.83 807.932 1052.22 808.8 1052.96 809.961 1054.03 811.413 1055.11 812.866 1056.77 814.91 1059.02 817.545 1061.74 820.81 1063.72 823.49 1064.95 825.586 1066.18 827.683 1067.07 829.801 1067.62 831.943 1068.18 834.084 1068.45 836.487 1068.45 839.153 1068.45 842.866 1067.58 846.49 1065.83 850.024 1064.07 853.558 1061.57 856.343 1058.3 858.379 1055.04 860.416 1051.26 861.434 1046.98 861.434 1043.18 861.434 1040.03 860.805 1037.55 859.547 1035.06 858.289 1033.26 856.582 1032.13 854.426 1031.01 852.27 1030.45 849.784 1030.45 846.969 1030.45 840.62 1032.22 835.057 1035.77 830.281 1039.32 825.504 1044.57 821.663 1051.52 818.758 1049.15 816.093 1047.42 813.787 1046.33 811.84 1045.24 809.894 1044.69 808.052 1044.69 806.315 1044.69 804.428 1045.21 802.721 1046.26 801.194 1047.31 799.666 1048.87 798.453 1050.93 797.555 1053 796.657 1055.44 796.207 1058.26 796.207Z" fill-rule="evenodd"/><text fill="#000000" fill-opacity="0" font-family="Arial,Arial_MSFontService,sans-serif" font-size="65.2266" x="1030.45" y="853.281">𝛿</text><path d="M648.875 1623.61 648.875 2018.99 635.125 2018.99 635.125 1623.61ZM611.999 1661.4 642 1609.97 672.001 1661.4C673.914 1664.68 672.807 1668.89 669.527 1670.8 666.247 1672.71 662.037 1671.61 660.124 1668.33L636.062 1627.08 647.939 1627.08 623.876 1668.33C621.963 1671.61 617.753 1672.71 614.474 1670.8 611.194 1668.89 610.086 1664.68 611.999 1661.4Z"/><path d="M13.6128-6.87499 409.51-6.87464 409.51 6.87536 13.6128 6.87501ZM51.3984 30.001-0.0318643-7.14162e-07 51.3984-30.0009C54.6781-31.9141 58.8878-30.8063 60.801-27.5266 62.7142-24.2468 61.6064-20.0371 58.3266-18.124L17.0766 5.93849 17.0766-5.93847 58.3266 18.1241C61.6063 20.0373 62.7141 24.2469 60.801 27.5267 58.8878 30.8064 54.6781 31.9142 51.3984 30.001Z" transform="matrix(-1 0 0 1 1046.51 2019)"/><path d="M542.477 2043.39C538.609 2043.39 535.002 2044.77 531.654 2047.52 528.306 2050.28 525.37 2054.22 522.845 2059.34 520.321 2064.46 518.36 2070.08 516.964 2076.21 515.568 2082.33 514.869 2087.74 514.869 2092.43 514.869 2103.49 518.898 2109.02 526.954 2109.02 531.86 2109.02 536.363 2106.77 540.463 2102.26 544.562 2097.74 547.919 2091.41 550.533 2083.27 553.147 2075.12 554.454 2067.31 554.454 2059.82 554.454 2048.87 550.462 2043.39 542.477 2043.39ZM543.068 2038.66C549.978 2038.66 555.305 2040.67 559.047 2044.68 562.788 2048.69 564.659 2054.49 564.659 2062.08 564.659 2067.63 563.71 2073.87 561.813 2080.8 559.915 2087.73 557.167 2093.72 553.568 2098.79 549.969 2103.86 545.86 2107.62 541.241 2110.07 536.622 2112.52 531.788 2113.75 526.739 2113.75 519.542 2113.75 514.081 2111.74 510.358 2107.73 506.634 2103.72 504.772 2097.99 504.772 2090.55 504.772 2085.18 505.676 2079.11 507.484 2072.34 509.292 2065.57 511.906 2059.6 515.326 2054.43 518.745 2049.25 522.827 2045.33 527.572 2042.66 532.316 2040 537.482 2038.66 543.068 2038.66Z" fill-rule="evenodd"/><text fill="#000000" fill-opacity="0" font-family="Arial,Arial_MSFontService,sans-serif" font-size="75.0879" x="504.772" y="2104.36">𝑂</text><path d="M601.305 2083.89C603.883 2083.89 606.318 2084.08 608.61 2084.47 610.901 2084.86 613.232 2085.44 615.602 2086.19L613.219 2096.58 609 2096.58C608.844 2093.61 608.134 2091.42 606.871 2090 605.608 2088.58 603.584 2087.87 600.797 2087.87 596.709 2087.87 593.089 2089.59 589.938 2093.03 588.61 2094.49 587.373 2096.28 586.227 2098.42 585.081 2100.56 584.085 2102.87 583.239 2105.37 582.392 2107.87 581.728 2110.46 581.246 2113.15 580.765 2115.83 580.524 2118.45 580.524 2121 580.524 2124.83 581.246 2127.63 582.692 2129.4 584.137 2131.17 586.383 2132.05 589.43 2132.05 590.524 2132.05 591.598 2131.94 592.653 2131.72 593.707 2131.5 594.697 2131.15 595.621 2130.69 596.546 2130.22 597.366 2129.61 598.082 2128.87 598.798 2128.13 599.365 2127.25 599.782 2126.23 600.068 2125.58 600.322 2124.83 600.543 2123.97 600.765 2123.11 600.94 2122.26 601.071 2121.43 601.201 2120.59 601.298 2119.84 601.364 2119.16 601.429 2118.48 601.461 2117.98 601.461 2117.64 601.461 2116.49 601.155 2115.69 600.543 2115.24 599.931 2114.78 598.831 2114.51 597.242 2114.44L597.789 2112.05 614.391 2112.05 613.805 2114.44C612.867 2114.64 612.151 2114.85 611.657 2115.06 611.162 2115.27 610.745 2115.66 610.407 2116.23 610.172 2116.52 609.873 2117.31 609.508 2118.61 609.144 2119.92 608.733 2121.47 608.278 2123.28 607.822 2125.09 607.353 2127.05 606.871 2129.16 606.39 2131.27 605.94 2133.29 605.524 2135.22 604.977 2135.37 604.443 2135.52 603.922 2135.65 603.401 2135.78 602.841 2135.91 602.242 2136.04 601.852 2135.59 601.474 2135.13 601.11 2134.65 600.745 2134.17 600.394 2133.69 600.055 2133.22 598.805 2133.8 597.679 2134.27 596.676 2134.65 595.673 2135.03 594.723 2135.33 593.825 2135.55 592.926 2135.77 592.047 2135.93 591.188 2136.02 590.328 2136.11 589.43 2136.15 588.492 2136.15 585.81 2136.15 583.473 2135.73 581.481 2134.88 579.489 2134.04 577.841 2132.85 576.539 2131.33 575.237 2129.81 574.267 2128 573.629 2125.9 572.991 2123.8 572.672 2121.49 572.672 2118.97 572.672 2116.31 572.933 2113.61 573.453 2110.86 573.974 2108.11 574.769 2105.44 575.836 2102.83 576.904 2100.23 578.232 2097.78 579.821 2095.47 581.409 2093.17 583.265 2091.16 585.387 2089.45 587.509 2087.75 589.892 2086.4 592.535 2085.39 595.179 2084.39 598.102 2083.89 601.305 2083.89Z" fill-rule="evenodd"/><text fill="#000000" fill-opacity="0" font-family="Arial,Arial_MSFontService,sans-serif" font-size="52.2656" x="572.672" y="2129.62">𝐺</text><path d="M1136.64 2021.7C1133.03 2021.7 1129.54 2023.53 1126.2 2027.18 1122.85 2030.83 1120.28 2035.78 1118.49 2042.01 1123.54 2041.97 1127.87 2041.51 1131.49 2040.64 1135.1 2039.76 1137.88 2038.36 1139.81 2036.45 1141.75 2034.53 1142.71 2031.94 1142.71 2028.69 1142.71 2026.5 1142.2 2024.79 1141.18 2023.56 1140.16 2022.32 1138.65 2021.7 1136.64 2021.7ZM1138.58 2017.46C1142.91 2017.46 1146.16 2018.34 1148.33 2020.09 1150.49 2021.85 1151.57 2024.59 1151.57 2028.31 1151.57 2034.4 1148.72 2038.96 1143.01 2042.01 1137.3 2045.05 1128.82 2046.57 1117.58 2046.57 1117.15 2048.72 1116.93 2051.05 1116.93 2053.55 1116.93 2057.31 1117.67 2060.04 1119.13 2061.75 1120.6 2063.45 1123 2064.3 1126.33 2064.3 1129.63 2064.3 1132.61 2063.58 1135.27 2062.15 1137.94 2060.72 1140.76 2058.51 1143.73 2055.54L1147.06 2059.03C1143.59 2062.86 1140.07 2065.75 1136.51 2067.68 1132.95 2069.61 1128.8 2070.58 1124.07 2070.58 1118.88 2070.58 1114.86 2069 1112.02 2065.83 1109.17 2062.66 1107.75 2058.25 1107.75 2052.59 1107.75 2048.76 1108.44 2044.65 1109.81 2040.26 1111.19 2035.87 1113.28 2031.94 1116.07 2028.44 1118.86 2024.95 1122.21 2022.25 1126.12 2020.33 1130.02 2018.42 1134.17 2017.46 1138.58 2017.46Z" fill-rule="evenodd"/><text fill="#000000" fill-opacity="0" font-family="Arial,Arial_MSFontService,sans-serif" font-size="53.1201" x="1107.75" y="2063.94">𝑒</text><path d="M1170.65 2053.05C1172.08 2053.05 1173.25 2053.37 1174.16 2053.99 1175.07 2054.62 1175.83 2055.53 1176.43 2056.73 1177.03 2057.92 1177.52 2059.4 1177.91 2061.16 1178.3 2062.92 1178.72 2064.93 1179.16 2067.19L1179.67 2067.19C1181.23 2065.14 1182.59 2063.35 1183.73 2061.84 1184.88 2060.33 1185.9 2059.06 1186.8 2058.01 1187.7 2056.97 1188.5 2056.13 1189.22 2055.48 1189.94 2054.82 1190.63 2054.32 1191.31 2053.97 1191.99 2053.62 1192.68 2053.38 1193.4 2053.25 1194.12 2053.12 1194.92 2053.05 1195.8 2053.05 1197.11 2053.05 1198.29 2053.29 1199.36 2053.76L1197.4 2061.45 1194.16 2061.45C1194.08 2060.33 1193.67 2059.77 1192.91 2059.77 1192.63 2059.77 1192.31 2059.82 1191.97 2059.93 1191.64 2060.03 1191.23 2060.24 1190.76 2060.55 1190.3 2060.87 1189.75 2061.3 1189.14 2061.86 1188.53 2062.42 1187.81 2063.15 1186.97 2064.05 1186.14 2064.95 1185.19 2066.05 1184.12 2067.35 1183.06 2068.65 1181.83 2070.19 1180.45 2071.96 1181.15 2075.55 1181.76 2078.43 1182.27 2080.59 1182.78 2082.75 1183.26 2084.41 1183.73 2085.55 1184.2 2086.7 1184.67 2087.45 1185.14 2087.8 1185.61 2088.15 1186.14 2088.33 1186.74 2088.33 1187.18 2088.33 1187.59 2088.27 1187.97 2088.17 1188.35 2088.07 1188.74 2087.84 1189.14 2087.49 1189.55 2087.14 1190 2086.63 1190.49 2085.96 1190.99 2085.3 1191.57 2084.42 1192.25 2083.33L1195.18 2085.24C1194.03 2086.96 1193.02 2088.37 1192.13 2089.46 1191.25 2090.55 1190.39 2091.41 1189.55 2092.04 1188.72 2092.66 1187.86 2093.09 1186.97 2093.31 1186.09 2093.53 1185.07 2093.64 1183.93 2093.64 1182.94 2093.64 1182.05 2093.5 1181.27 2093.23 1180.49 2092.96 1179.81 2092.45 1179.24 2091.73 1178.85 2091.28 1178.49 2090.69 1178.15 2089.95 1177.81 2089.21 1177.5 2088.4 1177.21 2087.55 1176.92 2086.69 1176.66 2085.79 1176.43 2084.87 1176.19 2083.95 1176 2083.08 1175.84 2082.27 1175.69 2081.46 1175.56 2080.74 1175.47 2080.1 1175.38 2079.47 1175.32 2078.99 1175.3 2078.68L1174.87 2078.68C1173.3 2080.76 1171.94 2082.58 1170.78 2084.13 1169.62 2085.68 1168.58 2087.01 1167.64 2088.11 1166.7 2089.22 1165.86 2090.13 1165.1 2090.85 1164.34 2091.56 1163.6 2092.13 1162.87 2092.55 1162.14 2092.96 1161.4 2093.25 1160.63 2093.4 1159.86 2093.56 1159.01 2093.64 1158.07 2093.64 1156.71 2093.64 1155.56 2093.4 1154.59 2092.94L1156.39 2085.32 1159.71 2085.32C1159.79 2086.46 1160.22 2087.04 1161 2087.04 1161.28 2087.01 1161.56 2086.96 1161.84 2086.88 1162.11 2086.8 1162.43 2086.64 1162.8 2086.39 1163.16 2086.15 1163.62 2085.76 1164.18 2085.22 1164.74 2084.69 1165.45 2083.95 1166.31 2082.99 1167.17 2082.04 1168.22 2080.85 1169.47 2079.42 1170.72 2077.99 1172.22 2076.22 1173.97 2074.11 1173.5 2071.92 1173.09 2070.02 1172.74 2068.4 1172.39 2066.79 1172.06 2065.4 1171.76 2064.24 1171.46 2063.09 1171.17 2062.14 1170.88 2061.41 1170.59 2060.68 1170.3 2060.1 1170 2059.67 1169.7 2059.24 1169.38 2058.94 1169.03 2058.76 1168.67 2058.57 1168.26 2058.47 1167.8 2058.44 1167.35 2058.44 1166.94 2058.52 1166.56 2058.66 1166.19 2058.8 1165.8 2059.06 1165.39 2059.42 1164.99 2059.78 1164.55 2060.29 1164.06 2060.94 1163.58 2061.59 1163.03 2062.44 1162.4 2063.48L1159.4 2061.53C1160.46 2059.94 1161.43 2058.6 1162.29 2057.51 1163.15 2056.41 1163.99 2055.54 1164.83 2054.89 1165.66 2054.24 1166.54 2053.77 1167.46 2053.48 1168.39 2053.2 1169.45 2053.05 1170.65 2053.05Z" fill-rule="evenodd"/><text fill="#000000" fill-opacity="0" font-family="Arial,Arial_MSFontService,sans-serif" font-size="40.5859" x="1154.59" y="2088.57">𝑥</text><path d="M1196.56 1976.38C1199.14 1976.38 1201.58 1976.57 1203.87 1976.96 1206.16 1977.35 1208.49 1977.93 1210.86 1978.68L1208.48 1989.07 1204.26 1989.07C1204.1 1986.1 1203.39 1983.91 1202.13 1982.49 1200.87 1981.07 1198.84 1980.36 1196.06 1980.36 1191.97 1980.36 1188.35 1982.08 1185.2 1985.52 1183.87 1986.98 1182.63 1988.77 1181.49 1990.91 1180.34 1993.04 1179.34 1995.36 1178.5 1997.86 1177.65 2000.36 1176.99 2002.95 1176.51 2005.64 1176.02 2008.32 1175.78 2010.93 1175.78 2013.49 1175.78 2017.32 1176.51 2020.11 1177.95 2021.89 1179.4 2023.66 1181.64 2024.54 1184.69 2024.54 1185.78 2024.54 1186.86 2024.43 1187.91 2024.21 1188.97 2023.99 1189.96 2023.64 1190.88 2023.17 1191.81 2022.71 1192.63 2022.1 1193.34 2021.36 1194.06 2020.62 1194.62 2019.74 1195.04 2018.72 1195.33 2018.07 1195.58 2017.32 1195.8 2016.46 1196.02 2015.6 1196.2 2014.75 1196.33 2013.92 1196.46 2013.08 1196.56 2012.33 1196.62 2011.65 1196.69 2010.97 1196.72 2010.47 1196.72 2010.13 1196.72 2008.98 1196.41 2008.18 1195.8 2007.73 1195.19 2007.27 1194.09 2007 1192.5 2006.92L1193.05 2004.54 1209.65 2004.54 1209.06 2006.92C1208.13 2007.13 1207.41 2007.34 1206.92 2007.55 1206.42 2007.76 1206 2008.15 1205.67 2008.72 1205.43 2009.01 1205.13 2009.8 1204.77 2011.1 1204.4 2012.41 1203.99 2013.96 1203.54 2015.77 1203.08 2017.58 1202.61 2019.54 1202.13 2021.65 1201.65 2023.76 1201.2 2025.78 1200.78 2027.71 1200.24 2027.86 1199.7 2028.01 1199.18 2028.14 1198.66 2028.27 1198.1 2028.4 1197.5 2028.53 1197.11 2028.08 1196.73 2027.62 1196.37 2027.14 1196 2026.66 1195.65 2026.18 1195.31 2025.71 1194.06 2026.29 1192.94 2026.76 1191.94 2027.14 1190.93 2027.52 1189.98 2027.82 1189.08 2028.04 1188.19 2028.26 1187.31 2028.42 1186.45 2028.51 1185.59 2028.6 1184.69 2028.64 1183.75 2028.64 1181.07 2028.64 1178.73 2028.22 1176.74 2027.37 1174.75 2026.53 1173.1 2025.34 1171.8 2023.82 1170.5 2022.3 1169.53 2020.49 1168.89 2018.39 1168.25 2016.29 1167.93 2013.98 1167.93 2011.46 1167.93 2008.8 1168.19 2006.1 1168.71 2003.35 1169.23 2000.6 1170.03 1997.93 1171.1 1995.32 1172.16 1992.72 1173.49 1990.26 1175.08 1987.96 1176.67 1985.65 1178.52 1983.65 1180.65 1981.94 1182.77 1980.24 1185.15 1978.88 1187.79 1977.88 1190.44 1976.88 1193.36 1976.38 1196.56 1976.38Z" fill-rule="evenodd"/><text fill="#000000" fill-opacity="0" font-family="Arial,Arial_MSFontService,sans-serif" font-size="52.2656" x="1167.93" y="2022.11">𝐺</text><path d="M1209.7 1942.03 1223.18 1953.68 1223.18 1956.8 1209.7 1968.45 1206.85 1965.23 1215.45 1957.76 1193.37 1957.76 1182.68 1957.76 1173.7 1957.76 1161.14 1957.76 1154.04 1957.76 1141.48 1957.76 1134.38 1957.76 1121.82 1957.76 1102.15 1957.76 1102.15 1952.72 1121.82 1952.72 1134.38 1952.72 1141.48 1952.72 1154.04 1952.72 1161.14 1952.72 1173.7 1952.72 1182.68 1952.72 1193.37 1952.72 1215.45 1952.72 1206.85 1945.25Z" fill-rule="evenodd"/><path d="M610.318 1476.13C606.701 1476.13 603.219 1477.96 599.871 1481.61 596.523 1485.26 593.954 1490.2 592.164 1496.43 597.212 1496.4 601.545 1495.94 605.162 1495.07 608.778 1494.19 611.553 1492.79 613.487 1490.88 615.42 1488.96 616.387 1486.37 616.387 1483.11 616.387 1480.93 615.877 1479.22 614.856 1477.98 613.836 1476.75 612.323 1476.13 610.318 1476.13ZM612.251 1471.89C616.584 1471.89 619.834 1472.77 622 1474.52 624.166 1476.28 625.25 1479.01 625.25 1482.74 625.25 1488.83 622.394 1493.39 616.683 1496.43 610.971 1499.48 602.494 1501 591.25 1501 590.821 1503.15 590.606 1505.48 590.606 1507.98 590.606 1511.74 591.34 1514.47 592.808 1516.17 594.276 1517.87 596.675 1518.72 600.005 1518.72 603.3 1518.72 606.281 1518.01 608.948 1516.58 611.616 1515.14 614.436 1512.94 617.408 1509.97L620.738 1513.46C617.264 1517.29 613.746 1520.17 610.184 1522.11 606.621 1524.04 602.476 1525.01 597.75 1525.01 592.557 1525.01 588.538 1523.42 585.691 1520.26 582.845 1517.09 581.421 1512.67 581.421 1507.02 581.421 1503.18 582.111 1499.08 583.489 1494.69 584.868 1490.3 586.954 1486.36 589.747 1482.87 592.54 1479.38 595.888 1476.68 599.791 1474.76 603.694 1472.85 607.847 1471.89 612.251 1471.89Z" fill-rule="evenodd"/><text fill="#000000" fill-opacity="0" font-family="Arial,Arial_MSFontService,sans-serif" font-size="53.1201" x="581.421" y="1518.37">𝑒</text><path d="M642.251 1507.48C643.189 1507.48 643.996 1507.58 644.673 1507.77 645.35 1507.97 645.962 1508.28 646.509 1508.69 647.056 1509.11 647.544 1509.65 647.974 1510.31 648.403 1510.98 648.84 1511.78 649.282 1512.72 649.517 1513.29 649.764 1514.11 650.024 1515.18 650.285 1516.24 650.558 1517.48 650.845 1518.89 651.131 1520.29 651.418 1521.84 651.704 1523.54 651.991 1525.23 652.277 1527 652.564 1528.85 652.85 1530.7 653.123 1532.59 653.384 1534.53 653.644 1536.47 653.892 1538.38 654.126 1540.25 656.079 1537.7 657.837 1535.12 659.399 1532.5 660.962 1529.88 662.284 1527.41 663.364 1525.08 664.445 1522.75 665.272 1520.63 665.845 1518.71 666.418 1516.8 666.691 1515.27 666.665 1514.12 666.665 1512.98 666.366 1512.16 665.767 1511.66 665.168 1511.17 664.165 1510.88 662.759 1510.8L663.267 1508.3 674.399 1508.3 675.767 1510.57C673.162 1517 670.122 1523.2 666.646 1529.18 663.169 1535.16 659.243 1540.96 654.868 1546.58 652.967 1548.85 651.255 1550.8 649.732 1552.44 648.208 1554.08 646.802 1555.5 645.513 1556.68 644.224 1557.87 643.026 1558.84 641.919 1559.59 640.812 1560.35 639.738 1560.95 638.696 1561.41 637.655 1561.86 636.62 1562.19 635.591 1562.38 634.562 1562.58 633.488 1562.7 632.368 1562.75 631.769 1562.75 631.047 1562.69 630.2 1562.56 629.354 1562.43 628.605 1562.26 627.954 1562.05L629.907 1553.5 633.462 1553.5 633.462 1553.73C633.462 1555.5 634.178 1556.39 635.61 1556.39 637.511 1556.39 639.439 1555.65 641.392 1554.18 643.345 1552.71 645.702 1550.36 648.462 1547.13 647.603 1542.18 646.847 1537.9 646.196 1534.3 645.545 1530.69 644.953 1527.62 644.419 1525.08 643.885 1522.54 643.397 1520.48 642.954 1518.89 642.511 1517.3 642.082 1516.06 641.665 1515.18 641.248 1514.29 640.825 1513.69 640.396 1513.36 639.966 1513.03 639.504 1512.87 639.009 1512.87 638.54 1512.87 638.11 1512.93 637.72 1513.05 637.329 1513.16 636.926 1513.41 636.509 1513.77 636.092 1514.14 635.643 1514.65 635.161 1515.31 634.679 1515.98 634.087 1516.84 633.384 1517.91L630.376 1515.96C631.496 1514.32 632.524 1512.95 633.462 1511.86 634.399 1510.76 635.33 1509.9 636.255 1509.26 637.179 1508.62 638.123 1508.16 639.087 1507.89 640.051 1507.62 641.105 1507.48 642.251 1507.48Z" fill-rule="evenodd"/><text fill="#000000" fill-opacity="0" font-family="Arial,Arial_MSFontService,sans-serif" font-size="55.2734" x="627.954" y="1555.85">𝑦</text><path d="M670.239 1430.81C672.817 1430.81 675.252 1431 677.544 1431.39 679.835 1431.78 682.166 1432.36 684.536 1433.11L682.153 1443.5 677.934 1443.5C677.778 1440.53 677.068 1438.34 675.805 1436.92 674.542 1435.5 672.518 1434.79 669.731 1434.79 665.643 1434.79 662.023 1436.51 658.872 1439.95 657.544 1441.4 656.307 1443.2 655.161 1445.34 654.015 1447.47 653.019 1449.79 652.173 1452.29 651.326 1454.79 650.662 1457.38 650.18 1460.06 649.699 1462.75 649.458 1465.36 649.458 1467.92 649.458 1471.74 650.18 1474.54 651.626 1476.31 653.071 1478.08 655.317 1478.97 658.364 1478.97 659.458 1478.97 660.532 1478.86 661.587 1478.64 662.641 1478.42 663.631 1478.07 664.555 1477.6 665.48 1477.13 666.3 1476.53 667.016 1475.79 667.733 1475.04 668.299 1474.17 668.716 1473.15 669.002 1472.5 669.256 1471.74 669.477 1470.88 669.699 1470.02 669.875 1469.18 670.005 1468.34 670.135 1467.51 670.233 1466.76 670.298 1466.08 670.363 1465.4 670.395 1464.89 670.395 1464.56 670.395 1463.41 670.089 1462.61 669.477 1462.15 668.865 1461.7 667.765 1461.43 666.177 1461.35L666.723 1458.97 683.325 1458.97 682.739 1461.35C681.802 1461.56 681.085 1461.77 680.591 1461.98 680.096 1462.19 679.679 1462.58 679.341 1463.15 679.106 1463.44 678.807 1464.23 678.442 1465.53 678.078 1466.83 677.667 1468.39 677.212 1470.2 676.756 1472.01 676.287 1473.97 675.805 1476.08 675.324 1478.19 674.875 1480.21 674.458 1482.13 673.911 1482.29 673.377 1482.43 672.856 1482.56 672.335 1482.69 671.776 1482.82 671.177 1482.95 670.786 1482.51 670.408 1482.05 670.044 1481.57 669.679 1481.09 669.328 1480.61 668.989 1480.14 667.739 1480.71 666.613 1481.19 665.61 1481.57 664.608 1481.95 663.657 1482.24 662.759 1482.47 661.86 1482.69 660.981 1482.84 660.122 1482.93 659.263 1483.03 658.364 1483.07 657.427 1483.07 654.744 1483.07 652.407 1482.65 650.415 1481.8 648.423 1480.96 646.776 1479.77 645.473 1478.25 644.171 1476.72 643.201 1474.91 642.563 1472.82 641.925 1470.72 641.606 1468.41 641.606 1465.88 641.606 1463.23 641.867 1460.53 642.388 1457.78 642.908 1455.03 643.703 1452.36 644.77 1449.75 645.838 1447.15 647.166 1444.69 648.755 1442.39 650.343 1440.08 652.199 1438.08 654.321 1436.37 656.443 1434.67 658.826 1433.31 661.47 1432.31 664.113 1431.31 667.036 1430.81 670.239 1430.81Z" fill-rule="evenodd"/><text fill="#000000" fill-opacity="0" font-family="Arial,Arial_MSFontService,sans-serif" font-size="52.2656" x="641.606" y="1476.54">𝐺</text><path d="M683.373 1396.46 696.855 1408.11 696.855 1411.23 683.373 1422.88 680.527 1419.66 689.12 1412.19 667.042 1412.19 656.357 1412.19 647.379 1412.19 634.815 1412.19 627.717 1412.19 615.153 1412.19 608.054 1412.19 595.49 1412.19 575.828 1412.19 575.828 1407.14 595.49 1407.14 608.054 1407.14 615.153 1407.14 627.717 1407.14 634.815 1407.14 647.379 1407.14 656.357 1407.14 667.042 1407.14 689.12 1407.14 680.527 1399.68Z" fill-rule="evenodd"/><path d="M0 0 396.583 0.000360892" stroke="#000000" stroke-width="6.875" stroke-miterlimit="8" stroke-dasharray="27.5 20.625" fill="none" fill-rule="evenodd" transform="matrix(-1 0 0 1 2599.08 1235.5)"/><path d="M2409.57 1063.71 2420.24 1076.64 2427.98 1087.46 2435.12 1098.61 2441.7 1110.07 2447.69 1121.83 2453.09 1133.87 2457.89 1146.16 2462.07 1158.68 2465.64 1171.4 2468.57 1184.31 2470.86 1197.38 2472.51 1210.59 2473.49 1223.92 2473.8 1237.25 2466.93 1237.41 2466.62 1224.16 2466.63 1224.34 2465.66 1211.18 2465.67 1211.36 2464.05 1198.32 2464.08 1198.49 2461.81 1185.58 2461.85 1185.75 2458.95 1173.01 2459 1173.17 2455.48 1160.61 2455.53 1160.78 2451.4 1148.42 2451.45 1148.58 2446.72 1136.45 2446.78 1136.61 2441.45 1124.72 2441.53 1124.88 2435.61 1113.27 2435.69 1113.42 2429.2 1102.1 2429.29 1102.25 2422.24 1091.25 2422.33 1091.39 2414.72 1080.73 2414.86 1080.92 2404.27 1068.09ZM2399.89 1078.57 2391.43 1049.02 2420.15 1059.98Z"/><path d="M2506.07 1099.46C2500.77 1099.73 2496.18 1102.02 2492.31 1106.34 2488.43 1110.65 2486.49 1115.97 2486.49 1122.28 2486.49 1126.18 2487.52 1129.44 2489.59 1132.08 2491.66 1134.71 2494.43 1136.2 2497.9 1136.52ZM2513.17 1099.37 2505 1136.48C2508.65 1136.33 2511.97 1135.24 2514.97 1133.2 2517.96 1131.16 2520.32 1128.41 2522.02 1124.94 2523.73 1121.46 2524.58 1117.69 2524.58 1113.61 2524.58 1111.22 2524.16 1108.99 2523.32 1106.92 2522.49 1104.85 2521.19 1103.14 2519.44 1101.78 2517.69 1100.42 2515.6 1099.61 2513.17 1099.37ZM2511.11 1076.51 2518.2 1076.51 2513.98 1095.78C2520.03 1096.23 2524.64 1098 2527.79 1101.08 2530.95 1104.17 2532.53 1108.34 2532.53 1113.61 2532.53 1117.6 2531.83 1121.21 2530.42 1124.46 2529.02 1127.71 2526.95 1130.56 2524.22 1133 2521.5 1135.44 2518.59 1137.24 2515.49 1138.39 2512.39 1139.54 2508.61 1140.12 2504.14 1140.12L2500.06 1158.81 2492.96 1158.81 2497.05 1140.12C2491.12 1139.67 2486.56 1137.9 2483.37 1134.8 2480.18 1131.7 2478.58 1127.5 2478.58 1122.19 2478.58 1117.67 2479.76 1113.4 2482.11 1109.37 2484.46 1105.34 2487.72 1102.09 2491.9 1099.62 2496.08 1097.15 2501.09 1095.87 2506.93 1095.78Z" fill-rule="evenodd"/><text fill="#000000" fill-opacity="0" font-family="Arial,Arial_MSFontService,sans-serif" font-size="82.2969" x="2478.58" y="1148.52">𝜙</text><path d="M2339.35 1005.63 2348.5 1010.81 2357.94 1016.98 2367.07 1023.53 2375.93 1030.46 2384.49 1037.76 2392.7 1045.38 2388.02 1050.42 2379.87 1042.85 2379.98 1042.94 2371.52 1035.73 2371.64 1035.83 2362.89 1028.99 2363.01 1029.07 2353.99 1022.61 2354.11 1022.7 2344.83 1016.62 2345.02 1016.74 2335.96 1011.62ZM2335.29 1022.92 2317.39 997.921 2348.13 998.608Z"/></g></svg>