<svg width="3104" height="2076" xmlns="http://www.w3.org/2000/svg" xmlns:xlink="http://www.w3.org/1999/xlink" xml:space="preserve" overflow="hidden"><defs><clipPath id="clip0"><rect x="385" y="202" width="3104" height="2076"/></clipPath></defs><g clip-path="url(#clip0)" transform="translate(-385 -202)"><rect x="385" y="202" width="3104" height="2076" fill="#FFFFFF"/><path d="M2587.26 919.553C2577.37 918.682 2570.05 909.953 2570.92 900.057L2595.94 615.791C2596.81 605.895 2605.54 598.578 2615.43 599.449L2764.65 612.581C2774.55 613.452 2781.86 622.18 2780.99 632.077L2755.98 916.342C2755.1 926.239 2746.38 933.555 2736.48 932.684Z" fill="#A6A6A6" fill-rule="evenodd"/><path d="M2676.62 763.812 924.5 609.5" stroke="#000000" stroke-width="6.875" stroke-miterlimit="8" fill="none" fill-rule="evenodd"/><path d="M0 0 57.6666 667.866" stroke="#000000" stroke-width="6.875" stroke-miterlimit="8" stroke-dasharray="27.5 20.625" fill="none" fill-rule="evenodd" transform="matrix(-1 0 0 1 2708.17 372.5)"/><path d="M1720.88 1611.46C1713.86 1604.43 1713.86 1593.04 1720.88 1586.02L1922.67 1384.23C1929.69 1377.21 1941.08 1377.21 1948.11 1384.23L2054.03 1490.15C2061.05 1497.18 2061.05 1508.57 2054.03 1515.59L1852.24 1717.38C1845.22 1724.4 1833.83 1724.4 1826.8 1717.38Z" fill="#A6A6A6" fill-rule="evenodd"/><path d="M0 0 1120.2 0.000360892" stroke="#000000" stroke-width="6.875" stroke-miterlimit="8" fill="none" fill-rule="evenodd" transform="matrix(-0.707107 0.707107 0.707107 0.707107 2668.61 769.653)"/><path d="M1877.27 1562.27 927.5 612.5" stroke="#000000" stroke-width="6.875" stroke-miterlimit="8" fill="none" fill-rule="evenodd"/><path d="M1831.96 1517.11 1876.66 1472.41 1921.37 1517.11 1876.66 1561.81Z" stroke="#000000" stroke-width="6.875" stroke-miterlimit="8" fill="none" fill-rule="evenodd"/><path d="M0 0 274.795 257.466" stroke="#000000" stroke-width="6.875" stroke-miterlimit="8" stroke-dasharray="27.5 20.625" fill="none" fill-rule="evenodd" transform="matrix(-1 0 0 1 2941.3 516.5)"/><path d="M2726.91 485.525 2743 487.75 2755.73 490.894 2768.08 494.931 2780.06 499.845 2791.62 505.607 2802.72 512.188 2813.31 519.558 2823.35 527.689 2832.79 536.553 2841.58 546.119 2849.69 556.36 2857.07 567.245 2863.66 578.745 2869.38 590.714 2863.17 593.676 2857.51 581.824 2857.63 582.053 2851.17 570.776 2851.3 570.994 2844.07 560.321 2844.22 560.527 2836.27 550.486 2836.44 550.679 2827.81 541.299 2827.99 541.478 2818.73 532.787 2818.92 532.952 2809.08 524.979 2809.28 525.129 2798.9 517.902 2799.11 518.037 2788.22 511.584 2788.44 511.704 2777.11 506.054 2777.34 506.158 2765.59 501.34 2765.83 501.427 2753.71 497.468 2753.96 497.538 2741.52 494.468 2741.88 494.535 2725.97 492.336ZM2730.17 502.934 2703.56 487.534 2731.85 475.485Z"/><path d="M2836.42 429.996C2831.78 431.973 2828.07 435.304 2825.3 439.991 2822.53 444.678 2821.15 449.941 2821.15 455.781 2821.15 462.759 2824.22 466.248 2830.36 466.248 2832.78 466.248 2834.95 465.439 2836.87 463.822 2838.79 462.205 2840.29 459.936 2841.39 457.016 2842.48 454.097 2843.03 451.004 2843.03 447.74 2843.03 444.206 2842.53 441.054 2841.54 438.284 2840.56 435.514 2838.85 432.751 2836.42 429.996ZM2841.05 404.57C2843.65 404.57 2846.25 405.027 2848.84 405.94 2851.43 406.854 2854.33 408.463 2857.54 410.769L2856.01 417.957 2851.88 417.957C2850.83 414.663 2849.35 412.199 2847.45 410.567 2845.55 408.935 2843.27 408.119 2840.6 408.119 2838.59 408.119 2837 408.636 2835.82 409.669 2834.63 410.702 2834.04 412.042 2834.04 413.689 2834.04 414.558 2834.24 415.426 2834.63 416.295 2835.01 417.163 2835.75 418.324 2836.83 419.776 2837.9 421.229 2839.57 423.273 2841.81 425.908 2844.54 429.172 2846.51 431.853 2847.74 433.949 2848.97 436.045 2849.86 438.164 2850.42 440.306 2850.97 442.447 2851.25 444.85 2851.25 447.515 2851.25 451.229 2850.37 454.853 2848.62 458.387 2846.87 461.92 2844.36 464.706 2841.09 466.742 2837.83 468.779 2834.06 469.797 2829.77 469.797 2825.97 469.797 2822.83 469.168 2820.34 467.91 2817.85 466.652 2816.05 464.945 2814.93 462.789 2813.8 460.633 2813.24 458.147 2813.24 455.332 2813.24 448.983 2815.02 443.42 2818.57 438.643 2822.11 433.867 2827.36 430.026 2834.31 427.121 2831.95 424.456 2830.22 422.15 2829.12 420.203 2828.03 418.256 2827.48 416.415 2827.48 414.678 2827.48 412.791 2828.01 411.084 2829.06 409.556 2830.1 408.029 2831.66 406.816 2833.73 405.918 2835.79 405.019 2838.23 404.57 2841.05 404.57Z" fill-rule="evenodd"/><text fill="#000000" fill-opacity="0" font-family="Arial,Arial_MSFontService,sans-serif" font-size="65.2266" x="2813.24" y="461.643">𝛿</text><path d="M2630.39 757.974 2634.16 714.321 2677.81 718.094 2674.04 761.746Z" stroke="#000000" stroke-width="6.875" stroke-miterlimit="8" fill="none" fill-rule="evenodd"/><path d="M0 0 203.043 190.238" stroke="#000000" stroke-width="6.875" stroke-miterlimit="8" stroke-dasharray="27.5 20.625" fill="none" fill-rule="evenodd" transform="matrix(-1 0 0 1 1876.54 1561.5)"/><path d="M2157.54 1866.21 1877.5 1561.5" stroke="#000000" stroke-width="6.875" stroke-miterlimit="8" stroke-dasharray="27.5 20.625" fill="none" fill-rule="evenodd"/><path d="M2954.54 1068.21 2674.5 763.5" stroke="#000000" stroke-width="6.875" stroke-miterlimit="8" stroke-dasharray="27.5 20.625" fill="none" fill-rule="evenodd"/><path d="M7.2803 2.29053 794.271 768.512 789.475 773.438 2.48437 7.21645ZM10.0775 36.3447-0.0114157-0.0111144 36.6011 9.10216C38.4434 9.56072 39.5651 11.4259 39.1066 13.2682 38.648 15.1104 36.7828 16.2322 34.9405 15.7736L4.04636 8.08369 8.18898 3.82878 16.7022 34.5063C17.2098 36.3357 16.1384 38.2302 14.309 38.7378 12.4797 39.2455 10.5852 38.174 10.0775 36.3447ZM786.663 739.37 796.752 775.726 760.14 766.613C758.297 766.154 757.176 764.289 757.634 762.447 758.093 760.604 759.958 759.483 761.8 759.941L792.694 767.631 788.552 771.886 780.038 741.208C779.531 739.379 780.602 737.485 782.432 736.977 784.261 736.469 786.155 737.541 786.663 739.37Z" transform="matrix(-1 0 0 1 2913.24 1036.5)"/><path d="M2553.89 1487.77 2556.54 1487.77 2545.49 1537.5C2544.83 1540.47 2544.51 1542.68 2544.51 1544.15 2544.51 1545.35 2544.7 1546.22 2545.09 1546.76 2545.48 1547.29 2546.09 1547.56 2546.93 1547.56 2547.83 1547.56 2548.79 1547.2 2549.81 1546.46 2550.82 1545.73 2552.26 1544.33 2554.12 1542.26L2556.68 1544.78C2553.77 1547.83 2551.4 1549.92 2549.56 1551.05 2547.72 1552.17 2545.66 1552.73 2543.38 1552.73 2541.44 1552.73 2539.88 1552.02 2538.71 1550.6 2537.54 1549.17 2536.96 1547.35 2536.96 1545.14 2536.96 1543.13 2537.38 1540.23 2538.22 1536.42L2546.26 1500.44C2546.62 1498.85 2546.87 1497.59 2547.02 1496.64 2547.17 1495.7 2547.25 1494.83 2547.25 1494.02 2547.25 1493.12 2547.08 1492.44 2546.75 1491.97 2546.42 1491.51 2545.95 1491.17 2545.34 1490.96 2544.72 1490.75 2543.62 1490.6 2542.03 1490.51L2542.57 1488.18Z" fill-rule="evenodd"/><text fill="#000000" fill-opacity="0" font-family="Arial,Arial_MSFontService,sans-serif" font-size="64.957" x="2536.96" y="1544.61">𝑙</text><path d="M1149.06 1234.27C1147.47 1234.27 1145.8 1234.33 1144.03 1234.45L1138.28 1260.46 1143.58 1260.46C1147.92 1260.46 1151.35 1259.88 1153.87 1258.71 1156.38 1257.54 1158.37 1255.62 1159.84 1252.96 1161.31 1250.29 1162.04 1247.42 1162.04 1244.33 1162.04 1243.05 1161.92 1241.9 1161.68 1240.9 1161.44 1239.89 1161.13 1239.06 1160.74 1238.4 1160.35 1237.74 1159.86 1237.16 1159.26 1236.65 1158.66 1236.14 1157.91 1235.7 1157.01 1235.33 1156.11 1234.95 1155.07 1234.68 1153.89 1234.52 1152.71 1234.35 1151.1 1234.27 1149.06 1234.27ZM1131.05 1230.32 1151.04 1230.32C1154.21 1230.32 1156.8 1230.5 1158.81 1230.88 1160.81 1231.25 1162.53 1231.81 1163.95 1232.56 1165.37 1233.31 1166.56 1234.28 1167.52 1235.46 1168.48 1236.64 1169.2 1237.98 1169.68 1239.46 1170.16 1240.94 1170.4 1242.52 1170.4 1244.2 1170.4 1248.81 1168.99 1252.73 1166.18 1255.97 1163.36 1259.2 1159.21 1261.66 1153.73 1263.33L1153.73 1263.83C1155.17 1264.91 1156.33 1266.19 1157.21 1267.69 1158.1 1269.19 1158.81 1271.27 1159.35 1273.94L1160.38 1279.15C1160.71 1280.79 1161.08 1282.28 1161.5 1283.59 1161.92 1284.91 1162.42 1285.96 1163.01 1286.74 1163.59 1287.52 1164.25 1288.1 1164.98 1288.49 1165.72 1288.88 1166.79 1289.19 1168.2 1289.43L1167.75 1291.64 1155.3 1291.64C1154.35 1288.97 1153.49 1285.8 1152.74 1282.11L1150.77 1272.59C1150.44 1270.94 1150.04 1269.56 1149.58 1268.43 1149.11 1267.31 1148.56 1266.44 1147.91 1265.83 1147.27 1265.21 1146.52 1264.81 1145.67 1264.62 1144.81 1264.42 1143.77 1264.32 1142.55 1264.32L1137.43 1264.32 1134.28 1278.56C1134.01 1279.73 1133.82 1280.66 1133.72 1281.35 1133.61 1282.04 1133.52 1282.76 1133.45 1283.53 1133.37 1284.29 1133.34 1284.97 1133.34 1285.57 1133.34 1286.5 1133.49 1287.23 1133.79 1287.75 1134.09 1288.27 1134.54 1288.66 1135.13 1288.9 1135.73 1289.14 1136.77 1289.31 1138.23 1289.43L1137.74 1291.64 1119.28 1291.64 1119.77 1289.43C1120.91 1289.25 1121.76 1288.96 1122.33 1288.56 1122.9 1288.15 1123.38 1287.59 1123.77 1286.87 1124.16 1286.16 1124.52 1285.28 1124.85 1284.25 1125.18 1283.21 1125.67 1281.21 1126.33 1278.25L1133.97 1243.66C1134.62 1240.66 1134.95 1238.3 1134.95 1236.56 1134.95 1235.09 1134.61 1234.08 1133.92 1233.51 1133.23 1232.94 1132.11 1232.61 1130.55 1232.52Z" fill-rule="evenodd"/><text fill="#000000" fill-opacity="0" font-family="Arial,Arial_MSFontService,sans-serif" font-size="61.3184" x="1119.28" y="1283.97">𝑅</text><path d="M1842 1562C1842 1542.67 1857.67 1527 1877 1527 1896.33 1527 1912 1542.67 1912 1562 1912 1581.33 1896.33 1597 1877 1597 1857.67 1597 1842 1581.33 1842 1562Z" stroke="#000000" stroke-width="10.3125" stroke-miterlimit="8" fill="#FFFFFF" fill-rule="evenodd"/><path d="M1842 1561.29C1842.12 1542.32 1857.75 1527 1877 1527L1877 1561.5Z" fill-rule="evenodd"/><path d="M1912 1561.71C1911.88 1580.68 1896.25 1596 1877 1596L1877 1561.5Z" fill-rule="evenodd"/><path d="M843.44 507.558C840.205 507.558 837.188 508.711 834.388 511.017 831.588 513.323 829.132 516.617 827.021 520.9 824.909 525.182 823.27 529.884 822.102 535.005 820.934 540.126 820.35 544.648 820.35 548.572 820.35 557.826 823.719 562.453 830.457 562.453 834.56 562.453 838.326 560.566 841.755 556.792 845.184 553.019 847.992 547.726 850.178 540.912 852.364 534.099 853.457 527.563 853.457 521.304 853.457 512.14 850.118 507.558 843.44 507.558ZM843.934 503.605C849.714 503.605 854.169 505.282 857.298 508.636 860.428 511.99 861.992 516.842 861.992 523.191 861.992 527.833 861.199 533.051 859.612 538.846 858.024 544.641 855.726 549.657 852.716 553.895 849.706 558.133 846.27 561.277 842.407 563.328 838.543 565.38 834.5 566.406 830.278 566.406 824.258 566.406 819.691 564.729 816.576 561.374 813.462 558.02 811.905 553.229 811.905 546.999 811.905 542.507 812.661 537.431 814.173 531.771 815.686 526.111 817.872 521.117 820.732 516.789 823.592 512.462 827.006 509.183 830.974 506.952 834.942 504.72 839.262 503.605 843.934 503.605Z" fill-rule="evenodd"/><text fill="#000000" fill-opacity="0" font-family="Arial,Arial_MSFontService,sans-serif" font-size="62.8008" x="811.905" y="558.556">𝑂</text><path d="M883.857 550.94C885.45 550.94 886.927 551.027 888.29 551.202 889.653 551.376 891.066 551.649 892.527 552.02L890.695 560.035 886.835 560.035C886.813 558.901 886.731 557.957 886.589 557.205 886.447 556.453 886.218 555.858 885.902 555.422 885.586 554.986 885.172 554.675 884.659 554.49 884.146 554.304 883.519 554.201 882.778 554.179 881.6 554.179 880.471 554.441 879.392 554.964 878.312 555.487 877.309 556.213 876.382 557.14 875.455 558.066 874.61 559.151 873.847 560.395 873.083 561.638 872.429 562.979 871.884 564.419 871.339 565.858 870.919 567.357 870.624 568.917 870.33 570.476 870.183 572.03 870.183 573.579 870.183 575.891 870.641 577.652 871.557 578.862 872.473 580.073 873.847 580.678 875.679 580.678 876.704 580.678 877.653 580.585 878.525 580.4 879.397 580.214 880.248 579.904 881.077 579.467 881.906 579.031 882.762 578.459 883.645 577.75 884.528 577.041 885.504 576.163 886.573 575.116 886.987 575.553 887.385 575.983 887.767 576.409 888.149 576.834 888.547 577.265 888.961 577.701 886.606 580.143 884.25 581.959 881.895 583.148 879.539 584.336 877.009 584.931 874.305 584.931 870.924 584.931 868.334 583.944 866.535 581.97 864.736 579.996 863.836 577.177 863.836 573.513 863.836 571.463 864.065 569.484 864.523 567.576 864.981 565.667 865.641 563.873 866.502 562.194 867.364 560.515 868.394 558.988 869.594 557.614 870.793 556.24 872.135 555.057 873.618 554.064 875.101 553.072 876.704 552.303 878.427 551.758 880.15 551.213 881.96 550.94 883.857 550.94Z" fill-rule="evenodd"/><text fill="#000000" fill-opacity="0" font-family="Arial,Arial_MSFontService,sans-serif" font-size="33.9907" x="863.836" y="580.682">𝑐</text><path d="M2813.64 747.917 2797.65 776.218 2815.22 776.218 2814.45 761.753C2814.36 759.777 2814.29 757.306 2814.23 754.341 2814.17 751.376 2814.14 749.235 2814.14 747.917ZM2813.91 738.439 2820.7 738.439 2823.93 788.527C2824.08 790.893 2824.35 792.742 2824.74 794.075 2825.13 795.407 2825.66 796.396 2826.33 797.04 2827.01 797.683 2827.99 798.095 2829.28 798.275L2828.78 800.476 2810.09 800.476 2810.59 798.275C2812.36 798.125 2813.67 797.436 2814.54 796.208 2815.41 794.981 2815.84 792.824 2815.84 789.74 2815.84 788.572 2815.8 787.299 2815.71 785.921L2815.4 780.126 2795.63 780.126 2793.16 784.529C2791.99 786.595 2791.14 788.37 2790.6 789.852 2790.06 791.334 2789.79 792.645 2789.79 793.783 2789.79 796.298 2791.3 797.796 2794.33 798.275L2793.83 800.476 2775.46 800.476 2775.95 798.275C2776.88 798.155 2777.76 797.788 2778.58 797.174 2779.41 796.56 2780.28 795.632 2781.21 794.389 2782.14 793.146 2783.44 791.087 2785.12 788.212Z" fill-rule="evenodd"/><text fill="#000000" fill-opacity="0" font-family="Arial,Arial_MSFontService,sans-serif" font-size="62.0371" x="2775.46" y="792.721">𝐴</text><path d="M911 608C911 598.611 918.611 591 928 591 937.389 591 945 598.611 945 608 945 617.389 937.389 625 928 625 918.611 625 911 617.389 911 608Z" fill-rule="evenodd"/><path d="M2657 764C2657 754.611 2664.61 747 2674 747 2683.39 747 2691 754.611 2691 764 2691 773.389 2683.39 781 2674 781 2664.61 781 2657 773.389 2657 764Z" fill-rule="evenodd"/><path d="M1881.4 1758.55C1878.17 1758.55 1875.15 1759.7 1872.35 1762.01 1869.55 1764.31 1867.09 1767.61 1864.98 1771.89 1862.87 1776.17 1861.23 1780.87 1860.06 1785.99 1858.9 1791.11 1858.31 1795.64 1858.31 1799.56 1858.31 1808.81 1861.68 1813.44 1868.42 1813.44 1872.52 1813.44 1876.29 1811.55 1879.72 1807.78 1883.15 1804.01 1885.95 1798.71 1888.14 1791.9 1890.33 1785.09 1891.42 1778.55 1891.42 1772.29 1891.42 1763.13 1888.08 1758.55 1881.4 1758.55ZM1881.9 1754.59C1887.67 1754.59 1892.13 1756.27 1895.26 1759.62 1898.39 1762.98 1899.95 1767.83 1899.95 1774.18 1899.95 1778.82 1899.16 1784.04 1897.57 1789.83 1895.99 1795.63 1893.69 1800.65 1890.68 1804.88 1887.67 1809.12 1884.23 1812.27 1880.37 1814.32 1876.5 1816.37 1872.46 1817.39 1868.24 1817.39 1862.22 1817.39 1857.65 1815.72 1854.54 1812.36 1851.42 1809.01 1849.87 1804.22 1849.87 1797.99 1849.87 1793.5 1850.62 1788.42 1852.13 1782.76 1853.65 1777.1 1855.83 1772.11 1858.69 1767.78 1861.55 1763.45 1864.97 1760.17 1868.94 1757.94 1872.9 1755.71 1877.22 1754.59 1881.9 1754.59Z" fill-rule="evenodd"/><text fill="#000000" fill-opacity="0" font-family="Arial,Arial_MSFontService,sans-serif" font-size="62.8008" x="1849.87" y="1809.54">𝑂</text><path d="M1917.71 1815.08 1913.98 1831.86C1914.5 1831.88 1915.16 1831.91 1915.96 1831.93 1916.75 1831.95 1917.7 1831.96 1918.79 1831.96 1921.14 1831.96 1923.17 1831.76 1924.89 1831.36 1926.6 1830.95 1928.02 1830.32 1929.14 1829.46 1930.26 1828.6 1931.09 1827.48 1931.63 1826.1 1932.16 1824.73 1932.43 1823.08 1932.43 1821.17 1932.43 1820.16 1932.27 1819.28 1931.97 1818.52 1931.66 1817.75 1931.16 1817.11 1930.45 1816.6 1929.74 1816.09 1928.83 1815.71 1927.73 1815.46 1926.63 1815.21 1925.28 1815.08 1923.69 1815.08ZM1927.59 1796.3C1926.54 1796.3 1925.54 1796.32 1924.59 1796.35 1923.64 1796.38 1922.73 1796.44 1921.86 1796.53L1918.49 1811.68 1923.56 1811.68C1925.94 1811.68 1927.95 1811.45 1929.6 1811.01 1931.24 1810.56 1932.58 1809.92 1933.61 1809.09 1934.63 1808.26 1935.38 1807.27 1935.85 1806.1 1936.32 1804.93 1936.55 1803.62 1936.55 1802.16 1936.51 1801.22 1936.32 1800.38 1935.99 1799.64 1935.67 1798.9 1935.15 1798.28 1934.44 1797.79 1933.73 1797.3 1932.81 1796.93 1931.69 1796.68 1930.57 1796.43 1929.2 1796.3 1927.59 1796.3ZM1911.88 1792.9 1929.03 1792.9C1931.58 1792.9 1933.74 1793.11 1935.52 1793.52 1937.3 1793.94 1938.76 1794.54 1939.9 1795.32 1941.05 1796.11 1941.88 1797.05 1942.39 1798.15 1942.9 1799.25 1943.16 1800.51 1943.16 1801.93 1943.16 1807.29 1939.79 1811.08 1933.05 1813.28 1933.05 1813.39 1933.04 1813.48 1933.03 1813.54 1933.02 1813.61 1933.02 1813.66 1933.02 1813.71 1935.04 1814.51 1936.58 1815.63 1937.63 1817.04 1938.68 1818.46 1939.2 1820.1 1939.2 1821.95 1939.2 1824.04 1938.81 1825.91 1938.04 1827.56 1937.26 1829.21 1936.07 1830.6 1934.46 1831.75 1932.84 1832.89 1930.77 1833.78 1928.24 1834.4 1925.71 1835.02 1922.68 1835.33 1919.15 1835.33L1903.8 1835.33 1904.16 1833.33C1904.84 1833.23 1905.39 1833.1 1905.81 1832.96 1906.24 1832.82 1906.62 1832.51 1906.96 1832.04 1907.3 1831.57 1907.61 1830.87 1907.89 1829.93 1908.18 1828.99 1908.5 1827.66 1908.87 1825.94L1914.24 1802.09C1914.46 1801.13 1914.62 1800.28 1914.73 1799.54 1914.84 1798.8 1914.89 1798.19 1914.89 1797.71 1914.89 1796.73 1914.65 1796.03 1914.16 1795.61 1913.67 1795.2 1912.74 1794.98 1911.39 1794.96Z" fill-rule="evenodd"/><text fill="#000000" fill-opacity="0" font-family="Arial,Arial_MSFontService,sans-serif" font-size="42.4312" x="1903.8" y="1830.03">𝐵</text><path d="M1172.58 630.923C1165.52 687.728 1139.21 740.399 1098.04 780.169" stroke="#000000" stroke-width="6.875" stroke-miterlimit="8" fill="none" fill-rule="evenodd"/><path d="M1231.24 749.726C1226.6 751.703 1222.89 755.035 1220.12 759.721 1217.35 764.408 1215.97 769.672 1215.97 775.512 1215.97 782.489 1219.04 785.978 1225.18 785.978 1227.6 785.978 1229.77 785.17 1231.69 783.553 1233.61 781.935 1235.11 779.667 1236.2 776.747 1237.3 773.827 1237.84 770.735 1237.84 767.471 1237.84 763.937 1237.35 760.785 1236.36 758.014 1235.37 755.244 1233.67 752.482 1231.24 749.726ZM1235.87 724.301C1238.47 724.301 1241.07 724.757 1243.66 725.671 1246.25 726.584 1249.15 728.194 1252.35 730.5L1250.83 737.687 1246.69 737.687C1245.65 734.393 1244.17 731.93 1242.27 730.298 1240.37 728.666 1238.08 727.849 1235.42 727.849 1233.41 727.849 1231.82 728.366 1230.63 729.399 1229.45 730.432 1228.86 731.773 1228.86 733.42 1228.86 734.288 1229.05 735.157 1229.44 736.025 1229.83 736.894 1230.57 738.054 1231.65 739.507 1232.72 740.959 1234.39 743.003 1236.63 745.638 1239.36 748.903 1241.33 751.583 1242.56 753.68 1243.79 755.776 1244.68 757.895 1245.23 760.036 1245.79 762.177 1246.07 764.581 1246.07 767.246 1246.07 770.959 1245.19 774.583 1243.44 778.117 1241.69 781.651 1239.18 784.436 1235.91 786.472 1232.65 788.509 1228.88 789.527 1224.59 789.527 1220.79 789.527 1217.64 788.898 1215.16 787.64 1212.67 786.383 1210.87 784.676 1209.75 782.519 1208.62 780.363 1208.06 777.877 1208.06 775.062 1208.06 768.713 1209.84 763.151 1213.38 758.374 1216.93 753.597 1222.18 749.756 1229.13 746.851 1226.76 744.186 1225.03 741.88 1223.94 739.933 1222.85 737.987 1222.3 736.145 1222.3 734.408 1222.3 732.521 1222.83 730.814 1223.87 729.287 1224.92 727.76 1226.48 726.547 1228.55 725.648 1230.61 724.75 1233.05 724.301 1235.87 724.301Z" fill-rule="evenodd"/><text fill="#000000" fill-opacity="0" font-family="Arial,Arial_MSFontService,sans-serif" font-size="65.2266" x="1208.06" y="781.374">𝛿</text><path d="M648.875 1623.61 648.875 2018.99 635.125 2018.99 635.125 1623.61ZM611.999 1661.4 642 1609.97 672.001 1661.4C673.914 1664.68 672.807 1668.89 669.527 1670.8 666.247 1672.71 662.037 1671.61 660.124 1668.33L636.062 1627.08 647.939 1627.08 623.876 1668.33C621.963 1671.61 617.753 1672.71 614.474 1670.8 611.194 1668.89 610.086 1664.68 611.999 1661.4Z"/><path d="M13.6128-6.87499 409.51-6.87464 409.51 6.87536 13.6128 6.87501ZM51.3984 30.001-0.0318643-7.14162e-07 51.3984-30.0009C54.6781-31.9141 58.8878-30.8063 60.801-27.5266 62.7142-24.2468 61.6064-20.0371 58.3266-18.124L17.0766 5.93849 17.0766-5.93847 58.3266 18.1241C61.6063 20.0373 62.7141 24.2469 60.801 27.5267 58.8878 30.8064 54.6781 31.9142 51.3984 30.001Z" transform="matrix(-1 0 0 1 1046.51 2019)"/><path d="M542.477 2043.39C538.609 2043.39 535.002 2044.77 531.654 2047.52 528.306 2050.28 525.37 2054.22 522.845 2059.34 520.321 2064.46 518.36 2070.08 516.964 2076.21 515.568 2082.33 514.869 2087.74 514.869 2092.43 514.869 2103.49 518.898 2109.02 526.954 2109.02 531.86 2109.02 536.363 2106.77 540.463 2102.26 544.562 2097.74 547.919 2091.41 550.533 2083.27 553.147 2075.12 554.454 2067.31 554.454 2059.82 554.454 2048.87 550.462 2043.39 542.477 2043.39ZM543.068 2038.66C549.978 2038.66 555.305 2040.67 559.047 2044.68 562.788 2048.69 564.659 2054.49 564.659 2062.08 564.659 2067.63 563.71 2073.87 561.813 2080.8 559.915 2087.73 557.167 2093.72 553.568 2098.79 549.969 2103.86 545.86 2107.62 541.241 2110.07 536.622 2112.52 531.788 2113.75 526.739 2113.75 519.542 2113.75 514.081 2111.74 510.358 2107.73 506.634 2103.72 504.772 2097.99 504.772 2090.55 504.772 2085.18 505.676 2079.11 507.484 2072.34 509.292 2065.57 511.906 2059.6 515.326 2054.43 518.745 2049.25 522.827 2045.33 527.572 2042.66 532.316 2040 537.482 2038.66 543.068 2038.66Z" fill-rule="evenodd"/><text fill="#000000" fill-opacity="0" font-family="Arial,Arial_MSFontService,sans-serif" font-size="75.0879" x="504.772" y="2104.36">𝑂</text><path d="M601.305 2083.89C603.883 2083.89 606.318 2084.08 608.61 2084.47 610.901 2084.86 613.232 2085.44 615.602 2086.19L613.219 2096.58 609 2096.58C608.844 2093.61 608.134 2091.42 606.871 2090 605.608 2088.58 603.584 2087.87 600.797 2087.87 596.709 2087.87 593.089 2089.59 589.938 2093.03 588.61 2094.49 587.373 2096.28 586.227 2098.42 585.081 2100.56 584.085 2102.87 583.239 2105.37 582.392 2107.87 581.728 2110.46 581.246 2113.15 580.765 2115.83 580.524 2118.45 580.524 2121 580.524 2124.83 581.246 2127.63 582.692 2129.4 584.137 2131.17 586.383 2132.05 589.43 2132.05 590.524 2132.05 591.598 2131.94 592.653 2131.72 593.707 2131.5 594.697 2131.15 595.621 2130.69 596.546 2130.22 597.366 2129.61 598.082 2128.87 598.798 2128.13 599.365 2127.25 599.782 2126.23 600.068 2125.58 600.322 2124.83 600.543 2123.97 600.765 2123.11 600.94 2122.26 601.071 2121.43 601.201 2120.59 601.298 2119.84 601.364 2119.16 601.429 2118.48 601.461 2117.98 601.461 2117.64 601.461 2116.49 601.155 2115.69 600.543 2115.24 599.931 2114.78 598.831 2114.51 597.242 2114.44L597.789 2112.05 614.391 2112.05 613.805 2114.44C612.867 2114.64 612.151 2114.85 611.657 2115.06 611.162 2115.27 610.745 2115.66 610.407 2116.23 610.172 2116.52 609.873 2117.31 609.508 2118.61 609.144 2119.92 608.733 2121.47 608.278 2123.28 607.822 2125.09 607.353 2127.05 606.871 2129.16 606.39 2131.27 605.94 2133.29 605.524 2135.22 604.977 2135.37 604.443 2135.52 603.922 2135.65 603.401 2135.78 602.841 2135.91 602.242 2136.04 601.852 2135.59 601.474 2135.13 601.11 2134.65 600.745 2134.17 600.394 2133.69 600.055 2133.22 598.805 2133.8 597.679 2134.27 596.676 2134.65 595.673 2135.03 594.723 2135.33 593.825 2135.55 592.926 2135.77 592.047 2135.93 591.188 2136.02 590.328 2136.11 589.43 2136.15 588.492 2136.15 585.81 2136.15 583.473 2135.73 581.481 2134.88 579.489 2134.04 577.841 2132.85 576.539 2131.33 575.237 2129.81 574.267 2128 573.629 2125.9 572.991 2123.8 572.672 2121.49 572.672 2118.97 572.672 2116.31 572.933 2113.61 573.453 2110.86 573.974 2108.11 574.769 2105.44 575.836 2102.83 576.904 2100.23 578.232 2097.78 579.821 2095.47 581.409 2093.17 583.265 2091.16 585.387 2089.45 587.509 2087.75 589.892 2086.4 592.535 2085.39 595.179 2084.39 598.102 2083.89 601.305 2083.89Z" fill-rule="evenodd"/><text fill="#000000" fill-opacity="0" font-family="Arial,Arial_MSFontService,sans-serif" font-size="52.2656" x="572.672" y="2129.62">𝐺</text><path d="M1136.64 2021.7C1133.03 2021.7 1129.54 2023.53 1126.2 2027.18 1122.85 2030.83 1120.28 2035.78 1118.49 2042.01 1123.54 2041.97 1127.87 2041.51 1131.49 2040.64 1135.1 2039.76 1137.88 2038.36 1139.81 2036.45 1141.75 2034.53 1142.71 2031.94 1142.71 2028.69 1142.71 2026.5 1142.2 2024.79 1141.18 2023.56 1140.16 2022.32 1138.65 2021.7 1136.64 2021.7ZM1138.58 2017.46C1142.91 2017.46 1146.16 2018.34 1148.33 2020.09 1150.49 2021.85 1151.57 2024.59 1151.57 2028.31 1151.57 2034.4 1148.72 2038.96 1143.01 2042.01 1137.3 2045.05 1128.82 2046.57 1117.58 2046.57 1117.15 2048.72 1116.93 2051.05 1116.93 2053.55 1116.93 2057.31 1117.67 2060.04 1119.13 2061.75 1120.6 2063.45 1123 2064.3 1126.33 2064.3 1129.63 2064.3 1132.61 2063.58 1135.27 2062.15 1137.94 2060.72 1140.76 2058.51 1143.73 2055.54L1147.06 2059.03C1143.59 2062.86 1140.07 2065.75 1136.51 2067.68 1132.95 2069.61 1128.8 2070.58 1124.07 2070.58 1118.88 2070.58 1114.86 2069 1112.02 2065.83 1109.17 2062.66 1107.75 2058.25 1107.75 2052.59 1107.75 2048.76 1108.44 2044.65 1109.81 2040.26 1111.19 2035.87 1113.28 2031.94 1116.07 2028.44 1118.86 2024.95 1122.21 2022.25 1126.12 2020.33 1130.02 2018.42 1134.17 2017.46 1138.58 2017.46Z" fill-rule="evenodd"/><text fill="#000000" fill-opacity="0" font-family="Arial,Arial_MSFontService,sans-serif" font-size="53.1201" x="1107.75" y="2063.94">𝑒</text><path d="M1170.65 2053.05C1172.08 2053.05 1173.25 2053.37 1174.16 2053.99 1175.07 2054.62 1175.83 2055.53 1176.43 2056.73 1177.03 2057.92 1177.52 2059.4 1177.91 2061.16 1178.3 2062.92 1178.72 2064.93 1179.16 2067.19L1179.67 2067.19C1181.23 2065.14 1182.59 2063.35 1183.73 2061.84 1184.88 2060.33 1185.9 2059.06 1186.8 2058.01 1187.7 2056.97 1188.5 2056.13 1189.22 2055.48 1189.94 2054.82 1190.63 2054.32 1191.31 2053.97 1191.99 2053.62 1192.68 2053.38 1193.4 2053.25 1194.12 2053.12 1194.92 2053.05 1195.8 2053.05 1197.11 2053.05 1198.29 2053.29 1199.36 2053.76L1197.4 2061.45 1194.16 2061.45C1194.08 2060.33 1193.67 2059.77 1192.91 2059.77 1192.63 2059.77 1192.31 2059.82 1191.97 2059.93 1191.64 2060.03 1191.23 2060.24 1190.76 2060.55 1190.3 2060.87 1189.75 2061.3 1189.14 2061.86 1188.53 2062.42 1187.81 2063.15 1186.97 2064.05 1186.14 2064.95 1185.19 2066.05 1184.12 2067.35 1183.06 2068.65 1181.83 2070.19 1180.45 2071.96 1181.15 2075.55 1181.76 2078.43 1182.27 2080.59 1182.78 2082.75 1183.26 2084.41 1183.73 2085.55 1184.2 2086.7 1184.67 2087.45 1185.14 2087.8 1185.61 2088.15 1186.14 2088.33 1186.74 2088.33 1187.18 2088.33 1187.59 2088.27 1187.97 2088.17 1188.35 2088.07 1188.74 2087.84 1189.14 2087.49 1189.55 2087.14 1190 2086.63 1190.49 2085.96 1190.99 2085.3 1191.57 2084.42 1192.25 2083.33L1195.18 2085.24C1194.03 2086.96 1193.02 2088.37 1192.13 2089.46 1191.25 2090.55 1190.39 2091.41 1189.55 2092.04 1188.72 2092.66 1187.86 2093.09 1186.97 2093.31 1186.09 2093.53 1185.07 2093.64 1183.93 2093.64 1182.94 2093.64 1182.05 2093.5 1181.27 2093.23 1180.49 2092.96 1179.81 2092.45 1179.24 2091.73 1178.85 2091.28 1178.49 2090.69 1178.15 2089.95 1177.81 2089.21 1177.5 2088.4 1177.21 2087.55 1176.92 2086.69 1176.66 2085.79 1176.43 2084.87 1176.19 2083.95 1176 2083.08 1175.84 2082.27 1175.69 2081.46 1175.56 2080.74 1175.47 2080.1 1175.38 2079.47 1175.32 2078.99 1175.3 2078.68L1174.87 2078.68C1173.3 2080.76 1171.94 2082.58 1170.78 2084.13 1169.62 2085.68 1168.58 2087.01 1167.64 2088.11 1166.7 2089.22 1165.86 2090.13 1165.1 2090.85 1164.34 2091.56 1163.6 2092.13 1162.87 2092.55 1162.14 2092.96 1161.4 2093.25 1160.63 2093.4 1159.86 2093.56 1159.01 2093.64 1158.07 2093.64 1156.71 2093.64 1155.56 2093.4 1154.59 2092.94L1156.39 2085.32 1159.71 2085.32C1159.79 2086.46 1160.22 2087.04 1161 2087.04 1161.28 2087.01 1161.56 2086.96 1161.84 2086.88 1162.11 2086.8 1162.43 2086.64 1162.8 2086.39 1163.16 2086.15 1163.62 2085.76 1164.18 2085.22 1164.74 2084.69 1165.45 2083.95 1166.31 2082.99 1167.17 2082.04 1168.22 2080.85 1169.47 2079.42 1170.72 2077.99 1172.22 2076.22 1173.97 2074.11 1173.5 2071.92 1173.09 2070.02 1172.74 2068.4 1172.39 2066.79 1172.06 2065.4 1171.76 2064.24 1171.46 2063.09 1171.17 2062.14 1170.88 2061.41 1170.59 2060.68 1170.3 2060.1 1170 2059.67 1169.7 2059.24 1169.38 2058.94 1169.03 2058.76 1168.67 2058.57 1168.26 2058.47 1167.8 2058.44 1167.35 2058.44 1166.94 2058.52 1166.56 2058.66 1166.19 2058.8 1165.8 2059.06 1165.39 2059.42 1164.99 2059.78 1164.55 2060.29 1164.06 2060.94 1163.58 2061.59 1163.03 2062.44 1162.4 2063.48L1159.4 2061.53C1160.46 2059.94 1161.43 2058.6 1162.29 2057.51 1163.15 2056.41 1163.99 2055.54 1164.83 2054.89 1165.66 2054.24 1166.54 2053.77 1167.46 2053.48 1168.39 2053.2 1169.45 2053.05 1170.65 2053.05Z" fill-rule="evenodd"/><text fill="#000000" fill-opacity="0" font-family="Arial,Arial_MSFontService,sans-serif" font-size="40.5859" x="1154.59" y="2088.57">𝑥</text><path d="M1196.56 1976.38C1199.14 1976.38 1201.58 1976.57 1203.87 1976.96 1206.16 1977.35 1208.49 1977.93 1210.86 1978.68L1208.48 1989.07 1204.26 1989.07C1204.1 1986.1 1203.39 1983.91 1202.13 1982.49 1200.87 1981.07 1198.84 1980.36 1196.06 1980.36 1191.97 1980.36 1188.35 1982.08 1185.2 1985.52 1183.87 1986.98 1182.63 1988.77 1181.49 1990.91 1180.34 1993.04 1179.34 1995.36 1178.5 1997.86 1177.65 2000.36 1176.99 2002.95 1176.51 2005.64 1176.02 2008.32 1175.78 2010.93 1175.78 2013.49 1175.78 2017.32 1176.51 2020.11 1177.95 2021.89 1179.4 2023.66 1181.64 2024.54 1184.69 2024.54 1185.78 2024.54 1186.86 2024.43 1187.91 2024.21 1188.97 2023.99 1189.96 2023.64 1190.88 2023.17 1191.81 2022.71 1192.63 2022.1 1193.34 2021.36 1194.06 2020.62 1194.62 2019.74 1195.04 2018.72 1195.33 2018.07 1195.58 2017.32 1195.8 2016.46 1196.02 2015.6 1196.2 2014.75 1196.33 2013.92 1196.46 2013.08 1196.56 2012.33 1196.62 2011.65 1196.69 2010.97 1196.72 2010.47 1196.72 2010.13 1196.72 2008.98 1196.41 2008.18 1195.8 2007.73 1195.19 2007.27 1194.09 2007 1192.5 2006.92L1193.05 2004.54 1209.65 2004.54 1209.06 2006.92C1208.13 2007.13 1207.41 2007.34 1206.92 2007.55 1206.42 2007.76 1206 2008.15 1205.67 2008.72 1205.43 2009.01 1205.13 2009.8 1204.77 2011.1 1204.4 2012.41 1203.99 2013.96 1203.54 2015.77 1203.08 2017.58 1202.61 2019.54 1202.13 2021.65 1201.65 2023.76 1201.2 2025.78 1200.78 2027.71 1200.24 2027.86 1199.7 2028.01 1199.18 2028.14 1198.66 2028.27 1198.1 2028.4 1197.5 2028.53 1197.11 2028.08 1196.73 2027.62 1196.37 2027.14 1196 2026.66 1195.65 2026.18 1195.31 2025.71 1194.06 2026.29 1192.94 2026.76 1191.94 2027.14 1190.93 2027.52 1189.98 2027.82 1189.08 2028.04 1188.19 2028.26 1187.31 2028.42 1186.45 2028.51 1185.59 2028.6 1184.69 2028.64 1183.75 2028.64 1181.07 2028.64 1178.73 2028.22 1176.74 2027.37 1174.75 2026.53 1173.1 2025.34 1171.8 2023.82 1170.5 2022.3 1169.53 2020.49 1168.89 2018.39 1168.25 2016.29 1167.93 2013.98 1167.93 2011.46 1167.93 2008.8 1168.19 2006.1 1168.71 2003.35 1169.23 2000.6 1170.03 1997.93 1171.1 1995.32 1172.16 1992.72 1173.49 1990.26 1175.08 1987.96 1176.67 1985.65 1178.52 1983.65 1180.65 1981.94 1182.77 1980.24 1185.15 1978.88 1187.79 1977.88 1190.44 1976.88 1193.36 1976.38 1196.56 1976.38Z" fill-rule="evenodd"/><text fill="#000000" fill-opacity="0" font-family="Arial,Arial_MSFontService,sans-serif" font-size="52.2656" x="1167.93" y="2022.11">𝐺</text><path d="M1209.7 1942.03 1223.18 1953.68 1223.18 1956.8 1209.7 1968.45 1206.85 1965.23 1215.45 1957.76 1193.37 1957.76 1182.68 1957.76 1173.7 1957.76 1161.14 1957.76 1154.04 1957.76 1141.48 1957.76 1134.38 1957.76 1121.82 1957.76 1102.15 1957.76 1102.15 1952.72 1121.82 1952.72 1134.38 1952.72 1141.48 1952.72 1154.04 1952.72 1161.14 1952.72 1173.7 1952.72 1182.68 1952.72 1193.37 1952.72 1215.45 1952.72 1206.85 1945.25Z" fill-rule="evenodd"/><path d="M610.318 1476.13C606.701 1476.13 603.219 1477.96 599.871 1481.61 596.523 1485.26 593.954 1490.2 592.164 1496.43 597.212 1496.4 601.545 1495.94 605.162 1495.07 608.778 1494.19 611.553 1492.79 613.487 1490.88 615.42 1488.96 616.387 1486.37 616.387 1483.11 616.387 1480.93 615.877 1479.22 614.856 1477.98 613.836 1476.75 612.323 1476.13 610.318 1476.13ZM612.251 1471.89C616.584 1471.89 619.834 1472.77 622 1474.52 624.166 1476.28 625.25 1479.01 625.25 1482.74 625.25 1488.83 622.394 1493.39 616.683 1496.43 610.971 1499.48 602.494 1501 591.25 1501 590.821 1503.15 590.606 1505.48 590.606 1507.98 590.606 1511.74 591.34 1514.47 592.808 1516.17 594.276 1517.87 596.675 1518.72 600.005 1518.72 603.3 1518.72 606.281 1518.01 608.948 1516.58 611.616 1515.14 614.436 1512.94 617.408 1509.97L620.738 1513.46C617.264 1517.29 613.746 1520.17 610.184 1522.11 606.621 1524.04 602.476 1525.01 597.75 1525.01 592.557 1525.01 588.538 1523.42 585.691 1520.26 582.845 1517.09 581.421 1512.67 581.421 1507.02 581.421 1503.18 582.111 1499.08 583.489 1494.69 584.868 1490.3 586.954 1486.36 589.747 1482.87 592.54 1479.38 595.888 1476.68 599.791 1474.76 603.694 1472.85 607.847 1471.89 612.251 1471.89Z" fill-rule="evenodd"/><text fill="#000000" fill-opacity="0" font-family="Arial,Arial_MSFontService,sans-serif" font-size="53.1201" x="581.421" y="1518.37">𝑒</text><path d="M642.251 1507.48C643.189 1507.48 643.996 1507.58 644.673 1507.77 645.35 1507.97 645.962 1508.28 646.509 1508.69 647.056 1509.11 647.544 1509.65 647.974 1510.31 648.403 1510.98 648.84 1511.78 649.282 1512.72 649.517 1513.29 649.764 1514.11 650.024 1515.18 650.285 1516.24 650.558 1517.48 650.845 1518.89 651.131 1520.29 651.418 1521.84 651.704 1523.54 651.991 1525.23 652.277 1527 652.564 1528.85 652.85 1530.7 653.123 1532.59 653.384 1534.53 653.644 1536.47 653.892 1538.38 654.126 1540.25 656.079 1537.7 657.837 1535.12 659.399 1532.5 660.962 1529.88 662.284 1527.41 663.364 1525.08 664.445 1522.75 665.272 1520.63 665.845 1518.71 666.418 1516.8 666.691 1515.27 666.665 1514.12 666.665 1512.98 666.366 1512.16 665.767 1511.66 665.168 1511.17 664.165 1510.88 662.759 1510.8L663.267 1508.3 674.399 1508.3 675.767 1510.57C673.162 1517 670.122 1523.2 666.646 1529.18 663.169 1535.16 659.243 1540.96 654.868 1546.58 652.967 1548.85 651.255 1550.8 649.732 1552.44 648.208 1554.08 646.802 1555.5 645.513 1556.68 644.224 1557.87 643.026 1558.84 641.919 1559.59 640.812 1560.35 639.738 1560.95 638.696 1561.41 637.655 1561.86 636.62 1562.19 635.591 1562.38 634.562 1562.58 633.488 1562.7 632.368 1562.75 631.769 1562.75 631.047 1562.69 630.2 1562.56 629.354 1562.43 628.605 1562.26 627.954 1562.05L629.907 1553.5 633.462 1553.5 633.462 1553.73C633.462 1555.5 634.178 1556.39 635.61 1556.39 637.511 1556.39 639.439 1555.65 641.392 1554.18 643.345 1552.71 645.702 1550.36 648.462 1547.13 647.603 1542.18 646.847 1537.9 646.196 1534.3 645.545 1530.69 644.953 1527.62 644.419 1525.08 643.885 1522.54 643.397 1520.48 642.954 1518.89 642.511 1517.3 642.082 1516.06 641.665 1515.18 641.248 1514.29 640.825 1513.69 640.396 1513.36 639.966 1513.03 639.504 1512.87 639.009 1512.87 638.54 1512.87 638.11 1512.93 637.72 1513.05 637.329 1513.16 636.926 1513.41 636.509 1513.77 636.092 1514.14 635.643 1514.65 635.161 1515.31 634.679 1515.98 634.087 1516.84 633.384 1517.91L630.376 1515.96C631.496 1514.32 632.524 1512.95 633.462 1511.86 634.399 1510.76 635.33 1509.9 636.255 1509.26 637.179 1508.62 638.123 1508.16 639.087 1507.89 640.051 1507.62 641.105 1507.48 642.251 1507.48Z" fill-rule="evenodd"/><text fill="#000000" fill-opacity="0" font-family="Arial,Arial_MSFontService,sans-serif" font-size="55.2734" x="627.954" y="1555.85">𝑦</text><path d="M670.239 1430.81C672.817 1430.81 675.252 1431 677.544 1431.39 679.835 1431.78 682.166 1432.36 684.536 1433.11L682.153 1443.5 677.934 1443.5C677.778 1440.53 677.068 1438.34 675.805 1436.92 674.542 1435.5 672.518 1434.79 669.731 1434.79 665.643 1434.79 662.023 1436.51 658.872 1439.95 657.544 1441.4 656.307 1443.2 655.161 1445.34 654.015 1447.47 653.019 1449.79 652.173 1452.29 651.326 1454.79 650.662 1457.38 650.18 1460.06 649.699 1462.75 649.458 1465.36 649.458 1467.92 649.458 1471.74 650.18 1474.54 651.626 1476.31 653.071 1478.08 655.317 1478.97 658.364 1478.97 659.458 1478.97 660.532 1478.86 661.587 1478.64 662.641 1478.42 663.631 1478.07 664.555 1477.6 665.48 1477.13 666.3 1476.53 667.016 1475.79 667.733 1475.04 668.299 1474.17 668.716 1473.15 669.002 1472.5 669.256 1471.74 669.477 1470.88 669.699 1470.02 669.875 1469.18 670.005 1468.34 670.135 1467.51 670.233 1466.76 670.298 1466.08 670.363 1465.4 670.395 1464.89 670.395 1464.56 670.395 1463.41 670.089 1462.61 669.477 1462.15 668.865 1461.7 667.765 1461.43 666.177 1461.35L666.723 1458.97 683.325 1458.97 682.739 1461.35C681.802 1461.56 681.085 1461.77 680.591 1461.98 680.096 1462.19 679.679 1462.58 679.341 1463.15 679.106 1463.44 678.807 1464.23 678.442 1465.53 678.078 1466.83 677.667 1468.39 677.212 1470.2 676.756 1472.01 676.287 1473.97 675.805 1476.08 675.324 1478.19 674.875 1480.21 674.458 1482.13 673.911 1482.29 673.377 1482.43 672.856 1482.56 672.335 1482.69 671.776 1482.82 671.177 1482.95 670.786 1482.51 670.408 1482.05 670.044 1481.57 669.679 1481.09 669.328 1480.61 668.989 1480.14 667.739 1480.71 666.613 1481.19 665.61 1481.57 664.608 1481.95 663.657 1482.24 662.759 1482.47 661.86 1482.69 660.981 1482.84 660.122 1482.93 659.263 1483.03 658.364 1483.07 657.427 1483.07 654.744 1483.07 652.407 1482.65 650.415 1481.8 648.423 1480.96 646.776 1479.77 645.473 1478.25 644.171 1476.72 643.201 1474.91 642.563 1472.82 641.925 1470.72 641.606 1468.41 641.606 1465.88 641.606 1463.23 641.867 1460.53 642.388 1457.78 642.908 1455.03 643.703 1452.36 644.77 1449.75 645.838 1447.15 647.166 1444.69 648.755 1442.39 650.343 1440.08 652.199 1438.08 654.321 1436.37 656.443 1434.67 658.826 1433.31 661.47 1432.31 664.113 1431.31 667.036 1430.81 670.239 1430.81Z" fill-rule="evenodd"/><text fill="#000000" fill-opacity="0" font-family="Arial,Arial_MSFontService,sans-serif" font-size="52.2656" x="641.606" y="1476.54">𝐺</text><path d="M683.373 1396.46 696.855 1408.11 696.855 1411.23 683.373 1422.88 680.527 1419.66 689.12 1412.19 667.042 1412.19 656.357 1412.19 647.379 1412.19 634.815 1412.19 627.717 1412.19 615.153 1412.19 608.054 1412.19 595.49 1412.19 575.828 1412.19 575.828 1407.14 595.49 1407.14 608.054 1407.14 615.153 1407.14 627.717 1407.14 634.815 1407.14 647.379 1407.14 656.357 1407.14 667.042 1407.14 689.12 1407.14 680.527 1399.68Z" fill-rule="evenodd"/><path d="M0 0 396.583 0.000360892" stroke="#000000" stroke-width="6.875" stroke-miterlimit="8" stroke-dasharray="27.5 20.625" fill="none" fill-rule="evenodd" transform="matrix(-1 0 0 1 2274.08 1567.5)"/><path d="M2073.58 1405.91 2081.84 1416.98 2088.54 1427.33 2094.72 1437.92 2100.4 1448.77 2105.58 1459.86 2110.23 1471.17 2114.37 1482.69 2117.97 1494.38 2121.03 1506.24 2123.55 1518.25 2125.51 1530.39 2126.92 1542.63 2127.76 1554.97 2128.03 1567.3 2121.15 1567.45 2120.89 1555.2 2120.9 1555.36 2120.07 1543.18 2120.08 1543.34 2118.69 1531.25 2118.71 1531.41 2116.77 1519.43 2116.8 1519.58 2114.32 1507.73 2114.35 1507.89 2111.33 1496.18 2111.37 1496.33 2107.82 1484.79 2107.87 1484.94 2103.79 1473.57 2103.85 1473.72 2099.25 1462.55 2099.31 1462.7 2094.21 1451.75 2094.28 1451.89 2088.67 1441.18 2088.74 1441.32 2082.64 1430.86 2082.72 1431 2076.13 1420.81 2076.26 1421 2068.07 1410.03ZM2063.04 1420.2 2056.36 1390.19 2084.38 1402.85Z"/><path d="M2173.31 1439.79C2168.01 1440.06 2163.42 1442.35 2159.54 1446.66 2155.67 1450.97 2153.73 1456.29 2153.73 1462.61 2153.73 1466.5 2154.76 1469.77 2156.83 1472.4 2158.89 1475.04 2161.66 1476.52 2165.14 1476.85ZM2180.41 1439.7 2172.23 1476.8C2175.89 1476.65 2179.21 1475.56 2182.21 1473.52 2185.2 1471.49 2187.55 1468.73 2189.26 1465.26 2190.97 1461.78 2191.82 1458.01 2191.82 1453.94 2191.82 1451.54 2191.4 1449.31 2190.56 1447.24 2189.72 1445.18 2188.43 1443.46 2186.68 1442.1 2184.93 1440.74 2182.84 1439.94 2180.41 1439.7ZM2178.34 1416.83 2185.44 1416.83 2181.22 1436.1C2187.27 1436.55 2191.87 1438.32 2195.03 1441.4 2198.19 1444.49 2199.77 1448.67 2199.77 1453.94 2199.77 1457.92 2199.07 1461.54 2197.66 1464.79 2196.25 1468.04 2194.19 1470.88 2191.46 1473.32 2188.74 1475.76 2185.82 1477.56 2182.72 1478.71 2179.62 1479.86 2175.84 1480.44 2171.38 1480.44L2167.29 1499.13 2160.2 1499.13 2164.28 1480.44C2158.35 1479.99 2153.79 1478.22 2150.6 1475.12 2147.42 1472.02 2145.82 1467.82 2145.82 1462.52 2145.82 1458 2147 1453.72 2149.35 1449.69 2151.7 1445.66 2154.96 1442.42 2159.14 1439.94 2163.32 1437.47 2168.33 1436.19 2174.17 1436.1Z" fill-rule="evenodd"/><text fill="#000000" fill-opacity="0" font-family="Arial,Arial_MSFontService,sans-serif" font-size="82.2969" x="2145.82" y="1488.84">𝜙</text><path d="M14.4537 4.86792 276.251 270.408 266.46 280.062 4.66227 14.5214ZM14.7214 57.664-0.0223704-0.0226911 57.4492 15.5384C61.1142 16.5307 63.2808 20.3062 62.2885 23.9712 61.2961 27.6362 57.5206 29.8028 53.8556 28.8105L7.76015 16.3296 16.2178 7.99115 28.0431 54.2592C28.9834 57.9379 26.7634 61.6822 23.0847 62.6225 19.406 63.5627 15.6616 61.3427 14.7214 57.664Z" transform="matrix(-1 0 0 1 2173.36 1262)"/><path d="M2058.57 1230.39 2077.16 1230.39 2076.67 1232.59C2075.35 1232.74 2074.33 1233.13 2073.59 1233.76 2072.86 1234.39 2072.34 1235.26 2072.04 1236.38 2071.74 1237.51 2071.59 1239.01 2071.59 1240.9 2071.59 1241.35 2071.64 1242.7 2071.73 1244.94L2072.99 1277.82 2072.99 1281.42 2073.44 1281.42 2092.89 1246.33C2094.03 1244.27 2094.88 1242.49 2095.45 1241.01 2096.02 1239.53 2096.3 1238.22 2096.3 1237.08 2096.3 1234.56 2094.8 1233.07 2091.81 1232.59L2092.3 1230.39 2110.68 1230.39 2110.18 1232.59C2109.37 1232.71 2108.6 1233.02 2107.87 1233.51 2107.14 1234 2106.31 1234.83 2105.4 1235.98 2104.48 1237.13 2103.07 1239.36 2101.15 1242.65L2072.4 1292.42 2066.43 1292.42 2063.42 1242.34C2063.3 1240.39 2063.08 1238.72 2062.77 1237.33 2062.45 1235.93 2061.96 1234.85 2061.28 1234.07 2060.61 1233.29 2059.54 1232.8 2058.07 1232.59Z" fill-rule="evenodd"/><text fill="#000000" fill-opacity="0" font-family="Arial,Arial_MSFontService,sans-serif" font-size="62.0371" x="2058.07" y="1284.67">𝑉</text><path d="M0 0 203.043 190.238" stroke="#000000" stroke-width="6.875" stroke-miterlimit="8" stroke-dasharray="27.5 20.625" fill="none" fill-rule="evenodd" transform="matrix(-1 0 0 1 950.543 598.5)"/><path d="M1701.67 1710.88 794.765 765.825 799.726 761.065 1706.63 1706.12ZM1700.03 1676.75 1708.88 1713.42 1672.59 1703.07C1670.77 1702.55 1669.71 1700.65 1670.23 1698.82 1670.75 1697 1672.66 1695.94 1674.48 1696.46L1705.1 1705.2 1700.81 1709.31 1693.34 1678.36C1692.9 1676.51 1694.03 1674.66 1695.88 1674.21 1697.73 1673.77 1699.58 1674.9 1700.03 1676.75ZM801.337 795.166 792.489 758.489 828.771 768.84C830.596 769.361 831.654 771.263 831.133 773.089 830.612 774.914 828.71 775.972 826.884 775.451L796.269 766.717 800.554 762.605 808.02 793.554C808.466 795.399 807.33 797.256 805.485 797.702 803.639 798.147 801.782 797.012 801.337 795.166Z"/></g></svg>